<?xml version="1.0" encoding="UTF-8" standalone="no"?>
<!DOCTYPE svg PUBLIC "-//W3C//DTD SVG 1.1//EN"
 "http://www.w3.org/Graphics/SVG/1.1/DTD/svg11.dtd">
<!-- Generated by graphviz version 2.40.1 (20161225.0304)
 -->
<!-- Title: snakemake_dag Pages: 1 -->
<svg width="398pt" height="836pt"
 viewBox="0.00 0.00 397.50 836.00" xmlns="http://www.w3.org/2000/svg" xmlns:xlink="http://www.w3.org/1999/xlink">
<g id="graph0" class="graph" transform="scale(1 1) rotate(0) translate(4 832)">
<title>snakemake_dag</title>
<polygon fill="#ffffff" stroke="transparent" points="-4,4 -4,-832 393.5,-832 393.5,4 -4,4"/>
<!-- 0 -->
<g id="node1" class="node">
<title>0</title>
<path fill="none" stroke="#d88556" stroke-width="2" d="M213.5,-36C213.5,-36 183.5,-36 183.5,-36 177.5,-36 171.5,-30 171.5,-24 171.5,-24 171.5,-12 171.5,-12 171.5,-6 177.5,0 183.5,0 183.5,0 213.5,0 213.5,0 219.5,0 225.5,-6 225.5,-12 225.5,-12 225.5,-24 225.5,-24 225.5,-30 219.5,-36 213.5,-36"/>
<text text-anchor="middle" x="198.5" y="-15.5" font-family="sans" font-size="10.00" fill="#000000">all</text>
</g>
<!-- 1 -->
<g id="node2" class="node">
<title>1</title>
<path fill="none" stroke="#d6d856" stroke-width="2" d="M178,-108C178,-108 99,-108 99,-108 93,-108 87,-102 87,-96 87,-96 87,-84 87,-84 87,-78 93,-72 99,-72 99,-72 178,-72 178,-72 184,-72 190,-78 190,-84 190,-84 190,-96 190,-96 190,-102 184,-108 178,-108"/>
<text text-anchor="middle" x="138.5" y="-87.5" font-family="sans" font-size="10.00" fill="#000000">assign_taxonomy</text>
</g>
<!-- 1&#45;&gt;0 -->
<g id="edge1" class="edge">
<title>1&#45;&gt;0</title>
<path fill="none" stroke="#c0c0c0" stroke-width="2" d="M153.6405,-71.8314C160.6217,-63.454 169.0391,-53.3531 176.6876,-44.1749"/>
<polygon fill="#c0c0c0" stroke="#c0c0c0" stroke-width="2" points="179.4425,-46.3362 183.1556,-36.4133 174.0649,-41.8548 179.4425,-46.3362"/>
</g>
<!-- 2 -->
<g id="node3" class="node">
<title>2</title>
<path fill="none" stroke="#56d882" stroke-width="2" d="M107,-180C107,-180 12,-180 12,-180 6,-180 0,-174 0,-168 0,-168 0,-156 0,-156 0,-150 6,-144 12,-144 12,-144 107,-144 107,-144 113,-144 119,-150 119,-156 119,-156 119,-168 119,-168 119,-174 113,-180 107,-180"/>
<text text-anchor="middle" x="59.5" y="-159.5" font-family="sans" font-size="10.00" fill="#000000">copy_final_bins_over</text>
</g>
<!-- 2&#45;&gt;1 -->
<g id="edge3" class="edge">
<title>2&#45;&gt;1</title>
<path fill="none" stroke="#c0c0c0" stroke-width="2" d="M79.435,-143.8314C88.9783,-135.1337 100.5599,-124.5783 110.9306,-115.1265"/>
<polygon fill="#c0c0c0" stroke="#c0c0c0" stroke-width="2" points="113.538,-117.4857 118.5713,-108.1628 108.8228,-112.3121 113.538,-117.4857"/>
</g>
<!-- 3 -->
<g id="node4" class="node">
<title>3</title>
<path fill="none" stroke="#d8ac56" stroke-width="2" d="M114,-324C114,-324 67,-324 67,-324 61,-324 55,-318 55,-312 55,-312 55,-300 55,-300 55,-294 61,-288 67,-288 67,-288 114,-288 114,-288 120,-288 126,-294 126,-300 126,-300 126,-312 126,-312 126,-318 120,-324 114,-324"/>
<text text-anchor="middle" x="90.5" y="-303.5" font-family="sans" font-size="10.00" fill="#000000">dereplicate</text>
</g>
<!-- 3&#45;&gt;2 -->
<g id="edge5" class="edge">
<title>3&#45;&gt;2</title>
<path fill="none" stroke="#c0c0c0" stroke-width="2" d="M86.3416,-287.5163C84.0093,-277.0925 81.0623,-263.8263 78.5,-252 74.0475,-231.4496 69.1488,-208.2297 65.4408,-190.523"/>
<polygon fill="#c0c0c0" stroke="#c0c0c0" stroke-width="2" points="68.7726,-189.356 63.3006,-180.2837 61.9207,-190.7882 68.7726,-189.356"/>
</g>
<!-- 11 -->
<g id="node12" class="node">
<title>11</title>
<path fill="none" stroke="#d85656" stroke-width="2" d="M185.5,-252C185.5,-252 99.5,-252 99.5,-252 93.5,-252 87.5,-246 87.5,-240 87.5,-240 87.5,-228 87.5,-228 87.5,-222 93.5,-216 99.5,-216 99.5,-216 185.5,-216 185.5,-216 191.5,-216 197.5,-222 197.5,-228 197.5,-228 197.5,-240 197.5,-240 197.5,-246 191.5,-252 185.5,-252"/>
<text text-anchor="middle" x="142.5" y="-231.5" font-family="sans" font-size="10.00" fill="#000000">select_quality_bins</text>
</g>
<!-- 3&#45;&gt;11 -->
<g id="edge15" class="edge">
<title>3&#45;&gt;11</title>
<path fill="none" stroke="#c0c0c0" stroke-width="2" d="M103.6218,-287.8314C109.5499,-279.6232 116.6729,-269.7606 123.1933,-260.7323"/>
<polygon fill="#c0c0c0" stroke="#c0c0c0" stroke-width="2" points="126.184,-262.5693 129.2015,-252.4133 120.5092,-258.4708 126.184,-262.5693"/>
</g>
<!-- 4 -->
<g id="node5" class="node">
<title>4</title>
<path fill="none" stroke="#5682d8" stroke-width="2" d="M145,-540C145,-540 82,-540 82,-540 76,-540 70,-534 70,-528 70,-528 70,-516 70,-516 70,-510 76,-504 82,-504 82,-504 145,-504 145,-504 151,-504 157,-510 157,-516 157,-516 157,-528 157,-528 157,-534 151,-540 145,-540"/>
<text text-anchor="middle" x="113.5" y="-519.5" font-family="sans" font-size="10.00" fill="#000000">rename_MAGs</text>
</g>
<!-- 4&#45;&gt;3 -->
<g id="edge7" class="edge">
<title>4&#45;&gt;3</title>
<path fill="none" stroke="#c0c0c0" stroke-width="2" d="M100.3137,-503.9849C93.7037,-493.9221 86.3114,-480.8511 82.5,-468 68.8423,-421.9497 73.2588,-407.7461 78.5,-360 79.4284,-351.5425 81.1514,-342.4715 83.0078,-334.2246"/>
<polygon fill="#c0c0c0" stroke="#c0c0c0" stroke-width="2" points="86.4527,-334.8678 85.3809,-324.3273 79.6456,-333.2356 86.4527,-334.8678"/>
</g>
<!-- 10 -->
<g id="node11" class="node">
<title>10</title>
<path fill="none" stroke="#afd856" stroke-width="2" d="M163.5,-468C163.5,-468 103.5,-468 103.5,-468 97.5,-468 91.5,-462 91.5,-456 91.5,-456 91.5,-444 91.5,-444 91.5,-438 97.5,-432 103.5,-432 103.5,-432 163.5,-432 163.5,-432 169.5,-432 175.5,-438 175.5,-444 175.5,-444 175.5,-456 175.5,-456 175.5,-462 169.5,-468 163.5,-468"/>
<text text-anchor="middle" x="133.5" y="-447.5" font-family="sans" font-size="10.00" fill="#000000">quality_check</text>
</g>
<!-- 4&#45;&gt;10 -->
<g id="edge14" class="edge">
<title>4&#45;&gt;10</title>
<path fill="none" stroke="#c0c0c0" stroke-width="2" d="M118.5468,-503.8314C120.7094,-496.0463 123.2853,-486.7729 125.6848,-478.1347"/>
<polygon fill="#c0c0c0" stroke="#c0c0c0" stroke-width="2" points="129.081,-478.9852 128.3852,-468.4133 122.3364,-477.1117 129.081,-478.9852"/>
</g>
<!-- 5 -->
<g id="node6" class="node">
<title>5</title>
<path fill="none" stroke="#56d8a9" stroke-width="2" d="M128.5,-612C128.5,-612 98.5,-612 98.5,-612 92.5,-612 86.5,-606 86.5,-600 86.5,-600 86.5,-588 86.5,-588 86.5,-582 92.5,-576 98.5,-576 98.5,-576 128.5,-576 128.5,-576 134.5,-576 140.5,-582 140.5,-588 140.5,-588 140.5,-600 140.5,-600 140.5,-606 134.5,-612 128.5,-612"/>
<text text-anchor="middle" x="113.5" y="-591.5" font-family="sans" font-size="10.00" fill="#000000">refine</text>
</g>
<!-- 5&#45;&gt;4 -->
<g id="edge9" class="edge">
<title>5&#45;&gt;4</title>
<path fill="none" stroke="#c0c0c0" stroke-width="2" d="M113.5,-575.8314C113.5,-568.131 113.5,-558.9743 113.5,-550.4166"/>
<polygon fill="#c0c0c0" stroke="#c0c0c0" stroke-width="2" points="117.0001,-550.4132 113.5,-540.4133 110.0001,-550.4133 117.0001,-550.4132"/>
</g>
<!-- 6 -->
<g id="node7" class="node">
<title>6</title>
<path fill="none" stroke="#56a9d8" stroke-width="2" stroke-dasharray="5,2" d="M128.5,-684C128.5,-684 98.5,-684 98.5,-684 92.5,-684 86.5,-678 86.5,-672 86.5,-672 86.5,-660 86.5,-660 86.5,-654 92.5,-648 98.5,-648 98.5,-648 128.5,-648 128.5,-648 134.5,-648 140.5,-654 140.5,-660 140.5,-660 140.5,-672 140.5,-672 140.5,-678 134.5,-684 128.5,-684"/>
<text text-anchor="middle" x="113.5" y="-663.5" font-family="sans" font-size="10.00" fill="#000000">bin</text>
</g>
<!-- 6&#45;&gt;5 -->
<g id="edge10" class="edge">
<title>6&#45;&gt;5</title>
<path fill="none" stroke="#c0c0c0" stroke-width="2" d="M113.5,-647.8314C113.5,-640.131 113.5,-630.9743 113.5,-622.4166"/>
<polygon fill="#c0c0c0" stroke="#c0c0c0" stroke-width="2" points="117.0001,-622.4132 113.5,-612.4133 110.0001,-622.4133 117.0001,-622.4132"/>
</g>
<!-- 7 -->
<g id="node8" class="node">
<title>7</title>
<path fill="none" stroke="#80d856" stroke-width="2" stroke-dasharray="5,2" d="M139,-756C139,-756 88,-756 88,-756 82,-756 76,-750 76,-744 76,-744 76,-732 76,-732 76,-726 82,-720 88,-720 88,-720 139,-720 139,-720 145,-720 151,-726 151,-732 151,-732 151,-744 151,-744 151,-750 145,-756 139,-756"/>
<text text-anchor="middle" x="113.5" y="-735.5" font-family="sans" font-size="10.00" fill="#000000">unzip_reads</text>
</g>
<!-- 7&#45;&gt;6 -->
<g id="edge11" class="edge">
<title>7&#45;&gt;6</title>
<path fill="none" stroke="#c0c0c0" stroke-width="2" d="M113.5,-719.8314C113.5,-712.131 113.5,-702.9743 113.5,-694.4166"/>
<polygon fill="#c0c0c0" stroke="#c0c0c0" stroke-width="2" points="117.0001,-694.4132 113.5,-684.4133 110.0001,-694.4133 117.0001,-694.4132"/>
</g>
<!-- 8 -->
<g id="node9" class="node">
<title>8</title>
<path fill="none" stroke="#59d856" stroke-width="2" stroke-dasharray="5,2" d="M161.5,-828C161.5,-828 65.5,-828 65.5,-828 59.5,-828 53.5,-822 53.5,-816 53.5,-816 53.5,-804 53.5,-804 53.5,-798 59.5,-792 65.5,-792 65.5,-792 161.5,-792 161.5,-792 167.5,-792 173.5,-798 173.5,-804 173.5,-804 173.5,-816 173.5,-816 173.5,-822 167.5,-828 161.5,-828"/>
<text text-anchor="middle" x="113.5" y="-813" font-family="sans" font-size="10.00" fill="#000000">assemble_reads</text>
<text text-anchor="middle" x="113.5" y="-802" font-family="sans" font-size="10.00" fill="#000000">sample: SRR9162907</text>
</g>
<!-- 8&#45;&gt;7 -->
<g id="edge12" class="edge">
<title>8&#45;&gt;7</title>
<path fill="none" stroke="#c0c0c0" stroke-width="2" d="M113.5,-791.8314C113.5,-784.131 113.5,-774.9743 113.5,-766.4166"/>
<polygon fill="#c0c0c0" stroke="#c0c0c0" stroke-width="2" points="117.0001,-766.4132 113.5,-756.4133 110.0001,-766.4133 117.0001,-766.4132"/>
</g>
<!-- 9 -->
<g id="node10" class="node">
<title>9</title>
<path fill="none" stroke="#56d8d8" stroke-width="2" d="M175,-396C175,-396 100,-396 100,-396 94,-396 88,-390 88,-384 88,-384 88,-372 88,-372 88,-366 94,-360 100,-360 100,-360 175,-360 175,-360 181,-360 187,-366 187,-372 187,-372 187,-384 187,-384 187,-390 181,-396 175,-396"/>
<text text-anchor="middle" x="137.5" y="-375.5" font-family="sans" font-size="10.00" fill="#000000">edit_checkm_file</text>
</g>
<!-- 9&#45;&gt;3 -->
<g id="edge8" class="edge">
<title>9&#45;&gt;3</title>
<path fill="none" stroke="#c0c0c0" stroke-width="2" d="M125.6399,-359.8314C120.3371,-351.7079 113.9763,-341.9637 108.1327,-333.0118"/>
<polygon fill="#c0c0c0" stroke="#c0c0c0" stroke-width="2" points="110.9169,-330.8739 102.5198,-324.4133 105.0552,-334.7003 110.9169,-330.8739"/>
</g>
<!-- 10&#45;&gt;9 -->
<g id="edge13" class="edge">
<title>10&#45;&gt;9</title>
<path fill="none" stroke="#c0c0c0" stroke-width="2" d="M134.5094,-431.8314C134.9372,-424.131 135.4459,-414.9743 135.9213,-406.4166"/>
<polygon fill="#c0c0c0" stroke="#c0c0c0" stroke-width="2" points="139.4169,-406.592 136.477,-396.4133 132.4276,-406.2037 139.4169,-406.592"/>
</g>
<!-- 11&#45;&gt;1 -->
<g id="edge4" class="edge">
<title>11&#45;&gt;1</title>
<path fill="none" stroke="#c0c0c0" stroke-width="2" d="M141.9934,-215.7623C141.3111,-191.201 140.0902,-147.2474 139.2876,-118.3541"/>
<polygon fill="#c0c0c0" stroke="#c0c0c0" stroke-width="2" points="142.7789,-117.9885 139.0025,-108.0896 135.7816,-118.183 142.7789,-117.9885"/>
</g>
<!-- 11&#45;&gt;2 -->
<g id="edge6" class="edge">
<title>11&#45;&gt;2</title>
<path fill="none" stroke="#c0c0c0" stroke-width="2" d="M121.5556,-215.8314C111.4309,-207.0485 99.1223,-196.3712 88.1452,-186.8489"/>
<polygon fill="#c0c0c0" stroke="#c0c0c0" stroke-width="2" points="90.2851,-184.0718 80.4377,-180.1628 85.6981,-189.3595 90.2851,-184.0718"/>
</g>
<!-- 12 -->
<g id="node13" class="node">
<title>12</title>
<path fill="none" stroke="#d6d856" stroke-width="2" d="M299,-108C299,-108 220,-108 220,-108 214,-108 208,-102 208,-96 208,-96 208,-84 208,-84 208,-78 214,-72 220,-72 220,-72 299,-72 299,-72 305,-72 311,-78 311,-84 311,-84 311,-96 311,-96 311,-102 305,-108 299,-108"/>
<text text-anchor="middle" x="259.5" y="-87.5" font-family="sans" font-size="10.00" fill="#000000">assign_taxonomy</text>
</g>
<!-- 12&#45;&gt;0 -->
<g id="edge2" class="edge">
<title>12&#45;&gt;0</title>
<path fill="none" stroke="#c0c0c0" stroke-width="2" d="M244.1071,-71.8314C237.0096,-63.454 228.452,-53.3531 220.676,-44.1749"/>
<polygon fill="#c0c0c0" stroke="#c0c0c0" stroke-width="2" points="223.2348,-41.7807 214.1001,-36.4133 217.8939,-46.3056 223.2348,-41.7807"/>
</g>
<!-- 13 -->
<g id="node14" class="node">
<title>13</title>
<path fill="none" stroke="#56d882" stroke-width="2" d="M299,-180C299,-180 204,-180 204,-180 198,-180 192,-174 192,-168 192,-168 192,-156 192,-156 192,-150 198,-144 204,-144 204,-144 299,-144 299,-144 305,-144 311,-150 311,-156 311,-156 311,-168 311,-168 311,-174 305,-180 299,-180"/>
<text text-anchor="middle" x="251.5" y="-159.5" font-family="sans" font-size="10.00" fill="#000000">copy_final_bins_over</text>
</g>
<!-- 13&#45;&gt;12 -->
<g id="edge16" class="edge">
<title>13&#45;&gt;12</title>
<path fill="none" stroke="#c0c0c0" stroke-width="2" d="M253.5187,-143.8314C254.3743,-136.131 255.3917,-126.9743 256.3426,-118.4166"/>
<polygon fill="#c0c0c0" stroke="#c0c0c0" stroke-width="2" points="259.8283,-118.7386 257.4541,-108.4133 252.8711,-117.9656 259.8283,-118.7386"/>
</g>
<!-- 14 -->
<g id="node15" class="node">
<title>14</title>
<path fill="none" stroke="#d8ac56" stroke-width="2" d="M295,-324C295,-324 248,-324 248,-324 242,-324 236,-318 236,-312 236,-312 236,-300 236,-300 236,-294 242,-288 248,-288 248,-288 295,-288 295,-288 301,-288 307,-294 307,-300 307,-300 307,-312 307,-312 307,-318 301,-324 295,-324"/>
<text text-anchor="middle" x="271.5" y="-303.5" font-family="sans" font-size="10.00" fill="#000000">dereplicate</text>
</g>
<!-- 14&#45;&gt;13 -->
<g id="edge18" class="edge">
<title>14&#45;&gt;13</title>
<path fill="none" stroke="#c0c0c0" stroke-width="2" d="M268.967,-287.7623C265.5557,-263.201 259.451,-219.2474 255.4381,-190.3541"/>
<polygon fill="#c0c0c0" stroke="#c0c0c0" stroke-width="2" points="258.8549,-189.513 254.0124,-180.0896 251.9215,-190.4761 258.8549,-189.513"/>
</g>
<!-- 22 -->
<g id="node23" class="node">
<title>22</title>
<path fill="none" stroke="#d85656" stroke-width="2" d="M377.5,-252C377.5,-252 291.5,-252 291.5,-252 285.5,-252 279.5,-246 279.5,-240 279.5,-240 279.5,-228 279.5,-228 279.5,-222 285.5,-216 291.5,-216 291.5,-216 377.5,-216 377.5,-216 383.5,-216 389.5,-222 389.5,-228 389.5,-228 389.5,-240 389.5,-240 389.5,-246 383.5,-252 377.5,-252"/>
<text text-anchor="middle" x="334.5" y="-231.5" font-family="sans" font-size="10.00" fill="#000000">select_quality_bins</text>
</g>
<!-- 14&#45;&gt;22 -->
<g id="edge28" class="edge">
<title>14&#45;&gt;22</title>
<path fill="none" stroke="#c0c0c0" stroke-width="2" d="M287.3976,-287.8314C294.7278,-279.454 303.566,-269.3531 311.5969,-260.1749"/>
<polygon fill="#c0c0c0" stroke="#c0c0c0" stroke-width="2" points="314.4373,-262.2438 318.3884,-252.4133 309.1693,-257.6343 314.4373,-262.2438"/>
</g>
<!-- 15 -->
<g id="node16" class="node">
<title>15</title>
<path fill="none" stroke="#5682d8" stroke-width="2" d="M292,-540C292,-540 229,-540 229,-540 223,-540 217,-534 217,-528 217,-528 217,-516 217,-516 217,-510 223,-504 229,-504 229,-504 292,-504 292,-504 298,-504 304,-510 304,-516 304,-516 304,-528 304,-528 304,-534 298,-540 292,-540"/>
<text text-anchor="middle" x="260.5" y="-519.5" font-family="sans" font-size="10.00" fill="#000000">rename_MAGs</text>
</g>
<!-- 15&#45;&gt;14 -->
<g id="edge20" class="edge">
<title>15&#45;&gt;14</title>
<path fill="none" stroke="#c0c0c0" stroke-width="2" d="M259.323,-503.9614C257.6303,-473.9828 255.2526,-412.0487 260.5,-360 261.3502,-351.5665 262.9294,-342.5029 264.6311,-334.2554"/>
<polygon fill="#c0c0c0" stroke="#c0c0c0" stroke-width="2" points="268.0791,-334.8719 266.8066,-324.3537 261.2422,-333.3697 268.0791,-334.8719"/>
</g>
<!-- 21 -->
<g id="node22" class="node">
<title>21</title>
<path fill="none" stroke="#afd856" stroke-width="2" d="M344.5,-468C344.5,-468 284.5,-468 284.5,-468 278.5,-468 272.5,-462 272.5,-456 272.5,-456 272.5,-444 272.5,-444 272.5,-438 278.5,-432 284.5,-432 284.5,-432 344.5,-432 344.5,-432 350.5,-432 356.5,-438 356.5,-444 356.5,-444 356.5,-456 356.5,-456 356.5,-462 350.5,-468 344.5,-468"/>
<text text-anchor="middle" x="314.5" y="-447.5" font-family="sans" font-size="10.00" fill="#000000">quality_check</text>
</g>
<!-- 15&#45;&gt;21 -->
<g id="edge27" class="edge">
<title>15&#45;&gt;21</title>
<path fill="none" stroke="#c0c0c0" stroke-width="2" d="M274.1265,-503.8314C280.346,-495.5386 287.8322,-485.557 294.66,-476.4533"/>
<polygon fill="#c0c0c0" stroke="#c0c0c0" stroke-width="2" points="297.49,-478.5133 300.69,-468.4133 291.89,-474.3133 297.49,-478.5133"/>
</g>
<!-- 16 -->
<g id="node17" class="node">
<title>16</title>
<path fill="none" stroke="#56d8a9" stroke-width="2" d="M275.5,-612C275.5,-612 245.5,-612 245.5,-612 239.5,-612 233.5,-606 233.5,-600 233.5,-600 233.5,-588 233.5,-588 233.5,-582 239.5,-576 245.5,-576 245.5,-576 275.5,-576 275.5,-576 281.5,-576 287.5,-582 287.5,-588 287.5,-588 287.5,-600 287.5,-600 287.5,-606 281.5,-612 275.5,-612"/>
<text text-anchor="middle" x="260.5" y="-591.5" font-family="sans" font-size="10.00" fill="#000000">refine</text>
</g>
<!-- 16&#45;&gt;15 -->
<g id="edge22" class="edge">
<title>16&#45;&gt;15</title>
<path fill="none" stroke="#c0c0c0" stroke-width="2" d="M260.5,-575.8314C260.5,-568.131 260.5,-558.9743 260.5,-550.4166"/>
<polygon fill="#c0c0c0" stroke="#c0c0c0" stroke-width="2" points="264.0001,-550.4132 260.5,-540.4133 257.0001,-550.4133 264.0001,-550.4132"/>
</g>
<!-- 17 -->
<g id="node18" class="node">
<title>17</title>
<path fill="none" stroke="#56a9d8" stroke-width="2" stroke-dasharray="5,2" d="M275.5,-684C275.5,-684 245.5,-684 245.5,-684 239.5,-684 233.5,-678 233.5,-672 233.5,-672 233.5,-660 233.5,-660 233.5,-654 239.5,-648 245.5,-648 245.5,-648 275.5,-648 275.5,-648 281.5,-648 287.5,-654 287.5,-660 287.5,-660 287.5,-672 287.5,-672 287.5,-678 281.5,-684 275.5,-684"/>
<text text-anchor="middle" x="260.5" y="-663.5" font-family="sans" font-size="10.00" fill="#000000">bin</text>
</g>
<!-- 17&#45;&gt;16 -->
<g id="edge23" class="edge">
<title>17&#45;&gt;16</title>
<path fill="none" stroke="#c0c0c0" stroke-width="2" d="M260.5,-647.8314C260.5,-640.131 260.5,-630.9743 260.5,-622.4166"/>
<polygon fill="#c0c0c0" stroke="#c0c0c0" stroke-width="2" points="264.0001,-622.4132 260.5,-612.4133 257.0001,-622.4133 264.0001,-622.4132"/>
</g>
<!-- 18 -->
<g id="node19" class="node">
<title>18</title>
<path fill="none" stroke="#80d856" stroke-width="2" stroke-dasharray="5,2" d="M286,-756C286,-756 235,-756 235,-756 229,-756 223,-750 223,-744 223,-744 223,-732 223,-732 223,-726 229,-720 235,-720 235,-720 286,-720 286,-720 292,-720 298,-726 298,-732 298,-732 298,-744 298,-744 298,-750 292,-756 286,-756"/>
<text text-anchor="middle" x="260.5" y="-735.5" font-family="sans" font-size="10.00" fill="#000000">unzip_reads</text>
</g>
<!-- 18&#45;&gt;17 -->
<g id="edge24" class="edge">
<title>18&#45;&gt;17</title>
<path fill="none" stroke="#c0c0c0" stroke-width="2" d="M260.5,-719.8314C260.5,-712.131 260.5,-702.9743 260.5,-694.4166"/>
<polygon fill="#c0c0c0" stroke="#c0c0c0" stroke-width="2" points="264.0001,-694.4132 260.5,-684.4133 257.0001,-694.4133 264.0001,-694.4132"/>
</g>
<!-- 19 -->
<g id="node20" class="node">
<title>19</title>
<path fill="none" stroke="#59d856" stroke-width="2" stroke-dasharray="5,2" d="M308.5,-828C308.5,-828 212.5,-828 212.5,-828 206.5,-828 200.5,-822 200.5,-816 200.5,-816 200.5,-804 200.5,-804 200.5,-798 206.5,-792 212.5,-792 212.5,-792 308.5,-792 308.5,-792 314.5,-792 320.5,-798 320.5,-804 320.5,-804 320.5,-816 320.5,-816 320.5,-822 314.5,-828 308.5,-828"/>
<text text-anchor="middle" x="260.5" y="-813" font-family="sans" font-size="10.00" fill="#000000">assemble_reads</text>
<text text-anchor="middle" x="260.5" y="-802" font-family="sans" font-size="10.00" fill="#000000">sample: SRR9162908</text>
</g>
<!-- 19&#45;&gt;18 -->
<g id="edge25" class="edge">
<title>19&#45;&gt;18</title>
<path fill="none" stroke="#c0c0c0" stroke-width="2" d="M260.5,-791.8314C260.5,-784.131 260.5,-774.9743 260.5,-766.4166"/>
<polygon fill="#c0c0c0" stroke="#c0c0c0" stroke-width="2" points="264.0001,-766.4132 260.5,-756.4133 257.0001,-766.4133 264.0001,-766.4132"/>
</g>
<!-- 20 -->
<g id="node21" class="node">
<title>20</title>
<path fill="none" stroke="#56d8d8" stroke-width="2" d="M356,-396C356,-396 281,-396 281,-396 275,-396 269,-390 269,-384 269,-384 269,-372 269,-372 269,-366 275,-360 281,-360 281,-360 356,-360 356,-360 362,-360 368,-366 368,-372 368,-372 368,-384 368,-384 368,-390 362,-396 356,-396"/>
<text text-anchor="middle" x="318.5" y="-375.5" font-family="sans" font-size="10.00" fill="#000000">edit_checkm_file</text>
</g>
<!-- 20&#45;&gt;14 -->
<g id="edge21" class="edge">
<title>20&#45;&gt;14</title>
<path fill="none" stroke="#c0c0c0" stroke-width="2" d="M306.6399,-359.8314C301.3371,-351.7079 294.9763,-341.9637 289.1327,-333.0118"/>
<polygon fill="#c0c0c0" stroke="#c0c0c0" stroke-width="2" points="291.9169,-330.8739 283.5198,-324.4133 286.0552,-334.7003 291.9169,-330.8739"/>
</g>
<!-- 21&#45;&gt;20 -->
<g id="edge26" class="edge">
<title>21&#45;&gt;20</title>
<path fill="none" stroke="#c0c0c0" stroke-width="2" d="M315.5094,-431.8314C315.9372,-424.131 316.4459,-414.9743 316.9213,-406.4166"/>
<polygon fill="#c0c0c0" stroke="#c0c0c0" stroke-width="2" points="320.4169,-406.592 317.477,-396.4133 313.4276,-406.2037 320.4169,-406.592"/>
</g>
<!-- 22&#45;&gt;12 -->
<g id="edge17" class="edge">
<title>22&#45;&gt;12</title>
<path fill="none" stroke="#c0c0c0" stroke-width="2" d="M335.1943,-215.9514C335.1582,-196.9193 332.863,-166.6166 320.5,-144 314.405,-132.8499 305.0749,-122.8751 295.5311,-114.6239"/>
<polygon fill="#c0c0c0" stroke="#c0c0c0" stroke-width="2" points="297.4951,-111.7096 287.5304,-108.1104 293.0757,-117.1382 297.4951,-111.7096"/>
</g>
<!-- 22&#45;&gt;13 -->
<g id="edge19" class="edge">
<title>22&#45;&gt;13</title>
<path fill="none" stroke="#c0c0c0" stroke-width="2" d="M313.5556,-215.8314C303.4309,-207.0485 291.1223,-196.3712 280.1452,-186.8489"/>
<polygon fill="#c0c0c0" stroke="#c0c0c0" stroke-width="2" points="282.2851,-184.0718 272.4377,-180.1628 277.6981,-189.3595 282.2851,-184.0718"/>
</g>
</g>
</svg>
