<?xml version="1.0" encoding="UTF-8" standalone="no"?>
<!DOCTYPE svg PUBLIC "-//W3C//DTD SVG 1.1//EN"
 "http://www.w3.org/Graphics/SVG/1.1/DTD/svg11.dtd">
<!-- Generated by graphviz version 2.40.1 (20161225.0304)
 -->
<!-- Title: snakemake_dag Pages: 1 -->
<svg width="398pt" height="908pt"
 viewBox="0.00 0.00 397.50 908.00" xmlns="http://www.w3.org/2000/svg" xmlns:xlink="http://www.w3.org/1999/xlink">
<g id="graph0" class="graph" transform="scale(1 1) rotate(0) translate(4 904)">
<title>snakemake_dag</title>
<polygon fill="#ffffff" stroke="transparent" points="-4,4 -4,-904 393.5,-904 393.5,4 -4,4"/>
<!-- 0 -->
<g id="node1" class="node">
<title>0</title>
<path fill="none" stroke="#56d892" stroke-width="2" d="M213.5,-36C213.5,-36 183.5,-36 183.5,-36 177.5,-36 171.5,-30 171.5,-24 171.5,-24 171.5,-12 171.5,-12 171.5,-6 177.5,0 183.5,0 183.5,0 213.5,0 213.5,0 219.5,0 225.5,-6 225.5,-12 225.5,-12 225.5,-24 225.5,-24 225.5,-30 219.5,-36 213.5,-36"/>
<text text-anchor="middle" x="198.5" y="-15.5" font-family="sans" font-size="10.00" fill="#000000">all</text>
</g>
<!-- 1 -->
<g id="node2" class="node">
<title>1</title>
<path fill="none" stroke="#b6d856" stroke-width="2" d="M178,-108C178,-108 99,-108 99,-108 93,-108 87,-102 87,-96 87,-96 87,-84 87,-84 87,-78 93,-72 99,-72 99,-72 178,-72 178,-72 184,-72 190,-78 190,-84 190,-84 190,-96 190,-96 190,-102 184,-108 178,-108"/>
<text text-anchor="middle" x="138.5" y="-87.5" font-family="sans" font-size="10.00" fill="#000000">assign_taxonomy</text>
</g>
<!-- 1&#45;&gt;0 -->
<g id="edge1" class="edge">
<title>1&#45;&gt;0</title>
<path fill="none" stroke="#c0c0c0" stroke-width="2" d="M153.6405,-71.8314C160.6217,-63.454 169.0391,-53.3531 176.6876,-44.1749"/>
<polygon fill="#c0c0c0" stroke="#c0c0c0" stroke-width="2" points="179.4425,-46.3362 183.1556,-36.4133 174.0649,-41.8548 179.4425,-46.3362"/>
</g>
<!-- 2 -->
<g id="node3" class="node">
<title>2</title>
<path fill="none" stroke="#56d86b" stroke-width="2" d="M107,-180C107,-180 12,-180 12,-180 6,-180 0,-174 0,-168 0,-168 0,-156 0,-156 0,-150 6,-144 12,-144 12,-144 107,-144 107,-144 113,-144 119,-150 119,-156 119,-156 119,-168 119,-168 119,-174 113,-180 107,-180"/>
<text text-anchor="middle" x="59.5" y="-159.5" font-family="sans" font-size="10.00" fill="#000000">copy_final_bins_over</text>
</g>
<!-- 2&#45;&gt;1 -->
<g id="edge3" class="edge">
<title>2&#45;&gt;1</title>
<path fill="none" stroke="#c0c0c0" stroke-width="2" d="M79.435,-143.8314C88.9783,-135.1337 100.5599,-124.5783 110.9306,-115.1265"/>
<polygon fill="#c0c0c0" stroke="#c0c0c0" stroke-width="2" points="113.538,-117.4857 118.5713,-108.1628 108.8228,-112.3121 113.538,-117.4857"/>
</g>
<!-- 3 -->
<g id="node4" class="node">
<title>3</title>
<path fill="none" stroke="#d85656" stroke-width="2" d="M108,-324C108,-324 61,-324 61,-324 55,-324 49,-318 49,-312 49,-312 49,-300 49,-300 49,-294 55,-288 61,-288 61,-288 108,-288 108,-288 114,-288 120,-294 120,-300 120,-300 120,-312 120,-312 120,-318 114,-324 108,-324"/>
<text text-anchor="middle" x="84.5" y="-303.5" font-family="sans" font-size="10.00" fill="#000000">dereplicate</text>
</g>
<!-- 3&#45;&gt;2 -->
<g id="edge5" class="edge">
<title>3&#45;&gt;2</title>
<path fill="none" stroke="#c0c0c0" stroke-width="2" d="M81.3337,-287.7623C77.0508,-263.0928 69.3715,-218.8598 64.3564,-189.9731"/>
<polygon fill="#c0c0c0" stroke="#c0c0c0" stroke-width="2" points="67.7996,-189.3435 62.6406,-180.0896 60.9027,-190.541 67.7996,-189.3435"/>
</g>
<!-- 12 -->
<g id="node13" class="node">
<title>12</title>
<path fill="none" stroke="#d8a456" stroke-width="2" d="M185.5,-252C185.5,-252 99.5,-252 99.5,-252 93.5,-252 87.5,-246 87.5,-240 87.5,-240 87.5,-228 87.5,-228 87.5,-222 93.5,-216 99.5,-216 99.5,-216 185.5,-216 185.5,-216 191.5,-216 197.5,-222 197.5,-228 197.5,-228 197.5,-240 197.5,-240 197.5,-246 191.5,-252 185.5,-252"/>
<text text-anchor="middle" x="142.5" y="-231.5" font-family="sans" font-size="10.00" fill="#000000">select_quality_bins</text>
</g>
<!-- 3&#45;&gt;12 -->
<g id="edge19" class="edge">
<title>3&#45;&gt;12</title>
<path fill="none" stroke="#c0c0c0" stroke-width="2" d="M99.1358,-287.8314C105.8161,-279.5386 113.8568,-269.557 121.1904,-260.4533"/>
<polygon fill="#c0c0c0" stroke="#c0c0c0" stroke-width="2" points="124.1194,-262.3965 127.6671,-252.4133 118.6681,-258.0052 124.1194,-262.3965"/>
</g>
<!-- 4 -->
<g id="node5" class="node">
<title>4</title>
<path fill="none" stroke="#56d8b9" stroke-width="2" d="M100,-540C100,-540 37,-540 37,-540 31,-540 25,-534 25,-528 25,-528 25,-516 25,-516 25,-510 31,-504 37,-504 37,-504 100,-504 100,-504 106,-504 112,-510 112,-516 112,-516 112,-528 112,-528 112,-534 106,-540 100,-540"/>
<text text-anchor="middle" x="68.5" y="-519.5" font-family="sans" font-size="10.00" fill="#000000">rename_MAGs</text>
</g>
<!-- 4&#45;&gt;3 -->
<g id="edge7" class="edge">
<title>4&#45;&gt;3</title>
<path fill="none" stroke="#c0c0c0" stroke-width="2" d="M65.9739,-503.8551C62.2665,-473.7236 56.6914,-411.5746 65.5,-360 66.9988,-351.2245 69.7751,-341.9785 72.7513,-333.6659"/>
<polygon fill="#c0c0c0" stroke="#c0c0c0" stroke-width="2" points="76.1126,-334.6742 76.4083,-324.0835 69.5727,-332.1782 76.1126,-334.6742"/>
</g>
<!-- 11 -->
<g id="node12" class="node">
<title>11</title>
<path fill="none" stroke="#68d856" stroke-width="2" d="M150.5,-468C150.5,-468 90.5,-468 90.5,-468 84.5,-468 78.5,-462 78.5,-456 78.5,-456 78.5,-444 78.5,-444 78.5,-438 84.5,-432 90.5,-432 90.5,-432 150.5,-432 150.5,-432 156.5,-432 162.5,-438 162.5,-444 162.5,-444 162.5,-456 162.5,-456 162.5,-462 156.5,-468 150.5,-468"/>
<text text-anchor="middle" x="120.5" y="-447.5" font-family="sans" font-size="10.00" fill="#000000">quality_check</text>
</g>
<!-- 4&#45;&gt;11 -->
<g id="edge18" class="edge">
<title>4&#45;&gt;11</title>
<path fill="none" stroke="#c0c0c0" stroke-width="2" d="M81.6218,-503.8314C87.5499,-495.6232 94.6729,-485.7606 101.1933,-476.7323"/>
<polygon fill="#c0c0c0" stroke="#c0c0c0" stroke-width="2" points="104.184,-478.5693 107.2015,-468.4133 98.5092,-474.4708 104.184,-478.5693"/>
</g>
<!-- 5 -->
<g id="node6" class="node">
<title>5</title>
<path fill="none" stroke="#56a9d8" stroke-width="2" d="M83.5,-612C83.5,-612 53.5,-612 53.5,-612 47.5,-612 41.5,-606 41.5,-600 41.5,-600 41.5,-588 41.5,-588 41.5,-582 47.5,-576 53.5,-576 53.5,-576 83.5,-576 83.5,-576 89.5,-576 95.5,-582 95.5,-588 95.5,-588 95.5,-600 95.5,-600 95.5,-606 89.5,-612 83.5,-612"/>
<text text-anchor="middle" x="68.5" y="-591.5" font-family="sans" font-size="10.00" fill="#000000">refine</text>
</g>
<!-- 5&#45;&gt;4 -->
<g id="edge9" class="edge">
<title>5&#45;&gt;4</title>
<path fill="none" stroke="#c0c0c0" stroke-width="2" d="M68.5,-575.8314C68.5,-568.131 68.5,-558.9743 68.5,-550.4166"/>
<polygon fill="#c0c0c0" stroke="#c0c0c0" stroke-width="2" points="72.0001,-550.4132 68.5,-540.4133 65.0001,-550.4133 72.0001,-550.4132"/>
</g>
<!-- 6 -->
<g id="node7" class="node">
<title>6</title>
<path fill="none" stroke="#567bd8" stroke-width="2" d="M120.5,-684C120.5,-684 90.5,-684 90.5,-684 84.5,-684 78.5,-678 78.5,-672 78.5,-672 78.5,-660 78.5,-660 78.5,-654 84.5,-648 90.5,-648 90.5,-648 120.5,-648 120.5,-648 126.5,-648 132.5,-654 132.5,-660 132.5,-660 132.5,-672 132.5,-672 132.5,-678 126.5,-684 120.5,-684"/>
<text text-anchor="middle" x="105.5" y="-663.5" font-family="sans" font-size="10.00" fill="#000000">bin</text>
</g>
<!-- 6&#45;&gt;5 -->
<g id="edge10" class="edge">
<title>6&#45;&gt;5</title>
<path fill="none" stroke="#c0c0c0" stroke-width="2" d="M96.1633,-647.8314C92.0757,-639.8771 87.1896,-630.369 82.6691,-621.5723"/>
<polygon fill="#c0c0c0" stroke="#c0c0c0" stroke-width="2" points="85.6461,-619.7078 77.9624,-612.4133 79.4201,-622.9074 85.6461,-619.7078"/>
</g>
<!-- 7 -->
<g id="node8" class="node">
<title>7</title>
<path fill="none" stroke="#d8cb56" stroke-width="2" d="M119.5,-828C119.5,-828 47.5,-828 47.5,-828 41.5,-828 35.5,-822 35.5,-816 35.5,-816 35.5,-804 35.5,-804 35.5,-798 41.5,-792 47.5,-792 47.5,-792 119.5,-792 119.5,-792 125.5,-792 131.5,-798 131.5,-804 131.5,-804 131.5,-816 131.5,-816 131.5,-822 125.5,-828 119.5,-828"/>
<text text-anchor="middle" x="83.5" y="-807.5" font-family="sans" font-size="10.00" fill="#000000">assemble_reads</text>
</g>
<!-- 7&#45;&gt;5 -->
<g id="edge11" class="edge">
<title>7&#45;&gt;5</title>
<path fill="none" stroke="#c0c0c0" stroke-width="2" d="M80.8861,-791.6864C77.5253,-767.2086 71.8436,-722.4455 69.5,-684 68.2481,-663.4631 68.0195,-640.2428 68.0927,-622.5326"/>
<polygon fill="#c0c0c0" stroke="#c0c0c0" stroke-width="2" points="71.5943,-622.3171 68.1708,-612.2907 64.5945,-622.2637 71.5943,-622.3171"/>
</g>
<!-- 7&#45;&gt;6 -->
<g id="edge12" class="edge">
<title>7&#45;&gt;6</title>
<path fill="none" stroke="#c0c0c0" stroke-width="2" d="M86.2863,-791.7623C90.0387,-767.201 96.7539,-723.2474 101.1681,-694.3541"/>
<polygon fill="#c0c0c0" stroke="#c0c0c0" stroke-width="2" points="104.6858,-694.5035 102.7363,-684.0896 97.7661,-693.4463 104.6858,-694.5035"/>
</g>
<!-- 9 -->
<g id="node10" class="node">
<title>9</title>
<path fill="none" stroke="#8fd856" stroke-width="2" d="M180,-756C180,-756 129,-756 129,-756 123,-756 117,-750 117,-744 117,-744 117,-732 117,-732 117,-726 123,-720 129,-720 129,-720 180,-720 180,-720 186,-720 192,-726 192,-732 192,-732 192,-744 192,-744 192,-750 186,-756 180,-756"/>
<text text-anchor="middle" x="154.5" y="-735.5" font-family="sans" font-size="10.00" fill="#000000">unzip_reads</text>
</g>
<!-- 7&#45;&gt;9 -->
<g id="edge16" class="edge">
<title>7&#45;&gt;9</title>
<path fill="none" stroke="#c0c0c0" stroke-width="2" d="M101.4163,-791.8314C109.8442,-783.2848 120.041,-772.9443 129.236,-763.6198"/>
<polygon fill="#c0c0c0" stroke="#c0c0c0" stroke-width="2" points="131.8131,-765.9912 136.3425,-756.4133 126.8289,-761.0761 131.8131,-765.9912"/>
</g>
<!-- 8 -->
<g id="node9" class="node">
<title>8</title>
<path fill="none" stroke="#56d0d8" stroke-width="2" d="M189.5,-900C189.5,-900 93.5,-900 93.5,-900 87.5,-900 81.5,-894 81.5,-888 81.5,-888 81.5,-876 81.5,-876 81.5,-870 87.5,-864 93.5,-864 93.5,-864 189.5,-864 189.5,-864 195.5,-864 201.5,-870 201.5,-876 201.5,-876 201.5,-888 201.5,-888 201.5,-894 195.5,-900 189.5,-900"/>
<text text-anchor="middle" x="141.5" y="-885" font-family="sans" font-size="10.00" fill="#000000">qc_reads</text>
<text text-anchor="middle" x="141.5" y="-874" font-family="sans" font-size="10.00" fill="#000000">sample: SRR9162907</text>
</g>
<!-- 8&#45;&gt;7 -->
<g id="edge14" class="edge">
<title>8&#45;&gt;7</title>
<path fill="none" stroke="#c0c0c0" stroke-width="2" d="M126.8642,-863.8314C120.1839,-855.5386 112.1432,-845.557 104.8096,-836.4533"/>
<polygon fill="#c0c0c0" stroke="#c0c0c0" stroke-width="2" points="107.3319,-834.0052 98.3329,-828.4133 101.8806,-838.3965 107.3319,-834.0052"/>
</g>
<!-- 8&#45;&gt;9 -->
<g id="edge15" class="edge">
<title>8&#45;&gt;9</title>
<path fill="none" stroke="#c0c0c0" stroke-width="2" d="M143.1465,-863.7623C145.3638,-839.201 149.3318,-795.2474 151.9403,-766.3541"/>
<polygon fill="#c0c0c0" stroke="#c0c0c0" stroke-width="2" points="155.4535,-766.3638 152.8669,-756.0896 148.4819,-765.7344 155.4535,-766.3638"/>
</g>
<!-- 9&#45;&gt;6 -->
<g id="edge13" class="edge">
<title>9&#45;&gt;6</title>
<path fill="none" stroke="#c0c0c0" stroke-width="2" d="M142.1352,-719.8314C136.5491,-711.6232 129.837,-701.7606 123.6928,-692.7323"/>
<polygon fill="#c0c0c0" stroke="#c0c0c0" stroke-width="2" points="126.551,-690.7112 118.0313,-684.4133 120.764,-694.6496 126.551,-690.7112"/>
</g>
<!-- 10 -->
<g id="node11" class="node">
<title>10</title>
<path fill="none" stroke="#d87d56" stroke-width="2" d="M162,-396C162,-396 87,-396 87,-396 81,-396 75,-390 75,-384 75,-384 75,-372 75,-372 75,-366 81,-360 87,-360 87,-360 162,-360 162,-360 168,-360 174,-366 174,-372 174,-372 174,-384 174,-384 174,-390 168,-396 162,-396"/>
<text text-anchor="middle" x="124.5" y="-375.5" font-family="sans" font-size="10.00" fill="#000000">edit_checkm_file</text>
</g>
<!-- 10&#45;&gt;3 -->
<g id="edge8" class="edge">
<title>10&#45;&gt;3</title>
<path fill="none" stroke="#c0c0c0" stroke-width="2" d="M114.4063,-359.8314C109.9403,-351.7925 104.5925,-342.1666 99.6621,-333.2918"/>
<polygon fill="#c0c0c0" stroke="#c0c0c0" stroke-width="2" points="102.6456,-331.4551 94.7296,-324.4133 96.5265,-334.8546 102.6456,-331.4551"/>
</g>
<!-- 11&#45;&gt;10 -->
<g id="edge17" class="edge">
<title>11&#45;&gt;10</title>
<path fill="none" stroke="#c0c0c0" stroke-width="2" d="M121.5094,-431.8314C121.9372,-424.131 122.4459,-414.9743 122.9213,-406.4166"/>
<polygon fill="#c0c0c0" stroke="#c0c0c0" stroke-width="2" points="126.4169,-406.592 123.477,-396.4133 119.4276,-406.2037 126.4169,-406.592"/>
</g>
<!-- 12&#45;&gt;1 -->
<g id="edge4" class="edge">
<title>12&#45;&gt;1</title>
<path fill="none" stroke="#c0c0c0" stroke-width="2" d="M141.9934,-215.7623C141.3111,-191.201 140.0902,-147.2474 139.2876,-118.3541"/>
<polygon fill="#c0c0c0" stroke="#c0c0c0" stroke-width="2" points="142.7789,-117.9885 139.0025,-108.0896 135.7816,-118.183 142.7789,-117.9885"/>
</g>
<!-- 12&#45;&gt;2 -->
<g id="edge6" class="edge">
<title>12&#45;&gt;2</title>
<path fill="none" stroke="#c0c0c0" stroke-width="2" d="M121.5556,-215.8314C111.4309,-207.0485 99.1223,-196.3712 88.1452,-186.8489"/>
<polygon fill="#c0c0c0" stroke="#c0c0c0" stroke-width="2" points="90.2851,-184.0718 80.4377,-180.1628 85.6981,-189.3595 90.2851,-184.0718"/>
</g>
<!-- 13 -->
<g id="node14" class="node">
<title>13</title>
<path fill="none" stroke="#b6d856" stroke-width="2" d="M299,-108C299,-108 220,-108 220,-108 214,-108 208,-102 208,-96 208,-96 208,-84 208,-84 208,-78 214,-72 220,-72 220,-72 299,-72 299,-72 305,-72 311,-78 311,-84 311,-84 311,-96 311,-96 311,-102 305,-108 299,-108"/>
<text text-anchor="middle" x="259.5" y="-87.5" font-family="sans" font-size="10.00" fill="#000000">assign_taxonomy</text>
</g>
<!-- 13&#45;&gt;0 -->
<g id="edge2" class="edge">
<title>13&#45;&gt;0</title>
<path fill="none" stroke="#c0c0c0" stroke-width="2" d="M244.1071,-71.8314C237.0096,-63.454 228.452,-53.3531 220.676,-44.1749"/>
<polygon fill="#c0c0c0" stroke="#c0c0c0" stroke-width="2" points="223.2348,-41.7807 214.1001,-36.4133 217.8939,-46.3056 223.2348,-41.7807"/>
</g>
<!-- 14 -->
<g id="node15" class="node">
<title>14</title>
<path fill="none" stroke="#56d86b" stroke-width="2" d="M299,-180C299,-180 204,-180 204,-180 198,-180 192,-174 192,-168 192,-168 192,-156 192,-156 192,-150 198,-144 204,-144 204,-144 299,-144 299,-144 305,-144 311,-150 311,-156 311,-156 311,-168 311,-168 311,-174 305,-180 299,-180"/>
<text text-anchor="middle" x="251.5" y="-159.5" font-family="sans" font-size="10.00" fill="#000000">copy_final_bins_over</text>
</g>
<!-- 14&#45;&gt;13 -->
<g id="edge20" class="edge">
<title>14&#45;&gt;13</title>
<path fill="none" stroke="#c0c0c0" stroke-width="2" d="M253.5187,-143.8314C254.3743,-136.131 255.3917,-126.9743 256.3426,-118.4166"/>
<polygon fill="#c0c0c0" stroke="#c0c0c0" stroke-width="2" points="259.8283,-118.7386 257.4541,-108.4133 252.8711,-117.9656 259.8283,-118.7386"/>
</g>
<!-- 15 -->
<g id="node16" class="node">
<title>15</title>
<path fill="none" stroke="#d85656" stroke-width="2" d="M298,-324C298,-324 251,-324 251,-324 245,-324 239,-318 239,-312 239,-312 239,-300 239,-300 239,-294 245,-288 251,-288 251,-288 298,-288 298,-288 304,-288 310,-294 310,-300 310,-300 310,-312 310,-312 310,-318 304,-324 298,-324"/>
<text text-anchor="middle" x="274.5" y="-303.5" font-family="sans" font-size="10.00" fill="#000000">dereplicate</text>
</g>
<!-- 15&#45;&gt;14 -->
<g id="edge22" class="edge">
<title>15&#45;&gt;14</title>
<path fill="none" stroke="#c0c0c0" stroke-width="2" d="M271.587,-287.7623C267.6468,-263.0928 260.5818,-218.8598 255.9679,-189.9731"/>
<polygon fill="#c0c0c0" stroke="#c0c0c0" stroke-width="2" points="259.4228,-189.4124 254.3893,-180.0896 252.5104,-190.5165 259.4228,-189.4124"/>
</g>
<!-- 24 -->
<g id="node25" class="node">
<title>24</title>
<path fill="none" stroke="#d8a456" stroke-width="2" d="M377.5,-252C377.5,-252 291.5,-252 291.5,-252 285.5,-252 279.5,-246 279.5,-240 279.5,-240 279.5,-228 279.5,-228 279.5,-222 285.5,-216 291.5,-216 291.5,-216 377.5,-216 377.5,-216 383.5,-216 389.5,-222 389.5,-228 389.5,-228 389.5,-240 389.5,-240 389.5,-246 383.5,-252 377.5,-252"/>
<text text-anchor="middle" x="334.5" y="-231.5" font-family="sans" font-size="10.00" fill="#000000">select_quality_bins</text>
</g>
<!-- 15&#45;&gt;24 -->
<g id="edge36" class="edge">
<title>15&#45;&gt;24</title>
<path fill="none" stroke="#c0c0c0" stroke-width="2" d="M289.6405,-287.8314C296.6217,-279.454 305.0391,-269.3531 312.6876,-260.1749"/>
<polygon fill="#c0c0c0" stroke="#c0c0c0" stroke-width="2" points="315.4425,-262.3362 319.1556,-252.4133 310.0649,-257.8548 315.4425,-262.3362"/>
</g>
<!-- 16 -->
<g id="node17" class="node">
<title>16</title>
<path fill="none" stroke="#56d8b9" stroke-width="2" d="M296,-540C296,-540 233,-540 233,-540 227,-540 221,-534 221,-528 221,-528 221,-516 221,-516 221,-510 227,-504 233,-504 233,-504 296,-504 296,-504 302,-504 308,-510 308,-516 308,-516 308,-528 308,-528 308,-534 302,-540 296,-540"/>
<text text-anchor="middle" x="264.5" y="-519.5" font-family="sans" font-size="10.00" fill="#000000">rename_MAGs</text>
</g>
<!-- 16&#45;&gt;15 -->
<g id="edge24" class="edge">
<title>16&#45;&gt;15</title>
<path fill="none" stroke="#c0c0c0" stroke-width="2" d="M263.4272,-503.9715C261.8844,-474.0073 259.7172,-412.0934 264.5,-360 265.2723,-351.5885 266.7077,-342.5317 268.2547,-334.2836"/>
<polygon fill="#c0c0c0" stroke="#c0c0c0" stroke-width="2" points="271.7067,-334.8697 270.2325,-324.3779 264.8422,-333.499 271.7067,-334.8697"/>
</g>
<!-- 23 -->
<g id="node24" class="node">
<title>23</title>
<path fill="none" stroke="#68d856" stroke-width="2" d="M349.5,-468C349.5,-468 289.5,-468 289.5,-468 283.5,-468 277.5,-462 277.5,-456 277.5,-456 277.5,-444 277.5,-444 277.5,-438 283.5,-432 289.5,-432 289.5,-432 349.5,-432 349.5,-432 355.5,-432 361.5,-438 361.5,-444 361.5,-444 361.5,-456 361.5,-456 361.5,-462 355.5,-468 349.5,-468"/>
<text text-anchor="middle" x="319.5" y="-447.5" font-family="sans" font-size="10.00" fill="#000000">quality_check</text>
</g>
<!-- 16&#45;&gt;23 -->
<g id="edge35" class="edge">
<title>16&#45;&gt;23</title>
<path fill="none" stroke="#c0c0c0" stroke-width="2" d="M278.3788,-503.8314C284.7136,-495.5386 292.3384,-485.557 299.2926,-476.4533"/>
<polygon fill="#c0c0c0" stroke="#c0c0c0" stroke-width="2" points="302.1452,-478.4847 305.4343,-468.4133 296.5825,-474.2353 302.1452,-478.4847"/>
</g>
<!-- 17 -->
<g id="node18" class="node">
<title>17</title>
<path fill="none" stroke="#56a9d8" stroke-width="2" d="M279.5,-612C279.5,-612 249.5,-612 249.5,-612 243.5,-612 237.5,-606 237.5,-600 237.5,-600 237.5,-588 237.5,-588 237.5,-582 243.5,-576 249.5,-576 249.5,-576 279.5,-576 279.5,-576 285.5,-576 291.5,-582 291.5,-588 291.5,-588 291.5,-600 291.5,-600 291.5,-606 285.5,-612 279.5,-612"/>
<text text-anchor="middle" x="264.5" y="-591.5" font-family="sans" font-size="10.00" fill="#000000">refine</text>
</g>
<!-- 17&#45;&gt;16 -->
<g id="edge26" class="edge">
<title>17&#45;&gt;16</title>
<path fill="none" stroke="#c0c0c0" stroke-width="2" d="M264.5,-575.8314C264.5,-568.131 264.5,-558.9743 264.5,-550.4166"/>
<polygon fill="#c0c0c0" stroke="#c0c0c0" stroke-width="2" points="268.0001,-550.4132 264.5,-540.4133 261.0001,-550.4133 268.0001,-550.4132"/>
</g>
<!-- 18 -->
<g id="node19" class="node">
<title>18</title>
<path fill="none" stroke="#567bd8" stroke-width="2" d="M310.5,-684C310.5,-684 280.5,-684 280.5,-684 274.5,-684 268.5,-678 268.5,-672 268.5,-672 268.5,-660 268.5,-660 268.5,-654 274.5,-648 280.5,-648 280.5,-648 310.5,-648 310.5,-648 316.5,-648 322.5,-654 322.5,-660 322.5,-660 322.5,-672 322.5,-672 322.5,-678 316.5,-684 310.5,-684"/>
<text text-anchor="middle" x="295.5" y="-663.5" font-family="sans" font-size="10.00" fill="#000000">bin</text>
</g>
<!-- 18&#45;&gt;17 -->
<g id="edge27" class="edge">
<title>18&#45;&gt;17</title>
<path fill="none" stroke="#c0c0c0" stroke-width="2" d="M287.6774,-647.8314C284.2891,-639.9617 280.2459,-630.5712 276.4924,-621.8533"/>
<polygon fill="#c0c0c0" stroke="#c0c0c0" stroke-width="2" points="279.5973,-620.214 272.4279,-612.4133 273.1679,-622.9822 279.5973,-620.214"/>
</g>
<!-- 19 -->
<g id="node20" class="node">
<title>19</title>
<path fill="none" stroke="#d8cb56" stroke-width="2" d="M309.5,-828C309.5,-828 237.5,-828 237.5,-828 231.5,-828 225.5,-822 225.5,-816 225.5,-816 225.5,-804 225.5,-804 225.5,-798 231.5,-792 237.5,-792 237.5,-792 309.5,-792 309.5,-792 315.5,-792 321.5,-798 321.5,-804 321.5,-804 321.5,-816 321.5,-816 321.5,-822 315.5,-828 309.5,-828"/>
<text text-anchor="middle" x="273.5" y="-807.5" font-family="sans" font-size="10.00" fill="#000000">assemble_reads</text>
</g>
<!-- 19&#45;&gt;17 -->
<g id="edge28" class="edge">
<title>19&#45;&gt;17</title>
<path fill="none" stroke="#c0c0c0" stroke-width="2" d="M270.3106,-791.5676C265.4744,-761.5394 257.0899,-700.1695 259.5,-648 259.8807,-639.7603 260.5864,-630.8359 261.35,-622.6604"/>
<polygon fill="#c0c0c0" stroke="#c0c0c0" stroke-width="2" points="264.8571,-622.7626 262.3649,-612.4651 257.8915,-622.0692 264.8571,-622.7626"/>
</g>
<!-- 19&#45;&gt;18 -->
<g id="edge29" class="edge">
<title>19&#45;&gt;18</title>
<path fill="none" stroke="#c0c0c0" stroke-width="2" d="M276.2863,-791.7623C280.0387,-767.201 286.7539,-723.2474 291.1681,-694.3541"/>
<polygon fill="#c0c0c0" stroke="#c0c0c0" stroke-width="2" points="294.6858,-694.5035 292.7363,-684.0896 287.7661,-693.4463 294.6858,-694.5035"/>
</g>
<!-- 21 -->
<g id="node22" class="node">
<title>21</title>
<path fill="none" stroke="#8fd856" stroke-width="2" d="M370,-756C370,-756 319,-756 319,-756 313,-756 307,-750 307,-744 307,-744 307,-732 307,-732 307,-726 313,-720 319,-720 319,-720 370,-720 370,-720 376,-720 382,-726 382,-732 382,-732 382,-744 382,-744 382,-750 376,-756 370,-756"/>
<text text-anchor="middle" x="344.5" y="-735.5" font-family="sans" font-size="10.00" fill="#000000">unzip_reads</text>
</g>
<!-- 19&#45;&gt;21 -->
<g id="edge33" class="edge">
<title>19&#45;&gt;21</title>
<path fill="none" stroke="#c0c0c0" stroke-width="2" d="M291.4163,-791.8314C299.8442,-783.2848 310.041,-772.9443 319.236,-763.6198"/>
<polygon fill="#c0c0c0" stroke="#c0c0c0" stroke-width="2" points="321.8131,-765.9912 326.3425,-756.4133 316.8289,-761.0761 321.8131,-765.9912"/>
</g>
<!-- 20 -->
<g id="node21" class="node">
<title>20</title>
<path fill="none" stroke="#56d0d8" stroke-width="2" d="M343.5,-900C343.5,-900 247.5,-900 247.5,-900 241.5,-900 235.5,-894 235.5,-888 235.5,-888 235.5,-876 235.5,-876 235.5,-870 241.5,-864 247.5,-864 247.5,-864 343.5,-864 343.5,-864 349.5,-864 355.5,-870 355.5,-876 355.5,-876 355.5,-888 355.5,-888 355.5,-894 349.5,-900 343.5,-900"/>
<text text-anchor="middle" x="295.5" y="-885" font-family="sans" font-size="10.00" fill="#000000">qc_reads</text>
<text text-anchor="middle" x="295.5" y="-874" font-family="sans" font-size="10.00" fill="#000000">sample: SRR9162908</text>
</g>
<!-- 20&#45;&gt;19 -->
<g id="edge31" class="edge">
<title>20&#45;&gt;19</title>
<path fill="none" stroke="#c0c0c0" stroke-width="2" d="M289.9485,-863.8314C287.5697,-856.0463 284.7362,-846.7729 282.0967,-838.1347"/>
<polygon fill="#c0c0c0" stroke="#c0c0c0" stroke-width="2" points="285.3958,-836.954 279.1263,-828.4133 278.7013,-838.9996 285.3958,-836.954"/>
</g>
<!-- 20&#45;&gt;21 -->
<g id="edge32" class="edge">
<title>20&#45;&gt;21</title>
<path fill="none" stroke="#c0c0c0" stroke-width="2" d="M310.2338,-863.5693C317.4619,-853.5943 325.6387,-840.7334 330.5,-828 338.0551,-808.2106 341.5368,-784.4886 343.1395,-766.3682"/>
<polygon fill="#c0c0c0" stroke="#c0c0c0" stroke-width="2" points="346.6475,-766.3891 343.8984,-756.1571 339.6667,-765.8702 346.6475,-766.3891"/>
</g>
<!-- 21&#45;&gt;18 -->
<g id="edge30" class="edge">
<title>21&#45;&gt;18</title>
<path fill="none" stroke="#c0c0c0" stroke-width="2" d="M332.1352,-719.8314C326.5491,-711.6232 319.837,-701.7606 313.6928,-692.7323"/>
<polygon fill="#c0c0c0" stroke="#c0c0c0" stroke-width="2" points="316.551,-690.7112 308.0313,-684.4133 310.764,-694.6496 316.551,-690.7112"/>
</g>
<!-- 22 -->
<g id="node23" class="node">
<title>22</title>
<path fill="none" stroke="#d87d56" stroke-width="2" d="M361,-396C361,-396 286,-396 286,-396 280,-396 274,-390 274,-384 274,-384 274,-372 274,-372 274,-366 280,-360 286,-360 286,-360 361,-360 361,-360 367,-360 373,-366 373,-372 373,-372 373,-384 373,-384 373,-390 367,-396 361,-396"/>
<text text-anchor="middle" x="323.5" y="-375.5" font-family="sans" font-size="10.00" fill="#000000">edit_checkm_file</text>
</g>
<!-- 22&#45;&gt;15 -->
<g id="edge25" class="edge">
<title>22&#45;&gt;15</title>
<path fill="none" stroke="#c0c0c0" stroke-width="2" d="M311.1352,-359.8314C305.5491,-351.6232 298.837,-341.7606 292.6928,-332.7323"/>
<polygon fill="#c0c0c0" stroke="#c0c0c0" stroke-width="2" points="295.551,-330.7112 287.0313,-324.4133 289.764,-334.6496 295.551,-330.7112"/>
</g>
<!-- 23&#45;&gt;22 -->
<g id="edge34" class="edge">
<title>23&#45;&gt;22</title>
<path fill="none" stroke="#c0c0c0" stroke-width="2" d="M320.5094,-431.8314C320.9372,-424.131 321.4459,-414.9743 321.9213,-406.4166"/>
<polygon fill="#c0c0c0" stroke="#c0c0c0" stroke-width="2" points="325.4169,-406.592 322.477,-396.4133 318.4276,-406.2037 325.4169,-406.592"/>
</g>
<!-- 24&#45;&gt;13 -->
<g id="edge21" class="edge">
<title>24&#45;&gt;13</title>
<path fill="none" stroke="#c0c0c0" stroke-width="2" d="M335.1943,-215.9514C335.1582,-196.9193 332.863,-166.6166 320.5,-144 314.405,-132.8499 305.0749,-122.8751 295.5311,-114.6239"/>
<polygon fill="#c0c0c0" stroke="#c0c0c0" stroke-width="2" points="297.4951,-111.7096 287.5304,-108.1104 293.0757,-117.1382 297.4951,-111.7096"/>
</g>
<!-- 24&#45;&gt;14 -->
<g id="edge23" class="edge">
<title>24&#45;&gt;14</title>
<path fill="none" stroke="#c0c0c0" stroke-width="2" d="M313.5556,-215.8314C303.4309,-207.0485 291.1223,-196.3712 280.1452,-186.8489"/>
<polygon fill="#c0c0c0" stroke="#c0c0c0" stroke-width="2" points="282.2851,-184.0718 272.4377,-180.1628 277.6981,-189.3595 282.2851,-184.0718"/>
</g>
</g>
</svg>
