<?xml version="1.0" encoding="UTF-8" standalone="no"?>
<!DOCTYPE svg PUBLIC "-//W3C//DTD SVG 1.1//EN"
 "http://www.w3.org/Graphics/SVG/1.1/DTD/svg11.dtd">
<!-- Generated by graphviz version 2.40.1 (20161225.0304)
 -->
<!-- Title: snakemake_dag Pages: 1 -->
<svg width="336pt" height="692pt"
 viewBox="0.00 0.00 336.00 692.00" xmlns="http://www.w3.org/2000/svg" xmlns:xlink="http://www.w3.org/1999/xlink">
<g id="graph0" class="graph" transform="scale(1 1) rotate(0) translate(4 688)">
<title>snakemake_dag</title>
<polygon fill="#ffffff" stroke="transparent" points="-4,4 -4,-688 332,-688 332,4 -4,4"/>
<!-- 0 -->
<g id="node1" class="node">
<title>0</title>
<path fill="none" stroke="#d88d56" stroke-width="2" d="M153,-36C153,-36 123,-36 123,-36 117,-36 111,-30 111,-24 111,-24 111,-12 111,-12 111,-6 117,0 123,0 123,0 153,0 153,0 159,0 165,-6 165,-12 165,-12 165,-24 165,-24 165,-30 159,-36 153,-36"/>
<text text-anchor="middle" x="138" y="-15.5" font-family="sans" font-size="10.00" fill="#000000">all</text>
</g>
<!-- 1 -->
<g id="node2" class="node">
<title>1</title>
<path fill="none" stroke="#bed856" stroke-width="2" d="M117.5,-108C117.5,-108 38.5,-108 38.5,-108 32.5,-108 26.5,-102 26.5,-96 26.5,-96 26.5,-84 26.5,-84 26.5,-78 32.5,-72 38.5,-72 38.5,-72 117.5,-72 117.5,-72 123.5,-72 129.5,-78 129.5,-84 129.5,-84 129.5,-96 129.5,-96 129.5,-102 123.5,-108 117.5,-108"/>
<text text-anchor="middle" x="78" y="-87.5" font-family="sans" font-size="10.00" fill="#000000">assign_taxonomy</text>
</g>
<!-- 1&#45;&gt;0 -->
<g id="edge1" class="edge">
<title>1&#45;&gt;0</title>
<path fill="none" stroke="#c0c0c0" stroke-width="2" d="M93.1405,-71.8314C100.1217,-63.454 108.5391,-53.3531 116.1876,-44.1749"/>
<polygon fill="#c0c0c0" stroke="#c0c0c0" stroke-width="2" points="118.9425,-46.3362 122.6556,-36.4133 113.5649,-41.8548 118.9425,-46.3362"/>
</g>
<!-- 2 -->
<g id="node3" class="node">
<title>2</title>
<path fill="none" stroke="#59d856" stroke-width="2" d="M83.5,-324C83.5,-324 36.5,-324 36.5,-324 30.5,-324 24.5,-318 24.5,-312 24.5,-312 24.5,-300 24.5,-300 24.5,-294 30.5,-288 36.5,-288 36.5,-288 83.5,-288 83.5,-288 89.5,-288 95.5,-294 95.5,-300 95.5,-300 95.5,-312 95.5,-312 95.5,-318 89.5,-324 83.5,-324"/>
<text text-anchor="middle" x="60" y="-303.5" font-family="sans" font-size="10.00" fill="#000000">dereplicate</text>
</g>
<!-- 2&#45;&gt;1 -->
<g id="edge3" class="edge">
<title>2&#45;&gt;1</title>
<path fill="none" stroke="#c0c0c0" stroke-width="2" d="M47.8792,-287.8052C41.7586,-277.6898 34.8349,-264.6258 31,-252 17.0209,-205.9754 5.5927,-188.4393 24,-144 28.5521,-133.0103 36.546,-123.0911 45.0102,-114.8418"/>
<polygon fill="#c0c0c0" stroke="#c0c0c0" stroke-width="2" points="47.4499,-117.354 52.4948,-108.0373 42.7411,-112.1745 47.4499,-117.354"/>
</g>
<!-- 9 -->
<g id="node10" class="node">
<title>9</title>
<path fill="none" stroke="#568ad8" stroke-width="2" d="M112,-252C112,-252 52,-252 52,-252 46,-252 40,-246 40,-240 40,-240 40,-228 40,-228 40,-222 46,-216 52,-216 52,-216 112,-216 112,-216 118,-216 124,-222 124,-228 124,-228 124,-240 124,-240 124,-246 118,-252 112,-252"/>
<text text-anchor="middle" x="82" y="-231.5" font-family="sans" font-size="10.00" fill="#000000">quality_check</text>
</g>
<!-- 2&#45;&gt;9 -->
<g id="edge11" class="edge">
<title>2&#45;&gt;9</title>
<path fill="none" stroke="#c0c0c0" stroke-width="2" d="M65.5515,-287.8314C67.9303,-280.0463 70.7638,-270.7729 73.4033,-262.1347"/>
<polygon fill="#c0c0c0" stroke="#c0c0c0" stroke-width="2" points="76.7987,-262.9996 76.3737,-252.4133 70.1042,-260.954 76.7987,-262.9996"/>
</g>
<!-- 3 -->
<g id="node4" class="node">
<title>3</title>
<path fill="none" stroke="#d8bc56" stroke-width="2" d="M91.5,-396C91.5,-396 28.5,-396 28.5,-396 22.5,-396 16.5,-390 16.5,-384 16.5,-384 16.5,-372 16.5,-372 16.5,-366 22.5,-360 28.5,-360 28.5,-360 91.5,-360 91.5,-360 97.5,-360 103.5,-366 103.5,-372 103.5,-372 103.5,-384 103.5,-384 103.5,-390 97.5,-396 91.5,-396"/>
<text text-anchor="middle" x="60" y="-375.5" font-family="sans" font-size="10.00" fill="#000000">rename_MAGs</text>
</g>
<!-- 3&#45;&gt;2 -->
<g id="edge5" class="edge">
<title>3&#45;&gt;2</title>
<path fill="none" stroke="#c0c0c0" stroke-width="2" d="M60,-359.8314C60,-352.131 60,-342.9743 60,-334.4166"/>
<polygon fill="#c0c0c0" stroke="#c0c0c0" stroke-width="2" points="63.5001,-334.4132 60,-324.4133 56.5001,-334.4133 63.5001,-334.4132"/>
</g>
<!-- 4 -->
<g id="node5" class="node">
<title>4</title>
<path fill="none" stroke="#56c1d8" stroke-width="2" d="M75,-468C75,-468 45,-468 45,-468 39,-468 33,-462 33,-456 33,-456 33,-444 33,-444 33,-438 39,-432 45,-432 45,-432 75,-432 75,-432 81,-432 87,-438 87,-444 87,-444 87,-456 87,-456 87,-462 81,-468 75,-468"/>
<text text-anchor="middle" x="60" y="-447.5" font-family="sans" font-size="10.00" fill="#000000">refine</text>
</g>
<!-- 4&#45;&gt;3 -->
<g id="edge6" class="edge">
<title>4&#45;&gt;3</title>
<path fill="none" stroke="#c0c0c0" stroke-width="2" d="M60,-431.8314C60,-424.131 60,-414.9743 60,-406.4166"/>
<polygon fill="#c0c0c0" stroke="#c0c0c0" stroke-width="2" points="63.5001,-406.4132 60,-396.4133 56.5001,-406.4133 63.5001,-406.4132"/>
</g>
<!-- 5 -->
<g id="node6" class="node">
<title>5</title>
<path fill="none" stroke="#d85656" stroke-width="2" stroke-dasharray="5,2" d="M75,-540C75,-540 45,-540 45,-540 39,-540 33,-534 33,-528 33,-528 33,-516 33,-516 33,-510 39,-504 45,-504 45,-504 75,-504 75,-504 81,-504 87,-510 87,-516 87,-516 87,-528 87,-528 87,-534 81,-540 75,-540"/>
<text text-anchor="middle" x="60" y="-519.5" font-family="sans" font-size="10.00" fill="#000000">bin</text>
</g>
<!-- 5&#45;&gt;4 -->
<g id="edge7" class="edge">
<title>5&#45;&gt;4</title>
<path fill="none" stroke="#c0c0c0" stroke-width="2" d="M60,-503.8314C60,-496.131 60,-486.9743 60,-478.4166"/>
<polygon fill="#c0c0c0" stroke="#c0c0c0" stroke-width="2" points="63.5001,-478.4132 60,-468.4133 56.5001,-478.4133 63.5001,-478.4132"/>
</g>
<!-- 6 -->
<g id="node7" class="node">
<title>6</title>
<path fill="none" stroke="#56d8c1" stroke-width="2" stroke-dasharray="5,2" d="M85.5,-612C85.5,-612 34.5,-612 34.5,-612 28.5,-612 22.5,-606 22.5,-600 22.5,-600 22.5,-588 22.5,-588 22.5,-582 28.5,-576 34.5,-576 34.5,-576 85.5,-576 85.5,-576 91.5,-576 97.5,-582 97.5,-588 97.5,-588 97.5,-600 97.5,-600 97.5,-606 91.5,-612 85.5,-612"/>
<text text-anchor="middle" x="60" y="-591.5" font-family="sans" font-size="10.00" fill="#000000">unzip_reads</text>
</g>
<!-- 6&#45;&gt;5 -->
<g id="edge8" class="edge">
<title>6&#45;&gt;5</title>
<path fill="none" stroke="#c0c0c0" stroke-width="2" d="M60,-575.8314C60,-568.131 60,-558.9743 60,-550.4166"/>
<polygon fill="#c0c0c0" stroke="#c0c0c0" stroke-width="2" points="63.5001,-550.4132 60,-540.4133 56.5001,-550.4133 63.5001,-550.4132"/>
</g>
<!-- 7 -->
<g id="node8" class="node">
<title>7</title>
<path fill="none" stroke="#88d856" stroke-width="2" stroke-dasharray="5,2" d="M108,-684C108,-684 12,-684 12,-684 6,-684 0,-678 0,-672 0,-672 0,-660 0,-660 0,-654 6,-648 12,-648 12,-648 108,-648 108,-648 114,-648 120,-654 120,-660 120,-660 120,-672 120,-672 120,-678 114,-684 108,-684"/>
<text text-anchor="middle" x="60" y="-669" font-family="sans" font-size="10.00" fill="#000000">assemble_reads</text>
<text text-anchor="middle" x="60" y="-658" font-family="sans" font-size="10.00" fill="#000000">sample: SRR9162907</text>
</g>
<!-- 7&#45;&gt;6 -->
<g id="edge9" class="edge">
<title>7&#45;&gt;6</title>
<path fill="none" stroke="#c0c0c0" stroke-width="2" d="M60,-647.8314C60,-640.131 60,-630.9743 60,-622.4166"/>
<polygon fill="#c0c0c0" stroke="#c0c0c0" stroke-width="2" points="63.5001,-622.4132 60,-612.4133 56.5001,-622.4133 63.5001,-622.4132"/>
</g>
<!-- 8 -->
<g id="node9" class="node">
<title>8</title>
<path fill="none" stroke="#56d88a" stroke-width="2" d="M131,-180C131,-180 45,-180 45,-180 39,-180 33,-174 33,-168 33,-168 33,-156 33,-156 33,-150 39,-144 45,-144 45,-144 131,-144 131,-144 137,-144 143,-150 143,-156 143,-156 143,-168 143,-168 143,-174 137,-180 131,-180"/>
<text text-anchor="middle" x="88" y="-159.5" font-family="sans" font-size="10.00" fill="#000000">select_quality_bins</text>
</g>
<!-- 8&#45;&gt;1 -->
<g id="edge4" class="edge">
<title>8&#45;&gt;1</title>
<path fill="none" stroke="#c0c0c0" stroke-width="2" d="M85.4766,-143.8314C84.4071,-136.131 83.1353,-126.9743 81.9468,-118.4166"/>
<polygon fill="#c0c0c0" stroke="#c0c0c0" stroke-width="2" points="85.3999,-117.8367 80.5574,-108.4133 78.4664,-118.7997 85.3999,-117.8367"/>
</g>
<!-- 9&#45;&gt;8 -->
<g id="edge10" class="edge">
<title>9&#45;&gt;8</title>
<path fill="none" stroke="#c0c0c0" stroke-width="2" d="M83.5141,-215.8314C84.1558,-208.131 84.9188,-198.9743 85.6319,-190.4166"/>
<polygon fill="#c0c0c0" stroke="#c0c0c0" stroke-width="2" points="89.1229,-190.6694 86.4656,-180.4133 82.1471,-190.088 89.1229,-190.6694"/>
</g>
<!-- 10 -->
<g id="node11" class="node">
<title>10</title>
<path fill="none" stroke="#bed856" stroke-width="2" d="M238.5,-108C238.5,-108 159.5,-108 159.5,-108 153.5,-108 147.5,-102 147.5,-96 147.5,-96 147.5,-84 147.5,-84 147.5,-78 153.5,-72 159.5,-72 159.5,-72 238.5,-72 238.5,-72 244.5,-72 250.5,-78 250.5,-84 250.5,-84 250.5,-96 250.5,-96 250.5,-102 244.5,-108 238.5,-108"/>
<text text-anchor="middle" x="199" y="-87.5" font-family="sans" font-size="10.00" fill="#000000">assign_taxonomy</text>
</g>
<!-- 10&#45;&gt;0 -->
<g id="edge2" class="edge">
<title>10&#45;&gt;0</title>
<path fill="none" stroke="#c0c0c0" stroke-width="2" d="M183.6071,-71.8314C176.5096,-63.454 167.952,-53.3531 160.176,-44.1749"/>
<polygon fill="#c0c0c0" stroke="#c0c0c0" stroke-width="2" points="162.7348,-41.7807 153.6001,-36.4133 157.3939,-46.3056 162.7348,-41.7807"/>
</g>
<!-- 11 -->
<g id="node12" class="node">
<title>11</title>
<path fill="none" stroke="#59d856" stroke-width="2" d="M235.5,-324C235.5,-324 188.5,-324 188.5,-324 182.5,-324 176.5,-318 176.5,-312 176.5,-312 176.5,-300 176.5,-300 176.5,-294 182.5,-288 188.5,-288 188.5,-288 235.5,-288 235.5,-288 241.5,-288 247.5,-294 247.5,-300 247.5,-300 247.5,-312 247.5,-312 247.5,-318 241.5,-324 235.5,-324"/>
<text text-anchor="middle" x="212" y="-303.5" font-family="sans" font-size="10.00" fill="#000000">dereplicate</text>
</g>
<!-- 11&#45;&gt;10 -->
<g id="edge12" class="edge">
<title>11&#45;&gt;10</title>
<path fill="none" stroke="#c0c0c0" stroke-width="2" d="M210.914,-287.9555C208.6533,-250.3938 203.4269,-163.5541 200.7099,-118.4103"/>
<polygon fill="#c0c0c0" stroke="#c0c0c0" stroke-width="2" points="204.1866,-117.9167 200.0921,-108.1451 197.1992,-118.3373 204.1866,-117.9167"/>
</g>
<!-- 18 -->
<g id="node19" class="node">
<title>18</title>
<path fill="none" stroke="#568ad8" stroke-width="2" d="M296,-252C296,-252 236,-252 236,-252 230,-252 224,-246 224,-240 224,-240 224,-228 224,-228 224,-222 230,-216 236,-216 236,-216 296,-216 296,-216 302,-216 308,-222 308,-228 308,-228 308,-240 308,-240 308,-246 302,-252 296,-252"/>
<text text-anchor="middle" x="266" y="-231.5" font-family="sans" font-size="10.00" fill="#000000">quality_check</text>
</g>
<!-- 11&#45;&gt;18 -->
<g id="edge20" class="edge">
<title>11&#45;&gt;18</title>
<path fill="none" stroke="#c0c0c0" stroke-width="2" d="M225.6265,-287.8314C231.846,-279.5386 239.3322,-269.557 246.16,-260.4533"/>
<polygon fill="#c0c0c0" stroke="#c0c0c0" stroke-width="2" points="248.99,-262.5133 252.19,-252.4133 243.39,-258.3133 248.99,-262.5133"/>
</g>
<!-- 12 -->
<g id="node13" class="node">
<title>12</title>
<path fill="none" stroke="#d8bc56" stroke-width="2" d="M243.5,-396C243.5,-396 180.5,-396 180.5,-396 174.5,-396 168.5,-390 168.5,-384 168.5,-384 168.5,-372 168.5,-372 168.5,-366 174.5,-360 180.5,-360 180.5,-360 243.5,-360 243.5,-360 249.5,-360 255.5,-366 255.5,-372 255.5,-372 255.5,-384 255.5,-384 255.5,-390 249.5,-396 243.5,-396"/>
<text text-anchor="middle" x="212" y="-375.5" font-family="sans" font-size="10.00" fill="#000000">rename_MAGs</text>
</g>
<!-- 12&#45;&gt;11 -->
<g id="edge14" class="edge">
<title>12&#45;&gt;11</title>
<path fill="none" stroke="#c0c0c0" stroke-width="2" d="M212,-359.8314C212,-352.131 212,-342.9743 212,-334.4166"/>
<polygon fill="#c0c0c0" stroke="#c0c0c0" stroke-width="2" points="215.5001,-334.4132 212,-324.4133 208.5001,-334.4133 215.5001,-334.4132"/>
</g>
<!-- 13 -->
<g id="node14" class="node">
<title>13</title>
<path fill="none" stroke="#56c1d8" stroke-width="2" d="M227,-468C227,-468 197,-468 197,-468 191,-468 185,-462 185,-456 185,-456 185,-444 185,-444 185,-438 191,-432 197,-432 197,-432 227,-432 227,-432 233,-432 239,-438 239,-444 239,-444 239,-456 239,-456 239,-462 233,-468 227,-468"/>
<text text-anchor="middle" x="212" y="-447.5" font-family="sans" font-size="10.00" fill="#000000">refine</text>
</g>
<!-- 13&#45;&gt;12 -->
<g id="edge15" class="edge">
<title>13&#45;&gt;12</title>
<path fill="none" stroke="#c0c0c0" stroke-width="2" d="M212,-431.8314C212,-424.131 212,-414.9743 212,-406.4166"/>
<polygon fill="#c0c0c0" stroke="#c0c0c0" stroke-width="2" points="215.5001,-406.4132 212,-396.4133 208.5001,-406.4133 215.5001,-406.4132"/>
</g>
<!-- 14 -->
<g id="node15" class="node">
<title>14</title>
<path fill="none" stroke="#d85656" stroke-width="2" stroke-dasharray="5,2" d="M227,-540C227,-540 197,-540 197,-540 191,-540 185,-534 185,-528 185,-528 185,-516 185,-516 185,-510 191,-504 197,-504 197,-504 227,-504 227,-504 233,-504 239,-510 239,-516 239,-516 239,-528 239,-528 239,-534 233,-540 227,-540"/>
<text text-anchor="middle" x="212" y="-519.5" font-family="sans" font-size="10.00" fill="#000000">bin</text>
</g>
<!-- 14&#45;&gt;13 -->
<g id="edge16" class="edge">
<title>14&#45;&gt;13</title>
<path fill="none" stroke="#c0c0c0" stroke-width="2" d="M212,-503.8314C212,-496.131 212,-486.9743 212,-478.4166"/>
<polygon fill="#c0c0c0" stroke="#c0c0c0" stroke-width="2" points="215.5001,-478.4132 212,-468.4133 208.5001,-478.4133 215.5001,-478.4132"/>
</g>
<!-- 15 -->
<g id="node16" class="node">
<title>15</title>
<path fill="none" stroke="#56d8c1" stroke-width="2" stroke-dasharray="5,2" d="M237.5,-612C237.5,-612 186.5,-612 186.5,-612 180.5,-612 174.5,-606 174.5,-600 174.5,-600 174.5,-588 174.5,-588 174.5,-582 180.5,-576 186.5,-576 186.5,-576 237.5,-576 237.5,-576 243.5,-576 249.5,-582 249.5,-588 249.5,-588 249.5,-600 249.5,-600 249.5,-606 243.5,-612 237.5,-612"/>
<text text-anchor="middle" x="212" y="-591.5" font-family="sans" font-size="10.00" fill="#000000">unzip_reads</text>
</g>
<!-- 15&#45;&gt;14 -->
<g id="edge17" class="edge">
<title>15&#45;&gt;14</title>
<path fill="none" stroke="#c0c0c0" stroke-width="2" d="M212,-575.8314C212,-568.131 212,-558.9743 212,-550.4166"/>
<polygon fill="#c0c0c0" stroke="#c0c0c0" stroke-width="2" points="215.5001,-550.4132 212,-540.4133 208.5001,-550.4133 215.5001,-550.4132"/>
</g>
<!-- 16 -->
<g id="node17" class="node">
<title>16</title>
<path fill="none" stroke="#88d856" stroke-width="2" stroke-dasharray="5,2" d="M260,-684C260,-684 164,-684 164,-684 158,-684 152,-678 152,-672 152,-672 152,-660 152,-660 152,-654 158,-648 164,-648 164,-648 260,-648 260,-648 266,-648 272,-654 272,-660 272,-660 272,-672 272,-672 272,-678 266,-684 260,-684"/>
<text text-anchor="middle" x="212" y="-669" font-family="sans" font-size="10.00" fill="#000000">assemble_reads</text>
<text text-anchor="middle" x="212" y="-658" font-family="sans" font-size="10.00" fill="#000000">sample: SRR9162908</text>
</g>
<!-- 16&#45;&gt;15 -->
<g id="edge18" class="edge">
<title>16&#45;&gt;15</title>
<path fill="none" stroke="#c0c0c0" stroke-width="2" d="M212,-647.8314C212,-640.131 212,-630.9743 212,-622.4166"/>
<polygon fill="#c0c0c0" stroke="#c0c0c0" stroke-width="2" points="215.5001,-622.4132 212,-612.4133 208.5001,-622.4133 215.5001,-622.4132"/>
</g>
<!-- 17 -->
<g id="node18" class="node">
<title>17</title>
<path fill="none" stroke="#56d88a" stroke-width="2" d="M316,-180C316,-180 230,-180 230,-180 224,-180 218,-174 218,-168 218,-168 218,-156 218,-156 218,-150 224,-144 230,-144 230,-144 316,-144 316,-144 322,-144 328,-150 328,-156 328,-156 328,-168 328,-168 328,-174 322,-180 316,-180"/>
<text text-anchor="middle" x="273" y="-159.5" font-family="sans" font-size="10.00" fill="#000000">select_quality_bins</text>
</g>
<!-- 17&#45;&gt;10 -->
<g id="edge13" class="edge">
<title>17&#45;&gt;10</title>
<path fill="none" stroke="#c0c0c0" stroke-width="2" d="M254.3267,-143.8314C245.4751,-135.219 234.7514,-124.7851 225.1105,-115.4048"/>
<polygon fill="#c0c0c0" stroke="#c0c0c0" stroke-width="2" points="227.2754,-112.6279 217.6674,-108.1628 222.3939,-117.645 227.2754,-112.6279"/>
</g>
<!-- 18&#45;&gt;17 -->
<g id="edge19" class="edge">
<title>18&#45;&gt;17</title>
<path fill="none" stroke="#c0c0c0" stroke-width="2" d="M267.7664,-215.8314C268.515,-208.131 269.4053,-198.9743 270.2373,-190.4166"/>
<polygon fill="#c0c0c0" stroke="#c0c0c0" stroke-width="2" points="273.7256,-190.7051 271.2098,-180.4133 266.7585,-190.0276 273.7256,-190.7051"/>
</g>
</g>
</svg>
