<?xml version="1.0" encoding="UTF-8" standalone="no"?>
<!DOCTYPE svg PUBLIC "-//W3C//DTD SVG 1.1//EN"
 "http://www.w3.org/Graphics/SVG/1.1/DTD/svg11.dtd">
<!-- Generated by graphviz version 2.40.1 (20161225.0304)
 -->
<!-- Title: snakemake_dag Pages: 1 -->
<svg width="398pt" height="764pt"
 viewBox="0.00 0.00 397.50 764.00" xmlns="http://www.w3.org/2000/svg" xmlns:xlink="http://www.w3.org/1999/xlink">
<g id="graph0" class="graph" transform="scale(1 1) rotate(0) translate(4 760)">
<title>snakemake_dag</title>
<polygon fill="#ffffff" stroke="transparent" points="-4,4 -4,-760 393.5,-760 393.5,4 -4,4"/>
<!-- 0 -->
<g id="node1" class="node">
<title>0</title>
<path fill="none" stroke="#ced856" stroke-width="2" d="M213.5,-36C213.5,-36 183.5,-36 183.5,-36 177.5,-36 171.5,-30 171.5,-24 171.5,-24 171.5,-12 171.5,-12 171.5,-6 177.5,0 183.5,0 183.5,0 213.5,0 213.5,0 219.5,0 225.5,-6 225.5,-12 225.5,-12 225.5,-24 225.5,-24 225.5,-30 219.5,-36 213.5,-36"/>
<text text-anchor="middle" x="198.5" y="-15.5" font-family="sans" font-size="10.00" fill="#000000">all</text>
</g>
<!-- 1 -->
<g id="node2" class="node">
<title>1</title>
<path fill="none" stroke="#5682d8" stroke-width="2" d="M178,-108C178,-108 99,-108 99,-108 93,-108 87,-102 87,-96 87,-96 87,-84 87,-84 87,-78 93,-72 99,-72 99,-72 178,-72 178,-72 184,-72 190,-78 190,-84 190,-84 190,-96 190,-96 190,-102 184,-108 178,-108"/>
<text text-anchor="middle" x="138.5" y="-87.5" font-family="sans" font-size="10.00" fill="#000000">assign_taxonomy</text>
</g>
<!-- 1&#45;&gt;0 -->
<g id="edge1" class="edge">
<title>1&#45;&gt;0</title>
<path fill="none" stroke="#c0c0c0" stroke-width="2" d="M153.6405,-71.8314C160.6217,-63.454 169.0391,-53.3531 176.6876,-44.1749"/>
<polygon fill="#c0c0c0" stroke="#c0c0c0" stroke-width="2" points="179.4425,-46.3362 183.1556,-36.4133 174.0649,-41.8548 179.4425,-46.3362"/>
</g>
<!-- 2 -->
<g id="node3" class="node">
<title>2</title>
<path fill="none" stroke="#56d86b" stroke-width="2" d="M107,-180C107,-180 12,-180 12,-180 6,-180 0,-174 0,-168 0,-168 0,-156 0,-156 0,-150 6,-144 12,-144 12,-144 107,-144 107,-144 113,-144 119,-150 119,-156 119,-156 119,-168 119,-168 119,-174 113,-180 107,-180"/>
<text text-anchor="middle" x="59.5" y="-159.5" font-family="sans" font-size="10.00" fill="#000000">copy_final_bins_over</text>
</g>
<!-- 2&#45;&gt;1 -->
<g id="edge3" class="edge">
<title>2&#45;&gt;1</title>
<path fill="none" stroke="#c0c0c0" stroke-width="2" d="M79.435,-143.8314C88.9783,-135.1337 100.5599,-124.5783 110.9306,-115.1265"/>
<polygon fill="#c0c0c0" stroke="#c0c0c0" stroke-width="2" points="113.538,-117.4857 118.5713,-108.1628 108.8228,-112.3121 113.538,-117.4857"/>
</g>
<!-- 3 -->
<g id="node4" class="node">
<title>3</title>
<path fill="none" stroke="#70d856" stroke-width="2" d="M139,-396C139,-396 92,-396 92,-396 86,-396 80,-390 80,-384 80,-384 80,-372 80,-372 80,-366 86,-360 92,-360 92,-360 139,-360 139,-360 145,-360 151,-366 151,-372 151,-372 151,-384 151,-384 151,-390 145,-396 139,-396"/>
<text text-anchor="middle" x="115.5" y="-375.5" font-family="sans" font-size="10.00" fill="#000000">dereplicate</text>
</g>
<!-- 3&#45;&gt;2 -->
<g id="edge5" class="edge">
<title>3&#45;&gt;2</title>
<path fill="none" stroke="#c0c0c0" stroke-width="2" d="M103.2655,-359.7587C97.023,-349.6296 89.8485,-336.5675 85.5,-324 69.9349,-279.0158 63.6118,-223.7305 61.0974,-190.7609"/>
<polygon fill="#c0c0c0" stroke="#c0c0c0" stroke-width="2" points="64.568,-190.2157 60.3828,-180.4825 57.5849,-190.7012 64.568,-190.2157"/>
</g>
<!-- 10 -->
<g id="node11" class="node">
<title>10</title>
<path fill="none" stroke="#d85656" stroke-width="2" d="M166.5,-324C166.5,-324 106.5,-324 106.5,-324 100.5,-324 94.5,-318 94.5,-312 94.5,-312 94.5,-300 94.5,-300 94.5,-294 100.5,-288 106.5,-288 106.5,-288 166.5,-288 166.5,-288 172.5,-288 178.5,-294 178.5,-300 178.5,-300 178.5,-312 178.5,-312 178.5,-318 172.5,-324 166.5,-324"/>
<text text-anchor="middle" x="136.5" y="-303.5" font-family="sans" font-size="10.00" fill="#000000">quality_check</text>
</g>
<!-- 3&#45;&gt;10 -->
<g id="edge13" class="edge">
<title>3&#45;&gt;10</title>
<path fill="none" stroke="#c0c0c0" stroke-width="2" d="M120.7992,-359.8314C123.0698,-352.0463 125.7746,-342.7729 128.294,-334.1347"/>
<polygon fill="#c0c0c0" stroke="#c0c0c0" stroke-width="2" points="131.6894,-334.9933 131.1295,-324.4133 124.9694,-333.0332 131.6894,-334.9933"/>
</g>
<!-- 4 -->
<g id="node5" class="node">
<title>4</title>
<path fill="none" stroke="#56b1d8" stroke-width="2" d="M147,-468C147,-468 84,-468 84,-468 78,-468 72,-462 72,-456 72,-456 72,-444 72,-444 72,-438 78,-432 84,-432 84,-432 147,-432 147,-432 153,-432 159,-438 159,-444 159,-444 159,-456 159,-456 159,-462 153,-468 147,-468"/>
<text text-anchor="middle" x="115.5" y="-447.5" font-family="sans" font-size="10.00" fill="#000000">rename_MAGs</text>
</g>
<!-- 4&#45;&gt;3 -->
<g id="edge7" class="edge">
<title>4&#45;&gt;3</title>
<path fill="none" stroke="#c0c0c0" stroke-width="2" d="M115.5,-431.8314C115.5,-424.131 115.5,-414.9743 115.5,-406.4166"/>
<polygon fill="#c0c0c0" stroke="#c0c0c0" stroke-width="2" points="119.0001,-406.4132 115.5,-396.4133 112.0001,-406.4133 119.0001,-406.4132"/>
</g>
<!-- 5 -->
<g id="node6" class="node">
<title>5</title>
<path fill="none" stroke="#9fd856" stroke-width="2" d="M130.5,-540C130.5,-540 100.5,-540 100.5,-540 94.5,-540 88.5,-534 88.5,-528 88.5,-528 88.5,-516 88.5,-516 88.5,-510 94.5,-504 100.5,-504 100.5,-504 130.5,-504 130.5,-504 136.5,-504 142.5,-510 142.5,-516 142.5,-516 142.5,-528 142.5,-528 142.5,-534 136.5,-540 130.5,-540"/>
<text text-anchor="middle" x="115.5" y="-519.5" font-family="sans" font-size="10.00" fill="#000000">refine</text>
</g>
<!-- 5&#45;&gt;4 -->
<g id="edge8" class="edge">
<title>5&#45;&gt;4</title>
<path fill="none" stroke="#c0c0c0" stroke-width="2" d="M115.5,-503.8314C115.5,-496.131 115.5,-486.9743 115.5,-478.4166"/>
<polygon fill="#c0c0c0" stroke="#c0c0c0" stroke-width="2" points="119.0001,-478.4132 115.5,-468.4133 112.0001,-478.4133 119.0001,-478.4132"/>
</g>
<!-- 6 -->
<g id="node7" class="node">
<title>6</title>
<path fill="none" stroke="#d8b456" stroke-width="2" stroke-dasharray="5,2" d="M130.5,-612C130.5,-612 100.5,-612 100.5,-612 94.5,-612 88.5,-606 88.5,-600 88.5,-600 88.5,-588 88.5,-588 88.5,-582 94.5,-576 100.5,-576 100.5,-576 130.5,-576 130.5,-576 136.5,-576 142.5,-582 142.5,-588 142.5,-588 142.5,-600 142.5,-600 142.5,-606 136.5,-612 130.5,-612"/>
<text text-anchor="middle" x="115.5" y="-591.5" font-family="sans" font-size="10.00" fill="#000000">bin</text>
</g>
<!-- 6&#45;&gt;5 -->
<g id="edge9" class="edge">
<title>6&#45;&gt;5</title>
<path fill="none" stroke="#c0c0c0" stroke-width="2" d="M115.5,-575.8314C115.5,-568.131 115.5,-558.9743 115.5,-550.4166"/>
<polygon fill="#c0c0c0" stroke="#c0c0c0" stroke-width="2" points="119.0001,-550.4132 115.5,-540.4133 112.0001,-550.4133 119.0001,-550.4132"/>
</g>
<!-- 7 -->
<g id="node8" class="node">
<title>7</title>
<path fill="none" stroke="#d88556" stroke-width="2" stroke-dasharray="5,2" d="M141,-684C141,-684 90,-684 90,-684 84,-684 78,-678 78,-672 78,-672 78,-660 78,-660 78,-654 84,-648 90,-648 90,-648 141,-648 141,-648 147,-648 153,-654 153,-660 153,-660 153,-672 153,-672 153,-678 147,-684 141,-684"/>
<text text-anchor="middle" x="115.5" y="-663.5" font-family="sans" font-size="10.00" fill="#000000">unzip_reads</text>
</g>
<!-- 7&#45;&gt;6 -->
<g id="edge10" class="edge">
<title>7&#45;&gt;6</title>
<path fill="none" stroke="#c0c0c0" stroke-width="2" d="M115.5,-647.8314C115.5,-640.131 115.5,-630.9743 115.5,-622.4166"/>
<polygon fill="#c0c0c0" stroke="#c0c0c0" stroke-width="2" points="119.0001,-622.4132 115.5,-612.4133 112.0001,-622.4133 119.0001,-622.4132"/>
</g>
<!-- 8 -->
<g id="node9" class="node">
<title>8</title>
<path fill="none" stroke="#56d89a" stroke-width="2" stroke-dasharray="5,2" d="M163.5,-756C163.5,-756 67.5,-756 67.5,-756 61.5,-756 55.5,-750 55.5,-744 55.5,-744 55.5,-732 55.5,-732 55.5,-726 61.5,-720 67.5,-720 67.5,-720 163.5,-720 163.5,-720 169.5,-720 175.5,-726 175.5,-732 175.5,-732 175.5,-744 175.5,-744 175.5,-750 169.5,-756 163.5,-756"/>
<text text-anchor="middle" x="115.5" y="-741" font-family="sans" font-size="10.00" fill="#000000">assemble_reads</text>
<text text-anchor="middle" x="115.5" y="-730" font-family="sans" font-size="10.00" fill="#000000">sample: SRR9162907</text>
</g>
<!-- 8&#45;&gt;7 -->
<g id="edge11" class="edge">
<title>8&#45;&gt;7</title>
<path fill="none" stroke="#c0c0c0" stroke-width="2" d="M115.5,-719.8314C115.5,-712.131 115.5,-702.9743 115.5,-694.4166"/>
<polygon fill="#c0c0c0" stroke="#c0c0c0" stroke-width="2" points="119.0001,-694.4132 115.5,-684.4133 112.0001,-694.4133 119.0001,-694.4132"/>
</g>
<!-- 9 -->
<g id="node10" class="node">
<title>9</title>
<path fill="none" stroke="#56d8c9" stroke-width="2" d="M185.5,-252C185.5,-252 99.5,-252 99.5,-252 93.5,-252 87.5,-246 87.5,-240 87.5,-240 87.5,-228 87.5,-228 87.5,-222 93.5,-216 99.5,-216 99.5,-216 185.5,-216 185.5,-216 191.5,-216 197.5,-222 197.5,-228 197.5,-228 197.5,-240 197.5,-240 197.5,-246 191.5,-252 185.5,-252"/>
<text text-anchor="middle" x="142.5" y="-231.5" font-family="sans" font-size="10.00" fill="#000000">select_quality_bins</text>
</g>
<!-- 9&#45;&gt;1 -->
<g id="edge4" class="edge">
<title>9&#45;&gt;1</title>
<path fill="none" stroke="#c0c0c0" stroke-width="2" d="M141.9934,-215.7623C141.3111,-191.201 140.0902,-147.2474 139.2876,-118.3541"/>
<polygon fill="#c0c0c0" stroke="#c0c0c0" stroke-width="2" points="142.7789,-117.9885 139.0025,-108.0896 135.7816,-118.183 142.7789,-117.9885"/>
</g>
<!-- 9&#45;&gt;2 -->
<g id="edge6" class="edge">
<title>9&#45;&gt;2</title>
<path fill="none" stroke="#c0c0c0" stroke-width="2" d="M121.5556,-215.8314C111.4309,-207.0485 99.1223,-196.3712 88.1452,-186.8489"/>
<polygon fill="#c0c0c0" stroke="#c0c0c0" stroke-width="2" points="90.2851,-184.0718 80.4377,-180.1628 85.6981,-189.3595 90.2851,-184.0718"/>
</g>
<!-- 10&#45;&gt;9 -->
<g id="edge12" class="edge">
<title>10&#45;&gt;9</title>
<path fill="none" stroke="#c0c0c0" stroke-width="2" d="M138.0141,-287.8314C138.6558,-280.131 139.4188,-270.9743 140.1319,-262.4166"/>
<polygon fill="#c0c0c0" stroke="#c0c0c0" stroke-width="2" points="143.6229,-262.6694 140.9656,-252.4133 136.6471,-262.088 143.6229,-262.6694"/>
</g>
<!-- 11 -->
<g id="node12" class="node">
<title>11</title>
<path fill="none" stroke="#5682d8" stroke-width="2" d="M299,-108C299,-108 220,-108 220,-108 214,-108 208,-102 208,-96 208,-96 208,-84 208,-84 208,-78 214,-72 220,-72 220,-72 299,-72 299,-72 305,-72 311,-78 311,-84 311,-84 311,-96 311,-96 311,-102 305,-108 299,-108"/>
<text text-anchor="middle" x="259.5" y="-87.5" font-family="sans" font-size="10.00" fill="#000000">assign_taxonomy</text>
</g>
<!-- 11&#45;&gt;0 -->
<g id="edge2" class="edge">
<title>11&#45;&gt;0</title>
<path fill="none" stroke="#c0c0c0" stroke-width="2" d="M244.1071,-71.8314C237.0096,-63.454 228.452,-53.3531 220.676,-44.1749"/>
<polygon fill="#c0c0c0" stroke="#c0c0c0" stroke-width="2" points="223.2348,-41.7807 214.1001,-36.4133 217.8939,-46.3056 223.2348,-41.7807"/>
</g>
<!-- 12 -->
<g id="node13" class="node">
<title>12</title>
<path fill="none" stroke="#56d86b" stroke-width="2" d="M299,-180C299,-180 204,-180 204,-180 198,-180 192,-174 192,-168 192,-168 192,-156 192,-156 192,-150 198,-144 204,-144 204,-144 299,-144 299,-144 305,-144 311,-150 311,-156 311,-156 311,-168 311,-168 311,-174 305,-180 299,-180"/>
<text text-anchor="middle" x="251.5" y="-159.5" font-family="sans" font-size="10.00" fill="#000000">copy_final_bins_over</text>
</g>
<!-- 12&#45;&gt;11 -->
<g id="edge14" class="edge">
<title>12&#45;&gt;11</title>
<path fill="none" stroke="#c0c0c0" stroke-width="2" d="M253.5187,-143.8314C254.3743,-136.131 255.3917,-126.9743 256.3426,-118.4166"/>
<polygon fill="#c0c0c0" stroke="#c0c0c0" stroke-width="2" points="259.8283,-118.7386 257.4541,-108.4133 252.8711,-117.9656 259.8283,-118.7386"/>
</g>
<!-- 13 -->
<g id="node14" class="node">
<title>13</title>
<path fill="none" stroke="#70d856" stroke-width="2" d="M296,-396C296,-396 249,-396 249,-396 243,-396 237,-390 237,-384 237,-384 237,-372 237,-372 237,-366 243,-360 249,-360 249,-360 296,-360 296,-360 302,-360 308,-366 308,-372 308,-372 308,-384 308,-384 308,-390 302,-396 296,-396"/>
<text text-anchor="middle" x="272.5" y="-375.5" font-family="sans" font-size="10.00" fill="#000000">dereplicate</text>
</g>
<!-- 13&#45;&gt;12 -->
<g id="edge16" class="edge">
<title>13&#45;&gt;12</title>
<path fill="none" stroke="#c0c0c0" stroke-width="2" d="M270.7457,-359.9555C267.0861,-322.3144 258.6154,-235.1867 254.2343,-190.1246"/>
<polygon fill="#c0c0c0" stroke="#c0c0c0" stroke-width="2" points="257.7154,-189.7594 253.2641,-180.1451 250.7483,-190.4369 257.7154,-189.7594"/>
</g>
<!-- 20 -->
<g id="node21" class="node">
<title>20</title>
<path fill="none" stroke="#d85656" stroke-width="2" d="M357.5,-324C357.5,-324 297.5,-324 297.5,-324 291.5,-324 285.5,-318 285.5,-312 285.5,-312 285.5,-300 285.5,-300 285.5,-294 291.5,-288 297.5,-288 297.5,-288 357.5,-288 357.5,-288 363.5,-288 369.5,-294 369.5,-300 369.5,-300 369.5,-312 369.5,-312 369.5,-318 363.5,-324 357.5,-324"/>
<text text-anchor="middle" x="327.5" y="-303.5" font-family="sans" font-size="10.00" fill="#000000">quality_check</text>
</g>
<!-- 13&#45;&gt;20 -->
<g id="edge24" class="edge">
<title>13&#45;&gt;20</title>
<path fill="none" stroke="#c0c0c0" stroke-width="2" d="M286.3788,-359.8314C292.7136,-351.5386 300.3384,-341.557 307.2926,-332.4533"/>
<polygon fill="#c0c0c0" stroke="#c0c0c0" stroke-width="2" points="310.1452,-334.4847 313.4343,-324.4133 304.5825,-330.2353 310.1452,-334.4847"/>
</g>
<!-- 14 -->
<g id="node15" class="node">
<title>14</title>
<path fill="none" stroke="#56b1d8" stroke-width="2" d="M304,-468C304,-468 241,-468 241,-468 235,-468 229,-462 229,-456 229,-456 229,-444 229,-444 229,-438 235,-432 241,-432 241,-432 304,-432 304,-432 310,-432 316,-438 316,-444 316,-444 316,-456 316,-456 316,-462 310,-468 304,-468"/>
<text text-anchor="middle" x="272.5" y="-447.5" font-family="sans" font-size="10.00" fill="#000000">rename_MAGs</text>
</g>
<!-- 14&#45;&gt;13 -->
<g id="edge18" class="edge">
<title>14&#45;&gt;13</title>
<path fill="none" stroke="#c0c0c0" stroke-width="2" d="M272.5,-431.8314C272.5,-424.131 272.5,-414.9743 272.5,-406.4166"/>
<polygon fill="#c0c0c0" stroke="#c0c0c0" stroke-width="2" points="276.0001,-406.4132 272.5,-396.4133 269.0001,-406.4133 276.0001,-406.4132"/>
</g>
<!-- 15 -->
<g id="node16" class="node">
<title>15</title>
<path fill="none" stroke="#9fd856" stroke-width="2" d="M287.5,-540C287.5,-540 257.5,-540 257.5,-540 251.5,-540 245.5,-534 245.5,-528 245.5,-528 245.5,-516 245.5,-516 245.5,-510 251.5,-504 257.5,-504 257.5,-504 287.5,-504 287.5,-504 293.5,-504 299.5,-510 299.5,-516 299.5,-516 299.5,-528 299.5,-528 299.5,-534 293.5,-540 287.5,-540"/>
<text text-anchor="middle" x="272.5" y="-519.5" font-family="sans" font-size="10.00" fill="#000000">refine</text>
</g>
<!-- 15&#45;&gt;14 -->
<g id="edge19" class="edge">
<title>15&#45;&gt;14</title>
<path fill="none" stroke="#c0c0c0" stroke-width="2" d="M272.5,-503.8314C272.5,-496.131 272.5,-486.9743 272.5,-478.4166"/>
<polygon fill="#c0c0c0" stroke="#c0c0c0" stroke-width="2" points="276.0001,-478.4132 272.5,-468.4133 269.0001,-478.4133 276.0001,-478.4132"/>
</g>
<!-- 16 -->
<g id="node17" class="node">
<title>16</title>
<path fill="none" stroke="#d8b456" stroke-width="2" stroke-dasharray="5,2" d="M287.5,-612C287.5,-612 257.5,-612 257.5,-612 251.5,-612 245.5,-606 245.5,-600 245.5,-600 245.5,-588 245.5,-588 245.5,-582 251.5,-576 257.5,-576 257.5,-576 287.5,-576 287.5,-576 293.5,-576 299.5,-582 299.5,-588 299.5,-588 299.5,-600 299.5,-600 299.5,-606 293.5,-612 287.5,-612"/>
<text text-anchor="middle" x="272.5" y="-591.5" font-family="sans" font-size="10.00" fill="#000000">bin</text>
</g>
<!-- 16&#45;&gt;15 -->
<g id="edge20" class="edge">
<title>16&#45;&gt;15</title>
<path fill="none" stroke="#c0c0c0" stroke-width="2" d="M272.5,-575.8314C272.5,-568.131 272.5,-558.9743 272.5,-550.4166"/>
<polygon fill="#c0c0c0" stroke="#c0c0c0" stroke-width="2" points="276.0001,-550.4132 272.5,-540.4133 269.0001,-550.4133 276.0001,-550.4132"/>
</g>
<!-- 17 -->
<g id="node18" class="node">
<title>17</title>
<path fill="none" stroke="#d88556" stroke-width="2" stroke-dasharray="5,2" d="M298,-684C298,-684 247,-684 247,-684 241,-684 235,-678 235,-672 235,-672 235,-660 235,-660 235,-654 241,-648 247,-648 247,-648 298,-648 298,-648 304,-648 310,-654 310,-660 310,-660 310,-672 310,-672 310,-678 304,-684 298,-684"/>
<text text-anchor="middle" x="272.5" y="-663.5" font-family="sans" font-size="10.00" fill="#000000">unzip_reads</text>
</g>
<!-- 17&#45;&gt;16 -->
<g id="edge21" class="edge">
<title>17&#45;&gt;16</title>
<path fill="none" stroke="#c0c0c0" stroke-width="2" d="M272.5,-647.8314C272.5,-640.131 272.5,-630.9743 272.5,-622.4166"/>
<polygon fill="#c0c0c0" stroke="#c0c0c0" stroke-width="2" points="276.0001,-622.4132 272.5,-612.4133 269.0001,-622.4133 276.0001,-622.4132"/>
</g>
<!-- 18 -->
<g id="node19" class="node">
<title>18</title>
<path fill="none" stroke="#56d89a" stroke-width="2" stroke-dasharray="5,2" d="M320.5,-756C320.5,-756 224.5,-756 224.5,-756 218.5,-756 212.5,-750 212.5,-744 212.5,-744 212.5,-732 212.5,-732 212.5,-726 218.5,-720 224.5,-720 224.5,-720 320.5,-720 320.5,-720 326.5,-720 332.5,-726 332.5,-732 332.5,-732 332.5,-744 332.5,-744 332.5,-750 326.5,-756 320.5,-756"/>
<text text-anchor="middle" x="272.5" y="-741" font-family="sans" font-size="10.00" fill="#000000">assemble_reads</text>
<text text-anchor="middle" x="272.5" y="-730" font-family="sans" font-size="10.00" fill="#000000">sample: SRR9162908</text>
</g>
<!-- 18&#45;&gt;17 -->
<g id="edge22" class="edge">
<title>18&#45;&gt;17</title>
<path fill="none" stroke="#c0c0c0" stroke-width="2" d="M272.5,-719.8314C272.5,-712.131 272.5,-702.9743 272.5,-694.4166"/>
<polygon fill="#c0c0c0" stroke="#c0c0c0" stroke-width="2" points="276.0001,-694.4132 272.5,-684.4133 269.0001,-694.4133 276.0001,-694.4132"/>
</g>
<!-- 19 -->
<g id="node20" class="node">
<title>19</title>
<path fill="none" stroke="#56d8c9" stroke-width="2" d="M377.5,-252C377.5,-252 291.5,-252 291.5,-252 285.5,-252 279.5,-246 279.5,-240 279.5,-240 279.5,-228 279.5,-228 279.5,-222 285.5,-216 291.5,-216 291.5,-216 377.5,-216 377.5,-216 383.5,-216 389.5,-222 389.5,-228 389.5,-228 389.5,-240 389.5,-240 389.5,-246 383.5,-252 377.5,-252"/>
<text text-anchor="middle" x="334.5" y="-231.5" font-family="sans" font-size="10.00" fill="#000000">select_quality_bins</text>
</g>
<!-- 19&#45;&gt;11 -->
<g id="edge15" class="edge">
<title>19&#45;&gt;11</title>
<path fill="none" stroke="#c0c0c0" stroke-width="2" d="M335.1943,-215.9514C335.1582,-196.9193 332.863,-166.6166 320.5,-144 314.405,-132.8499 305.0749,-122.8751 295.5311,-114.6239"/>
<polygon fill="#c0c0c0" stroke="#c0c0c0" stroke-width="2" points="297.4951,-111.7096 287.5304,-108.1104 293.0757,-117.1382 297.4951,-111.7096"/>
</g>
<!-- 19&#45;&gt;12 -->
<g id="edge17" class="edge">
<title>19&#45;&gt;12</title>
<path fill="none" stroke="#c0c0c0" stroke-width="2" d="M313.5556,-215.8314C303.4309,-207.0485 291.1223,-196.3712 280.1452,-186.8489"/>
<polygon fill="#c0c0c0" stroke="#c0c0c0" stroke-width="2" points="282.2851,-184.0718 272.4377,-180.1628 277.6981,-189.3595 282.2851,-184.0718"/>
</g>
<!-- 20&#45;&gt;19 -->
<g id="edge23" class="edge">
<title>20&#45;&gt;19</title>
<path fill="none" stroke="#c0c0c0" stroke-width="2" d="M329.2664,-287.8314C330.015,-280.131 330.9053,-270.9743 331.7373,-262.4166"/>
<polygon fill="#c0c0c0" stroke="#c0c0c0" stroke-width="2" points="335.2256,-262.7051 332.7098,-252.4133 328.2585,-262.0276 335.2256,-262.7051"/>
</g>
</g>
</svg>
