<?xml version="1.0" encoding="UTF-8" standalone="no"?>
<!DOCTYPE svg PUBLIC "-//W3C//DTD SVG 1.1//EN"
 "http://www.w3.org/Graphics/SVG/1.1/DTD/svg11.dtd">
<!-- Generated by graphviz version 2.40.1 (20161225.0304)
 -->
<!-- Title: snakemake_dag Pages: 1 -->
<svg width="398pt" height="764pt"
 viewBox="0.00 0.00 397.50 764.00" xmlns="http://www.w3.org/2000/svg" xmlns:xlink="http://www.w3.org/1999/xlink">
<g id="graph0" class="graph" transform="scale(1 1) rotate(0) translate(4 760)">
<title>snakemake_dag</title>
<polygon fill="#ffffff" stroke="transparent" points="-4,4 -4,-760 393.5,-760 393.5,4 -4,4"/>
<!-- 0 -->
<g id="node1" class="node">
<title>0</title>
<path fill="none" stroke="#d8b456" stroke-width="2" d="M213.5,-36C213.5,-36 183.5,-36 183.5,-36 177.5,-36 171.5,-30 171.5,-24 171.5,-24 171.5,-12 171.5,-12 171.5,-6 177.5,0 183.5,0 183.5,0 213.5,0 213.5,0 219.5,0 225.5,-6 225.5,-12 225.5,-12 225.5,-24 225.5,-24 225.5,-30 219.5,-36 213.5,-36"/>
<text text-anchor="middle" x="198.5" y="-15.5" font-family="sans" font-size="10.00" fill="#000000">all</text>
</g>
<!-- 1 -->
<g id="node2" class="node">
<title>1</title>
<path fill="none" stroke="#56d86b" stroke-width="2" d="M178,-108C178,-108 99,-108 99,-108 93,-108 87,-102 87,-96 87,-96 87,-84 87,-84 87,-78 93,-72 99,-72 99,-72 178,-72 178,-72 184,-72 190,-78 190,-84 190,-84 190,-96 190,-96 190,-102 184,-108 178,-108"/>
<text text-anchor="middle" x="138.5" y="-87.5" font-family="sans" font-size="10.00" fill="#000000">assign_taxonomy</text>
</g>
<!-- 1&#45;&gt;0 -->
<g id="edge1" class="edge">
<title>1&#45;&gt;0</title>
<path fill="none" stroke="#c0c0c0" stroke-width="2" d="M153.6405,-71.8314C160.6217,-63.454 169.0391,-53.3531 176.6876,-44.1749"/>
<polygon fill="#c0c0c0" stroke="#c0c0c0" stroke-width="2" points="179.4425,-46.3362 183.1556,-36.4133 174.0649,-41.8548 179.4425,-46.3362"/>
</g>
<!-- 2 -->
<g id="node3" class="node">
<title>2</title>
<path fill="none" stroke="#d85656" stroke-width="2" d="M107,-180C107,-180 12,-180 12,-180 6,-180 0,-174 0,-168 0,-168 0,-156 0,-156 0,-150 6,-144 12,-144 12,-144 107,-144 107,-144 113,-144 119,-150 119,-156 119,-156 119,-168 119,-168 119,-174 113,-180 107,-180"/>
<text text-anchor="middle" x="59.5" y="-159.5" font-family="sans" font-size="10.00" fill="#000000">copy_final_bins_over</text>
</g>
<!-- 2&#45;&gt;1 -->
<g id="edge3" class="edge">
<title>2&#45;&gt;1</title>
<path fill="none" stroke="#c0c0c0" stroke-width="2" d="M79.435,-143.8314C88.9783,-135.1337 100.5599,-124.5783 110.9306,-115.1265"/>
<polygon fill="#c0c0c0" stroke="#c0c0c0" stroke-width="2" points="113.538,-117.4857 118.5713,-108.1628 108.8228,-112.3121 113.538,-117.4857"/>
</g>
<!-- 3 -->
<g id="node4" class="node">
<title>3</title>
<path fill="none" stroke="#56d8c9" stroke-width="2" d="M115,-324C115,-324 68,-324 68,-324 62,-324 56,-318 56,-312 56,-312 56,-300 56,-300 56,-294 62,-288 68,-288 68,-288 115,-288 115,-288 121,-288 127,-294 127,-300 127,-300 127,-312 127,-312 127,-318 121,-324 115,-324"/>
<text text-anchor="middle" x="91.5" y="-303.5" font-family="sans" font-size="10.00" fill="#000000">dereplicate</text>
</g>
<!-- 3&#45;&gt;2 -->
<g id="edge5" class="edge">
<title>3&#45;&gt;2</title>
<path fill="none" stroke="#c0c0c0" stroke-width="2" d="M86.9186,-287.5357C84.368,-277.118 81.177,-263.8514 78.5,-252 73.8671,-231.4895 68.9736,-208.2685 65.3132,-190.5512"/>
<polygon fill="#c0c0c0" stroke="#c0c0c0" stroke-width="2" points="68.6487,-189.3948 63.2067,-180.3044 61.7921,-190.8044 68.6487,-189.3948"/>
</g>
<!-- 10 -->
<g id="node11" class="node">
<title>10</title>
<path fill="none" stroke="#56b1d8" stroke-width="2" d="M185.5,-252C185.5,-252 99.5,-252 99.5,-252 93.5,-252 87.5,-246 87.5,-240 87.5,-240 87.5,-228 87.5,-228 87.5,-222 93.5,-216 99.5,-216 99.5,-216 185.5,-216 185.5,-216 191.5,-216 197.5,-222 197.5,-228 197.5,-228 197.5,-240 197.5,-240 197.5,-246 191.5,-252 185.5,-252"/>
<text text-anchor="middle" x="142.5" y="-231.5" font-family="sans" font-size="10.00" fill="#000000">select_quality_bins</text>
</g>
<!-- 3&#45;&gt;10 -->
<g id="edge14" class="edge">
<title>3&#45;&gt;10</title>
<path fill="none" stroke="#c0c0c0" stroke-width="2" d="M104.3695,-287.8314C110.1835,-279.6232 117.1696,-269.7606 123.5646,-260.7323"/>
<polygon fill="#c0c0c0" stroke="#c0c0c0" stroke-width="2" points="126.5331,-262.5966 129.4573,-252.4133 120.821,-258.5505 126.5331,-262.5966"/>
</g>
<!-- 4 -->
<g id="node5" class="node">
<title>4</title>
<path fill="none" stroke="#9fd856" stroke-width="2" d="M150,-468C150,-468 87,-468 87,-468 81,-468 75,-462 75,-456 75,-456 75,-444 75,-444 75,-438 81,-432 87,-432 87,-432 150,-432 150,-432 156,-432 162,-438 162,-444 162,-444 162,-456 162,-456 162,-462 156,-468 150,-468"/>
<text text-anchor="middle" x="118.5" y="-447.5" font-family="sans" font-size="10.00" fill="#000000">rename_MAGs</text>
</g>
<!-- 4&#45;&gt;3 -->
<g id="edge7" class="edge">
<title>4&#45;&gt;3</title>
<path fill="none" stroke="#c0c0c0" stroke-width="2" d="M104.7037,-431.5772C98.0974,-421.6044 90.8977,-408.743 87.5,-396 82.1358,-375.8815 83.4323,-352.3492 85.9126,-334.3941"/>
<polygon fill="#c0c0c0" stroke="#c0c0c0" stroke-width="2" points="89.4077,-334.7 87.5145,-324.2757 82.4938,-333.6053 89.4077,-334.7"/>
</g>
<!-- 9 -->
<g id="node10" class="node">
<title>9</title>
<path fill="none" stroke="#d88556" stroke-width="2" d="M168.5,-396C168.5,-396 108.5,-396 108.5,-396 102.5,-396 96.5,-390 96.5,-384 96.5,-384 96.5,-372 96.5,-372 96.5,-366 102.5,-360 108.5,-360 108.5,-360 168.5,-360 168.5,-360 174.5,-360 180.5,-366 180.5,-372 180.5,-372 180.5,-384 180.5,-384 180.5,-390 174.5,-396 168.5,-396"/>
<text text-anchor="middle" x="138.5" y="-375.5" font-family="sans" font-size="10.00" fill="#000000">quality_check</text>
</g>
<!-- 4&#45;&gt;9 -->
<g id="edge13" class="edge">
<title>4&#45;&gt;9</title>
<path fill="none" stroke="#c0c0c0" stroke-width="2" d="M123.5468,-431.8314C125.7094,-424.0463 128.2853,-414.7729 130.6848,-406.1347"/>
<polygon fill="#c0c0c0" stroke="#c0c0c0" stroke-width="2" points="134.081,-406.9852 133.3852,-396.4133 127.3364,-405.1117 134.081,-406.9852"/>
</g>
<!-- 5 -->
<g id="node6" class="node">
<title>5</title>
<path fill="none" stroke="#ced856" stroke-width="2" d="M133.5,-540C133.5,-540 103.5,-540 103.5,-540 97.5,-540 91.5,-534 91.5,-528 91.5,-528 91.5,-516 91.5,-516 91.5,-510 97.5,-504 103.5,-504 103.5,-504 133.5,-504 133.5,-504 139.5,-504 145.5,-510 145.5,-516 145.5,-516 145.5,-528 145.5,-528 145.5,-534 139.5,-540 133.5,-540"/>
<text text-anchor="middle" x="118.5" y="-519.5" font-family="sans" font-size="10.00" fill="#000000">refine</text>
</g>
<!-- 5&#45;&gt;4 -->
<g id="edge9" class="edge">
<title>5&#45;&gt;4</title>
<path fill="none" stroke="#c0c0c0" stroke-width="2" d="M118.5,-503.8314C118.5,-496.131 118.5,-486.9743 118.5,-478.4166"/>
<polygon fill="#c0c0c0" stroke="#c0c0c0" stroke-width="2" points="122.0001,-478.4132 118.5,-468.4133 115.0001,-478.4133 122.0001,-478.4132"/>
</g>
<!-- 6 -->
<g id="node7" class="node">
<title>6</title>
<path fill="none" stroke="#70d856" stroke-width="2" stroke-dasharray="5,2" d="M133.5,-612C133.5,-612 103.5,-612 103.5,-612 97.5,-612 91.5,-606 91.5,-600 91.5,-600 91.5,-588 91.5,-588 91.5,-582 97.5,-576 103.5,-576 103.5,-576 133.5,-576 133.5,-576 139.5,-576 145.5,-582 145.5,-588 145.5,-588 145.5,-600 145.5,-600 145.5,-606 139.5,-612 133.5,-612"/>
<text text-anchor="middle" x="118.5" y="-591.5" font-family="sans" font-size="10.00" fill="#000000">bin</text>
</g>
<!-- 6&#45;&gt;5 -->
<g id="edge10" class="edge">
<title>6&#45;&gt;5</title>
<path fill="none" stroke="#c0c0c0" stroke-width="2" d="M118.5,-575.8314C118.5,-568.131 118.5,-558.9743 118.5,-550.4166"/>
<polygon fill="#c0c0c0" stroke="#c0c0c0" stroke-width="2" points="122.0001,-550.4132 118.5,-540.4133 115.0001,-550.4133 122.0001,-550.4132"/>
</g>
<!-- 7 -->
<g id="node8" class="node">
<title>7</title>
<path fill="none" stroke="#56d89a" stroke-width="2" stroke-dasharray="5,2" d="M144,-684C144,-684 93,-684 93,-684 87,-684 81,-678 81,-672 81,-672 81,-660 81,-660 81,-654 87,-648 93,-648 93,-648 144,-648 144,-648 150,-648 156,-654 156,-660 156,-660 156,-672 156,-672 156,-678 150,-684 144,-684"/>
<text text-anchor="middle" x="118.5" y="-663.5" font-family="sans" font-size="10.00" fill="#000000">unzip_reads</text>
</g>
<!-- 7&#45;&gt;6 -->
<g id="edge11" class="edge">
<title>7&#45;&gt;6</title>
<path fill="none" stroke="#c0c0c0" stroke-width="2" d="M118.5,-647.8314C118.5,-640.131 118.5,-630.9743 118.5,-622.4166"/>
<polygon fill="#c0c0c0" stroke="#c0c0c0" stroke-width="2" points="122.0001,-622.4132 118.5,-612.4133 115.0001,-622.4133 122.0001,-622.4132"/>
</g>
<!-- 8 -->
<g id="node9" class="node">
<title>8</title>
<path fill="none" stroke="#5682d8" stroke-width="2" stroke-dasharray="5,2" d="M166.5,-756C166.5,-756 70.5,-756 70.5,-756 64.5,-756 58.5,-750 58.5,-744 58.5,-744 58.5,-732 58.5,-732 58.5,-726 64.5,-720 70.5,-720 70.5,-720 166.5,-720 166.5,-720 172.5,-720 178.5,-726 178.5,-732 178.5,-732 178.5,-744 178.5,-744 178.5,-750 172.5,-756 166.5,-756"/>
<text text-anchor="middle" x="118.5" y="-741" font-family="sans" font-size="10.00" fill="#000000">assemble_reads</text>
<text text-anchor="middle" x="118.5" y="-730" font-family="sans" font-size="10.00" fill="#000000">sample: SRR9162907</text>
</g>
<!-- 8&#45;&gt;7 -->
<g id="edge12" class="edge">
<title>8&#45;&gt;7</title>
<path fill="none" stroke="#c0c0c0" stroke-width="2" d="M118.5,-719.8314C118.5,-712.131 118.5,-702.9743 118.5,-694.4166"/>
<polygon fill="#c0c0c0" stroke="#c0c0c0" stroke-width="2" points="122.0001,-694.4132 118.5,-684.4133 115.0001,-694.4133 122.0001,-694.4132"/>
</g>
<!-- 9&#45;&gt;3 -->
<g id="edge8" class="edge">
<title>9&#45;&gt;3</title>
<path fill="none" stroke="#c0c0c0" stroke-width="2" d="M126.6399,-359.8314C121.3371,-351.7079 114.9763,-341.9637 109.1327,-333.0118"/>
<polygon fill="#c0c0c0" stroke="#c0c0c0" stroke-width="2" points="111.9169,-330.8739 103.5198,-324.4133 106.0552,-334.7003 111.9169,-330.8739"/>
</g>
<!-- 10&#45;&gt;1 -->
<g id="edge4" class="edge">
<title>10&#45;&gt;1</title>
<path fill="none" stroke="#c0c0c0" stroke-width="2" d="M141.9934,-215.7623C141.3111,-191.201 140.0902,-147.2474 139.2876,-118.3541"/>
<polygon fill="#c0c0c0" stroke="#c0c0c0" stroke-width="2" points="142.7789,-117.9885 139.0025,-108.0896 135.7816,-118.183 142.7789,-117.9885"/>
</g>
<!-- 10&#45;&gt;2 -->
<g id="edge6" class="edge">
<title>10&#45;&gt;2</title>
<path fill="none" stroke="#c0c0c0" stroke-width="2" d="M121.5556,-215.8314C111.4309,-207.0485 99.1223,-196.3712 88.1452,-186.8489"/>
<polygon fill="#c0c0c0" stroke="#c0c0c0" stroke-width="2" points="90.2851,-184.0718 80.4377,-180.1628 85.6981,-189.3595 90.2851,-184.0718"/>
</g>
<!-- 11 -->
<g id="node12" class="node">
<title>11</title>
<path fill="none" stroke="#56d86b" stroke-width="2" d="M299,-108C299,-108 220,-108 220,-108 214,-108 208,-102 208,-96 208,-96 208,-84 208,-84 208,-78 214,-72 220,-72 220,-72 299,-72 299,-72 305,-72 311,-78 311,-84 311,-84 311,-96 311,-96 311,-102 305,-108 299,-108"/>
<text text-anchor="middle" x="259.5" y="-87.5" font-family="sans" font-size="10.00" fill="#000000">assign_taxonomy</text>
</g>
<!-- 11&#45;&gt;0 -->
<g id="edge2" class="edge">
<title>11&#45;&gt;0</title>
<path fill="none" stroke="#c0c0c0" stroke-width="2" d="M244.1071,-71.8314C237.0096,-63.454 228.452,-53.3531 220.676,-44.1749"/>
<polygon fill="#c0c0c0" stroke="#c0c0c0" stroke-width="2" points="223.2348,-41.7807 214.1001,-36.4133 217.8939,-46.3056 223.2348,-41.7807"/>
</g>
<!-- 12 -->
<g id="node13" class="node">
<title>12</title>
<path fill="none" stroke="#d85656" stroke-width="2" d="M299,-180C299,-180 204,-180 204,-180 198,-180 192,-174 192,-168 192,-168 192,-156 192,-156 192,-150 198,-144 204,-144 204,-144 299,-144 299,-144 305,-144 311,-150 311,-156 311,-156 311,-168 311,-168 311,-174 305,-180 299,-180"/>
<text text-anchor="middle" x="251.5" y="-159.5" font-family="sans" font-size="10.00" fill="#000000">copy_final_bins_over</text>
</g>
<!-- 12&#45;&gt;11 -->
<g id="edge15" class="edge">
<title>12&#45;&gt;11</title>
<path fill="none" stroke="#c0c0c0" stroke-width="2" d="M253.5187,-143.8314C254.3743,-136.131 255.3917,-126.9743 256.3426,-118.4166"/>
<polygon fill="#c0c0c0" stroke="#c0c0c0" stroke-width="2" points="259.8283,-118.7386 257.4541,-108.4133 252.8711,-117.9656 259.8283,-118.7386"/>
</g>
<!-- 13 -->
<g id="node14" class="node">
<title>13</title>
<path fill="none" stroke="#56d8c9" stroke-width="2" d="M293,-324C293,-324 246,-324 246,-324 240,-324 234,-318 234,-312 234,-312 234,-300 234,-300 234,-294 240,-288 246,-288 246,-288 293,-288 293,-288 299,-288 305,-294 305,-300 305,-300 305,-312 305,-312 305,-318 299,-324 293,-324"/>
<text text-anchor="middle" x="269.5" y="-303.5" font-family="sans" font-size="10.00" fill="#000000">dereplicate</text>
</g>
<!-- 13&#45;&gt;12 -->
<g id="edge17" class="edge">
<title>13&#45;&gt;12</title>
<path fill="none" stroke="#c0c0c0" stroke-width="2" d="M267.2203,-287.7623C264.1501,-263.201 258.6559,-219.2474 255.0443,-190.3541"/>
<polygon fill="#c0c0c0" stroke="#c0c0c0" stroke-width="2" points="258.4746,-189.5782 253.7612,-180.0896 251.5287,-190.4465 258.4746,-189.5782"/>
</g>
<!-- 20 -->
<g id="node21" class="node">
<title>20</title>
<path fill="none" stroke="#56b1d8" stroke-width="2" d="M377.5,-252C377.5,-252 291.5,-252 291.5,-252 285.5,-252 279.5,-246 279.5,-240 279.5,-240 279.5,-228 279.5,-228 279.5,-222 285.5,-216 291.5,-216 291.5,-216 377.5,-216 377.5,-216 383.5,-216 389.5,-222 389.5,-228 389.5,-228 389.5,-240 389.5,-240 389.5,-246 383.5,-252 377.5,-252"/>
<text text-anchor="middle" x="334.5" y="-231.5" font-family="sans" font-size="10.00" fill="#000000">select_quality_bins</text>
</g>
<!-- 13&#45;&gt;20 -->
<g id="edge26" class="edge">
<title>13&#45;&gt;20</title>
<path fill="none" stroke="#c0c0c0" stroke-width="2" d="M285.9022,-287.8314C293.5415,-279.3694 302.7683,-269.1489 311.1207,-259.8971"/>
<polygon fill="#c0c0c0" stroke="#c0c0c0" stroke-width="2" points="313.7738,-262.1813 317.8769,-252.4133 308.5779,-257.4906 313.7738,-262.1813"/>
</g>
<!-- 14 -->
<g id="node15" class="node">
<title>14</title>
<path fill="none" stroke="#9fd856" stroke-width="2" d="M289,-468C289,-468 226,-468 226,-468 220,-468 214,-462 214,-456 214,-456 214,-444 214,-444 214,-438 220,-432 226,-432 226,-432 289,-432 289,-432 295,-432 301,-438 301,-444 301,-444 301,-456 301,-456 301,-462 295,-468 289,-468"/>
<text text-anchor="middle" x="257.5" y="-447.5" font-family="sans" font-size="10.00" fill="#000000">rename_MAGs</text>
</g>
<!-- 14&#45;&gt;13 -->
<g id="edge19" class="edge">
<title>14&#45;&gt;13</title>
<path fill="none" stroke="#c0c0c0" stroke-width="2" d="M255.9406,-431.9975C254.6808,-413.7767 253.5536,-384.8273 256.5,-360 257.5068,-351.5166 259.3736,-342.4376 261.3847,-334.1913"/>
<polygon fill="#c0c0c0" stroke="#c0c0c0" stroke-width="2" points="264.8278,-334.8576 263.9554,-324.2988 258.0528,-333.0971 264.8278,-334.8576"/>
</g>
<!-- 19 -->
<g id="node20" class="node">
<title>19</title>
<path fill="none" stroke="#d88556" stroke-width="2" d="M337.5,-396C337.5,-396 277.5,-396 277.5,-396 271.5,-396 265.5,-390 265.5,-384 265.5,-384 265.5,-372 265.5,-372 265.5,-366 271.5,-360 277.5,-360 277.5,-360 337.5,-360 337.5,-360 343.5,-360 349.5,-366 349.5,-372 349.5,-372 349.5,-384 349.5,-384 349.5,-390 343.5,-396 337.5,-396"/>
<text text-anchor="middle" x="307.5" y="-375.5" font-family="sans" font-size="10.00" fill="#000000">quality_check</text>
</g>
<!-- 14&#45;&gt;19 -->
<g id="edge25" class="edge">
<title>14&#45;&gt;19</title>
<path fill="none" stroke="#c0c0c0" stroke-width="2" d="M270.1171,-431.8314C275.8172,-423.6232 282.6663,-413.7606 288.9359,-404.7323"/>
<polygon fill="#c0c0c0" stroke="#c0c0c0" stroke-width="2" points="291.8838,-406.6234 294.713,-396.4133 286.1342,-402.6306 291.8838,-406.6234"/>
</g>
<!-- 15 -->
<g id="node16" class="node">
<title>15</title>
<path fill="none" stroke="#ced856" stroke-width="2" d="M272.5,-540C272.5,-540 242.5,-540 242.5,-540 236.5,-540 230.5,-534 230.5,-528 230.5,-528 230.5,-516 230.5,-516 230.5,-510 236.5,-504 242.5,-504 242.5,-504 272.5,-504 272.5,-504 278.5,-504 284.5,-510 284.5,-516 284.5,-516 284.5,-528 284.5,-528 284.5,-534 278.5,-540 272.5,-540"/>
<text text-anchor="middle" x="257.5" y="-519.5" font-family="sans" font-size="10.00" fill="#000000">refine</text>
</g>
<!-- 15&#45;&gt;14 -->
<g id="edge21" class="edge">
<title>15&#45;&gt;14</title>
<path fill="none" stroke="#c0c0c0" stroke-width="2" d="M257.5,-503.8314C257.5,-496.131 257.5,-486.9743 257.5,-478.4166"/>
<polygon fill="#c0c0c0" stroke="#c0c0c0" stroke-width="2" points="261.0001,-478.4132 257.5,-468.4133 254.0001,-478.4133 261.0001,-478.4132"/>
</g>
<!-- 16 -->
<g id="node17" class="node">
<title>16</title>
<path fill="none" stroke="#70d856" stroke-width="2" stroke-dasharray="5,2" d="M272.5,-612C272.5,-612 242.5,-612 242.5,-612 236.5,-612 230.5,-606 230.5,-600 230.5,-600 230.5,-588 230.5,-588 230.5,-582 236.5,-576 242.5,-576 242.5,-576 272.5,-576 272.5,-576 278.5,-576 284.5,-582 284.5,-588 284.5,-588 284.5,-600 284.5,-600 284.5,-606 278.5,-612 272.5,-612"/>
<text text-anchor="middle" x="257.5" y="-591.5" font-family="sans" font-size="10.00" fill="#000000">bin</text>
</g>
<!-- 16&#45;&gt;15 -->
<g id="edge22" class="edge">
<title>16&#45;&gt;15</title>
<path fill="none" stroke="#c0c0c0" stroke-width="2" d="M257.5,-575.8314C257.5,-568.131 257.5,-558.9743 257.5,-550.4166"/>
<polygon fill="#c0c0c0" stroke="#c0c0c0" stroke-width="2" points="261.0001,-550.4132 257.5,-540.4133 254.0001,-550.4133 261.0001,-550.4132"/>
</g>
<!-- 17 -->
<g id="node18" class="node">
<title>17</title>
<path fill="none" stroke="#56d89a" stroke-width="2" stroke-dasharray="5,2" d="M283,-684C283,-684 232,-684 232,-684 226,-684 220,-678 220,-672 220,-672 220,-660 220,-660 220,-654 226,-648 232,-648 232,-648 283,-648 283,-648 289,-648 295,-654 295,-660 295,-660 295,-672 295,-672 295,-678 289,-684 283,-684"/>
<text text-anchor="middle" x="257.5" y="-663.5" font-family="sans" font-size="10.00" fill="#000000">unzip_reads</text>
</g>
<!-- 17&#45;&gt;16 -->
<g id="edge23" class="edge">
<title>17&#45;&gt;16</title>
<path fill="none" stroke="#c0c0c0" stroke-width="2" d="M257.5,-647.8314C257.5,-640.131 257.5,-630.9743 257.5,-622.4166"/>
<polygon fill="#c0c0c0" stroke="#c0c0c0" stroke-width="2" points="261.0001,-622.4132 257.5,-612.4133 254.0001,-622.4133 261.0001,-622.4132"/>
</g>
<!-- 18 -->
<g id="node19" class="node">
<title>18</title>
<path fill="none" stroke="#5682d8" stroke-width="2" stroke-dasharray="5,2" d="M305.5,-756C305.5,-756 209.5,-756 209.5,-756 203.5,-756 197.5,-750 197.5,-744 197.5,-744 197.5,-732 197.5,-732 197.5,-726 203.5,-720 209.5,-720 209.5,-720 305.5,-720 305.5,-720 311.5,-720 317.5,-726 317.5,-732 317.5,-732 317.5,-744 317.5,-744 317.5,-750 311.5,-756 305.5,-756"/>
<text text-anchor="middle" x="257.5" y="-741" font-family="sans" font-size="10.00" fill="#000000">assemble_reads</text>
<text text-anchor="middle" x="257.5" y="-730" font-family="sans" font-size="10.00" fill="#000000">sample: SRR9162908</text>
</g>
<!-- 18&#45;&gt;17 -->
<g id="edge24" class="edge">
<title>18&#45;&gt;17</title>
<path fill="none" stroke="#c0c0c0" stroke-width="2" d="M257.5,-719.8314C257.5,-712.131 257.5,-702.9743 257.5,-694.4166"/>
<polygon fill="#c0c0c0" stroke="#c0c0c0" stroke-width="2" points="261.0001,-694.4132 257.5,-684.4133 254.0001,-694.4133 261.0001,-694.4132"/>
</g>
<!-- 19&#45;&gt;13 -->
<g id="edge20" class="edge">
<title>19&#45;&gt;13</title>
<path fill="none" stroke="#c0c0c0" stroke-width="2" d="M297.911,-359.8314C293.6683,-351.7925 288.5879,-342.1666 283.904,-333.2918"/>
<polygon fill="#c0c0c0" stroke="#c0c0c0" stroke-width="2" points="286.9811,-331.6235 279.2181,-324.4133 280.7904,-334.8908 286.9811,-331.6235"/>
</g>
<!-- 20&#45;&gt;11 -->
<g id="edge16" class="edge">
<title>20&#45;&gt;11</title>
<path fill="none" stroke="#c0c0c0" stroke-width="2" d="M335.1943,-215.9514C335.1582,-196.9193 332.863,-166.6166 320.5,-144 314.405,-132.8499 305.0749,-122.8751 295.5311,-114.6239"/>
<polygon fill="#c0c0c0" stroke="#c0c0c0" stroke-width="2" points="297.4951,-111.7096 287.5304,-108.1104 293.0757,-117.1382 297.4951,-111.7096"/>
</g>
<!-- 20&#45;&gt;12 -->
<g id="edge18" class="edge">
<title>20&#45;&gt;12</title>
<path fill="none" stroke="#c0c0c0" stroke-width="2" d="M313.5556,-215.8314C303.4309,-207.0485 291.1223,-196.3712 280.1452,-186.8489"/>
<polygon fill="#c0c0c0" stroke="#c0c0c0" stroke-width="2" points="282.2851,-184.0718 272.4377,-180.1628 277.6981,-189.3595 282.2851,-184.0718"/>
</g>
</g>
</svg>
