<?xml version="1.0" encoding="UTF-8" standalone="no"?>
<!DOCTYPE svg PUBLIC "-//W3C//DTD SVG 1.1//EN"
 "http://www.w3.org/Graphics/SVG/1.1/DTD/svg11.dtd">
<!-- Generated by graphviz version 2.40.1 (20161225.0304)
 -->
<!-- Title: snakemake_dag Pages: 1 -->
<svg width="1546pt" height="476pt"
 viewBox="0.00 0.00 1546.00 476.00" xmlns="http://www.w3.org/2000/svg" xmlns:xlink="http://www.w3.org/1999/xlink">
<g id="graph0" class="graph" transform="scale(1 1) rotate(0) translate(4 472)">
<title>snakemake_dag</title>
<polygon fill="#ffffff" stroke="transparent" points="-4,4 -4,-472 1542,-472 1542,4 -4,4"/>
<!-- 0 -->
<g id="node1" class="node">
<title>0</title>
<path fill="none" stroke="#d85656" stroke-width="2" d="M749,-36C749,-36 719,-36 719,-36 713,-36 707,-30 707,-24 707,-24 707,-12 707,-12 707,-6 713,0 719,0 719,0 749,0 749,0 755,0 761,-6 761,-12 761,-12 761,-24 761,-24 761,-30 755,-36 749,-36"/>
<text text-anchor="middle" x="734" y="-15.5" font-family="sans" font-size="10.00" fill="#000000">all</text>
</g>
<!-- 1 -->
<g id="node2" class="node">
<title>1</title>
<path fill="none" stroke="#56d87b" stroke-width="2" d="M215,-108C215,-108 185,-108 185,-108 179,-108 173,-102 173,-96 173,-96 173,-84 173,-84 173,-78 179,-72 185,-72 185,-72 215,-72 215,-72 221,-72 227,-78 227,-84 227,-84 227,-96 227,-96 227,-102 221,-108 215,-108"/>
<text text-anchor="middle" x="200" y="-87.5" font-family="sans" font-size="10.00" fill="#000000">gtdbtk</text>
</g>
<!-- 1&#45;&gt;0 -->
<g id="edge1" class="edge">
<title>1&#45;&gt;0</title>
<path fill="none" stroke="#c0c0c0" stroke-width="2" d="M227.2153,-86.3305C315.6876,-74.4017 595.2888,-36.7026 696.7529,-23.0221"/>
<polygon fill="#c0c0c0" stroke="#c0c0c0" stroke-width="2" points="697.3969,-26.467 706.8395,-21.6621 696.4615,-19.5298 697.3969,-26.467"/>
</g>
<!-- 2 -->
<g id="node3" class="node">
<title>2</title>
<path fill="none" stroke="#78d856" stroke-width="2" d="M143,-180C143,-180 57,-180 57,-180 51,-180 45,-174 45,-168 45,-168 45,-156 45,-156 45,-150 51,-144 57,-144 57,-144 143,-144 143,-144 149,-144 155,-150 155,-156 155,-156 155,-168 155,-168 155,-174 149,-180 143,-180"/>
<text text-anchor="middle" x="100" y="-159.5" font-family="sans" font-size="10.00" fill="#000000">select_quality_bins</text>
</g>
<!-- 2&#45;&gt;1 -->
<g id="edge11" class="edge">
<title>2&#45;&gt;1</title>
<path fill="none" stroke="#c0c0c0" stroke-width="2" d="M125.2342,-143.8314C137.788,-134.7927 153.1283,-123.7476 166.6391,-114.0198"/>
<polygon fill="#c0c0c0" stroke="#c0c0c0" stroke-width="2" points="168.7036,-116.8463 174.7739,-108.1628 164.6134,-111.1655 168.7036,-116.8463"/>
</g>
<!-- 3 -->
<g id="node4" class="node">
<title>3</title>
<path fill="none" stroke="#56a2d8" stroke-width="2" d="M113.5,-252C113.5,-252 82.5,-252 82.5,-252 76.5,-252 70.5,-246 70.5,-240 70.5,-240 70.5,-228 70.5,-228 70.5,-222 76.5,-216 82.5,-216 82.5,-216 113.5,-216 113.5,-216 119.5,-216 125.5,-222 125.5,-228 125.5,-228 125.5,-240 125.5,-240 125.5,-246 119.5,-252 113.5,-252"/>
<text text-anchor="middle" x="98" y="-231.5" font-family="sans" font-size="10.00" fill="#000000">checkm</text>
</g>
<!-- 3&#45;&gt;2 -->
<g id="edge12" class="edge">
<title>3&#45;&gt;2</title>
<path fill="none" stroke="#c0c0c0" stroke-width="2" d="M98.5047,-215.8314C98.7186,-208.131 98.9729,-198.9743 99.2106,-190.4166"/>
<polygon fill="#c0c0c0" stroke="#c0c0c0" stroke-width="2" points="102.7094,-190.5066 99.4885,-180.4133 95.7121,-190.3122 102.7094,-190.5066"/>
</g>
<!-- 4 -->
<g id="node5" class="node">
<title>4</title>
<path fill="none" stroke="#56d8c9" stroke-width="2" d="M97,-324C97,-324 67,-324 67,-324 61,-324 55,-318 55,-312 55,-312 55,-300 55,-300 55,-294 61,-288 67,-288 67,-288 97,-288 97,-288 103,-288 109,-294 109,-300 109,-300 109,-312 109,-312 109,-318 103,-324 97,-324"/>
<text text-anchor="middle" x="82" y="-303.5" font-family="sans" font-size="10.00" fill="#000000">drep</text>
</g>
<!-- 4&#45;&gt;3 -->
<g id="edge13" class="edge">
<title>4&#45;&gt;3</title>
<path fill="none" stroke="#c0c0c0" stroke-width="2" d="M86.0375,-287.8314C87.7487,-280.131 89.7835,-270.9743 91.6852,-262.4166"/>
<polygon fill="#c0c0c0" stroke="#c0c0c0" stroke-width="2" points="95.1554,-262.9344 93.9082,-252.4133 88.3221,-261.4159 95.1554,-262.9344"/>
</g>
<!-- 5 -->
<g id="node6" class="node">
<title>5</title>
<path fill="none" stroke="#d8a456" stroke-width="2" d="M91,-396C91,-396 49,-396 49,-396 43,-396 37,-390 37,-384 37,-384 37,-372 37,-372 37,-366 43,-360 49,-360 49,-360 91,-360 91,-360 97,-360 103,-366 103,-372 103,-372 103,-384 103,-384 103,-390 97,-396 91,-396"/>
<text text-anchor="middle" x="70" y="-375.5" font-family="sans" font-size="10.00" fill="#000000">metawrap</text>
</g>
<!-- 5&#45;&gt;4 -->
<g id="edge14" class="edge">
<title>5&#45;&gt;4</title>
<path fill="none" stroke="#c0c0c0" stroke-width="2" d="M73.0281,-359.8314C74.3115,-352.131 75.8376,-342.9743 77.2639,-334.4166"/>
<polygon fill="#c0c0c0" stroke="#c0c0c0" stroke-width="2" points="80.7394,-334.8526 78.9311,-324.4133 73.8347,-333.7018 80.7394,-334.8526"/>
</g>
<!-- 6 -->
<g id="node7" class="node">
<title>6</title>
<path fill="none" stroke="#c6d856" stroke-width="2" d="M108,-468C108,-468 12,-468 12,-468 6,-468 0,-462 0,-456 0,-456 0,-444 0,-444 0,-438 6,-432 12,-432 12,-432 108,-432 108,-432 114,-432 120,-438 120,-444 120,-444 120,-456 120,-456 120,-462 114,-468 108,-468"/>
<text text-anchor="middle" x="60" y="-453" font-family="sans" font-size="10.00" fill="#000000">spades</text>
<text text-anchor="middle" x="60" y="-442" font-family="sans" font-size="10.00" fill="#000000">sample: SRR9162907</text>
</g>
<!-- 6&#45;&gt;5 -->
<g id="edge15" class="edge">
<title>6&#45;&gt;5</title>
<path fill="none" stroke="#c0c0c0" stroke-width="2" d="M62.5234,-431.8314C63.5929,-424.131 64.8647,-414.9743 66.0532,-406.4166"/>
<polygon fill="#c0c0c0" stroke="#c0c0c0" stroke-width="2" points="69.5336,-406.7997 67.4426,-396.4133 62.6001,-405.8367 69.5336,-406.7997"/>
</g>
<!-- 7 -->
<g id="node8" class="node">
<title>7</title>
<path fill="none" stroke="#56d87b" stroke-width="2" d="M399,-108C399,-108 369,-108 369,-108 363,-108 357,-102 357,-96 357,-96 357,-84 357,-84 357,-78 363,-72 369,-72 369,-72 399,-72 399,-72 405,-72 411,-78 411,-84 411,-84 411,-96 411,-96 411,-102 405,-108 399,-108"/>
<text text-anchor="middle" x="384" y="-87.5" font-family="sans" font-size="10.00" fill="#000000">gtdbtk</text>
</g>
<!-- 7&#45;&gt;0 -->
<g id="edge2" class="edge">
<title>7&#45;&gt;0</title>
<path fill="none" stroke="#c0c0c0" stroke-width="2" d="M411.1727,-84.4102C473.325,-71.6246 625.9371,-40.2301 696.7669,-25.6594"/>
<polygon fill="#c0c0c0" stroke="#c0c0c0" stroke-width="2" points="697.5137,-29.0791 706.6033,-23.6359 696.1032,-22.2227 697.5137,-29.0791"/>
</g>
<!-- 8 -->
<g id="node9" class="node">
<title>8</title>
<path fill="none" stroke="#78d856" stroke-width="2" d="M302,-180C302,-180 216,-180 216,-180 210,-180 204,-174 204,-168 204,-168 204,-156 204,-156 204,-150 210,-144 216,-144 216,-144 302,-144 302,-144 308,-144 314,-150 314,-156 314,-156 314,-168 314,-168 314,-174 308,-180 302,-180"/>
<text text-anchor="middle" x="259" y="-159.5" font-family="sans" font-size="10.00" fill="#000000">select_quality_bins</text>
</g>
<!-- 8&#45;&gt;7 -->
<g id="edge16" class="edge">
<title>8&#45;&gt;7</title>
<path fill="none" stroke="#c0c0c0" stroke-width="2" d="M290.5428,-143.8314C307.9109,-133.8273 329.5459,-121.3655 347.6246,-110.9522"/>
<polygon fill="#c0c0c0" stroke="#c0c0c0" stroke-width="2" points="349.7947,-113.7414 356.713,-105.7173 346.3008,-107.6757 349.7947,-113.7414"/>
</g>
<!-- 9 -->
<g id="node10" class="node">
<title>9</title>
<path fill="none" stroke="#56a2d8" stroke-width="2" d="M218.5,-252C218.5,-252 187.5,-252 187.5,-252 181.5,-252 175.5,-246 175.5,-240 175.5,-240 175.5,-228 175.5,-228 175.5,-222 181.5,-216 187.5,-216 187.5,-216 218.5,-216 218.5,-216 224.5,-216 230.5,-222 230.5,-228 230.5,-228 230.5,-240 230.5,-240 230.5,-246 224.5,-252 218.5,-252"/>
<text text-anchor="middle" x="203" y="-231.5" font-family="sans" font-size="10.00" fill="#000000">checkm</text>
</g>
<!-- 9&#45;&gt;8 -->
<g id="edge17" class="edge">
<title>9&#45;&gt;8</title>
<path fill="none" stroke="#c0c0c0" stroke-width="2" d="M217.1312,-215.8314C223.5811,-207.5386 231.3445,-197.557 238.4252,-188.4533"/>
<polygon fill="#c0c0c0" stroke="#c0c0c0" stroke-width="2" points="241.3019,-190.4556 244.6786,-180.4133 235.7764,-186.158 241.3019,-190.4556"/>
</g>
<!-- 10 -->
<g id="node11" class="node">
<title>10</title>
<path fill="none" stroke="#56d8c9" stroke-width="2" d="M215,-324C215,-324 185,-324 185,-324 179,-324 173,-318 173,-312 173,-312 173,-300 173,-300 173,-294 179,-288 185,-288 185,-288 215,-288 215,-288 221,-288 227,-294 227,-300 227,-300 227,-312 227,-312 227,-318 221,-324 215,-324"/>
<text text-anchor="middle" x="200" y="-303.5" font-family="sans" font-size="10.00" fill="#000000">drep</text>
</g>
<!-- 10&#45;&gt;9 -->
<g id="edge18" class="edge">
<title>10&#45;&gt;9</title>
<path fill="none" stroke="#c0c0c0" stroke-width="2" d="M200.757,-287.8314C201.0779,-280.131 201.4594,-270.9743 201.816,-262.4166"/>
<polygon fill="#c0c0c0" stroke="#c0c0c0" stroke-width="2" points="205.3133,-262.5503 202.2328,-252.4133 198.3194,-262.2589 205.3133,-262.5503"/>
</g>
<!-- 11 -->
<g id="node12" class="node">
<title>11</title>
<path fill="none" stroke="#d8a456" stroke-width="2" d="M220,-396C220,-396 178,-396 178,-396 172,-396 166,-390 166,-384 166,-384 166,-372 166,-372 166,-366 172,-360 178,-360 178,-360 220,-360 220,-360 226,-360 232,-366 232,-372 232,-372 232,-384 232,-384 232,-390 226,-396 220,-396"/>
<text text-anchor="middle" x="199" y="-375.5" font-family="sans" font-size="10.00" fill="#000000">metawrap</text>
</g>
<!-- 11&#45;&gt;10 -->
<g id="edge19" class="edge">
<title>11&#45;&gt;10</title>
<path fill="none" stroke="#c0c0c0" stroke-width="2" d="M199.2523,-359.8314C199.3593,-352.131 199.4865,-342.9743 199.6053,-334.4166"/>
<polygon fill="#c0c0c0" stroke="#c0c0c0" stroke-width="2" points="203.1049,-334.4609 199.7443,-324.4133 196.1056,-334.3637 203.1049,-334.4609"/>
</g>
<!-- 12 -->
<g id="node13" class="node">
<title>12</title>
<path fill="none" stroke="#c6d856" stroke-width="2" d="M246,-468C246,-468 150,-468 150,-468 144,-468 138,-462 138,-456 138,-456 138,-444 138,-444 138,-438 144,-432 150,-432 150,-432 246,-432 246,-432 252,-432 258,-438 258,-444 258,-444 258,-456 258,-456 258,-462 252,-468 246,-468"/>
<text text-anchor="middle" x="198" y="-453" font-family="sans" font-size="10.00" fill="#000000">spades</text>
<text text-anchor="middle" x="198" y="-442" font-family="sans" font-size="10.00" fill="#000000">sample: SRR9162908</text>
</g>
<!-- 12&#45;&gt;11 -->
<g id="edge20" class="edge">
<title>12&#45;&gt;11</title>
<path fill="none" stroke="#c0c0c0" stroke-width="2" d="M198.2523,-431.8314C198.3593,-424.131 198.4865,-414.9743 198.6053,-406.4166"/>
<polygon fill="#c0c0c0" stroke="#c0c0c0" stroke-width="2" points="202.1049,-406.4609 198.7443,-396.4133 195.1056,-406.3637 202.1049,-406.4609"/>
</g>
<!-- 13 -->
<g id="node14" class="node">
<title>13</title>
<path fill="none" stroke="#56d87b" stroke-width="2" d="M527,-108C527,-108 497,-108 497,-108 491,-108 485,-102 485,-96 485,-96 485,-84 485,-84 485,-78 491,-72 497,-72 497,-72 527,-72 527,-72 533,-72 539,-78 539,-84 539,-84 539,-96 539,-96 539,-102 533,-108 527,-108"/>
<text text-anchor="middle" x="512" y="-87.5" font-family="sans" font-size="10.00" fill="#000000">gtdbtk</text>
</g>
<!-- 13&#45;&gt;0 -->
<g id="edge3" class="edge">
<title>13&#45;&gt;0</title>
<path fill="none" stroke="#c0c0c0" stroke-width="2" d="M539.2216,-81.1714C578.9411,-68.2894 652.8777,-44.3099 697.3469,-29.8875"/>
<polygon fill="#c0c0c0" stroke="#c0c0c0" stroke-width="2" points="698.4709,-33.2025 706.9034,-26.7881 696.3114,-26.5439 698.4709,-33.2025"/>
</g>
<!-- 14 -->
<g id="node15" class="node">
<title>14</title>
<path fill="none" stroke="#78d856" stroke-width="2" d="M445,-180C445,-180 359,-180 359,-180 353,-180 347,-174 347,-168 347,-168 347,-156 347,-156 347,-150 353,-144 359,-144 359,-144 445,-144 445,-144 451,-144 457,-150 457,-156 457,-156 457,-168 457,-168 457,-174 451,-180 445,-180"/>
<text text-anchor="middle" x="402" y="-159.5" font-family="sans" font-size="10.00" fill="#000000">select_quality_bins</text>
</g>
<!-- 14&#45;&gt;13 -->
<g id="edge21" class="edge">
<title>14&#45;&gt;13</title>
<path fill="none" stroke="#c0c0c0" stroke-width="2" d="M429.7576,-143.8314C443.8035,-134.6377 461.0205,-123.3684 476.0654,-113.5208"/>
<polygon fill="#c0c0c0" stroke="#c0c0c0" stroke-width="2" points="478.1821,-116.3185 484.6323,-107.9134 474.3484,-110.4616 478.1821,-116.3185"/>
</g>
<!-- 15 -->
<g id="node16" class="node">
<title>15</title>
<path fill="none" stroke="#56a2d8" stroke-width="2" d="M409.5,-252C409.5,-252 378.5,-252 378.5,-252 372.5,-252 366.5,-246 366.5,-240 366.5,-240 366.5,-228 366.5,-228 366.5,-222 372.5,-216 378.5,-216 378.5,-216 409.5,-216 409.5,-216 415.5,-216 421.5,-222 421.5,-228 421.5,-228 421.5,-240 421.5,-240 421.5,-246 415.5,-252 409.5,-252"/>
<text text-anchor="middle" x="394" y="-231.5" font-family="sans" font-size="10.00" fill="#000000">checkm</text>
</g>
<!-- 15&#45;&gt;14 -->
<g id="edge22" class="edge">
<title>15&#45;&gt;14</title>
<path fill="none" stroke="#c0c0c0" stroke-width="2" d="M396.0187,-215.8314C396.8743,-208.131 397.8917,-198.9743 398.8426,-190.4166"/>
<polygon fill="#c0c0c0" stroke="#c0c0c0" stroke-width="2" points="402.3283,-190.7386 399.9541,-180.4133 395.3711,-189.9656 402.3283,-190.7386"/>
</g>
<!-- 16 -->
<g id="node17" class="node">
<title>16</title>
<path fill="none" stroke="#56d8c9" stroke-width="2" d="M382,-324C382,-324 352,-324 352,-324 346,-324 340,-318 340,-312 340,-312 340,-300 340,-300 340,-294 346,-288 352,-288 352,-288 382,-288 382,-288 388,-288 394,-294 394,-300 394,-300 394,-312 394,-312 394,-318 388,-324 382,-324"/>
<text text-anchor="middle" x="367" y="-303.5" font-family="sans" font-size="10.00" fill="#000000">drep</text>
</g>
<!-- 16&#45;&gt;15 -->
<g id="edge23" class="edge">
<title>16&#45;&gt;15</title>
<path fill="none" stroke="#c0c0c0" stroke-width="2" d="M373.8132,-287.8314C376.7644,-279.9617 380.2858,-270.5712 383.555,-261.8533"/>
<polygon fill="#c0c0c0" stroke="#c0c0c0" stroke-width="2" points="386.8609,-263.0055 387.095,-252.4133 380.3066,-260.5476 386.8609,-263.0055"/>
</g>
<!-- 17 -->
<g id="node18" class="node">
<title>17</title>
<path fill="none" stroke="#d8a456" stroke-width="2" d="M375,-396C375,-396 333,-396 333,-396 327,-396 321,-390 321,-384 321,-384 321,-372 321,-372 321,-366 327,-360 333,-360 333,-360 375,-360 375,-360 381,-360 387,-366 387,-372 387,-372 387,-384 387,-384 387,-390 381,-396 375,-396"/>
<text text-anchor="middle" x="354" y="-375.5" font-family="sans" font-size="10.00" fill="#000000">metawrap</text>
</g>
<!-- 17&#45;&gt;16 -->
<g id="edge24" class="edge">
<title>17&#45;&gt;16</title>
<path fill="none" stroke="#c0c0c0" stroke-width="2" d="M357.2804,-359.8314C358.6708,-352.131 360.3241,-342.9743 361.8692,-334.4166"/>
<polygon fill="#c0c0c0" stroke="#c0c0c0" stroke-width="2" points="365.3428,-334.8761 363.6754,-324.4133 358.4542,-333.6322 365.3428,-334.8761"/>
</g>
<!-- 18 -->
<g id="node19" class="node">
<title>18</title>
<path fill="none" stroke="#c6d856" stroke-width="2" d="M406,-468C406,-468 288,-468 288,-468 282,-468 276,-462 276,-456 276,-456 276,-444 276,-444 276,-438 282,-432 288,-432 288,-432 406,-432 406,-432 412,-432 418,-438 418,-444 418,-444 418,-456 418,-456 418,-462 412,-468 406,-468"/>
<text text-anchor="middle" x="347" y="-453" font-family="sans" font-size="10.00" fill="#000000">spades</text>
<text text-anchor="middle" x="347" y="-442" font-family="sans" font-size="10.00" fill="#000000">sample: test/SRR9162901</text>
</g>
<!-- 18&#45;&gt;17 -->
<g id="edge25" class="edge">
<title>18&#45;&gt;17</title>
<path fill="none" stroke="#c0c0c0" stroke-width="2" d="M348.7664,-431.8314C349.515,-424.131 350.4053,-414.9743 351.2373,-406.4166"/>
<polygon fill="#c0c0c0" stroke="#c0c0c0" stroke-width="2" points="354.7256,-406.7051 352.2098,-396.4133 347.7585,-406.0276 354.7256,-406.7051"/>
</g>
<!-- 19 -->
<g id="node20" class="node">
<title>19</title>
<path fill="none" stroke="#56d87b" stroke-width="2" d="M627,-108C627,-108 597,-108 597,-108 591,-108 585,-102 585,-96 585,-96 585,-84 585,-84 585,-78 591,-72 597,-72 597,-72 627,-72 627,-72 633,-72 639,-78 639,-84 639,-84 639,-96 639,-96 639,-102 633,-108 627,-108"/>
<text text-anchor="middle" x="612" y="-87.5" font-family="sans" font-size="10.00" fill="#000000">gtdbtk</text>
</g>
<!-- 19&#45;&gt;0 -->
<g id="edge4" class="edge">
<title>19&#45;&gt;0</title>
<path fill="none" stroke="#c0c0c0" stroke-width="2" d="M639.0758,-74.0209C656.5291,-63.7205 679.4154,-50.2139 698.3426,-39.0437"/>
<polygon fill="#c0c0c0" stroke="#c0c0c0" stroke-width="2" points="700.1667,-42.0313 706.9999,-33.9345 696.6089,-36.0028 700.1667,-42.0313"/>
</g>
<!-- 20 -->
<g id="node21" class="node">
<title>20</title>
<path fill="none" stroke="#78d856" stroke-width="2" d="M581,-180C581,-180 495,-180 495,-180 489,-180 483,-174 483,-168 483,-168 483,-156 483,-156 483,-150 489,-144 495,-144 495,-144 581,-144 581,-144 587,-144 593,-150 593,-156 593,-156 593,-168 593,-168 593,-174 587,-180 581,-180"/>
<text text-anchor="middle" x="538" y="-159.5" font-family="sans" font-size="10.00" fill="#000000">select_quality_bins</text>
</g>
<!-- 20&#45;&gt;19 -->
<g id="edge26" class="edge">
<title>20&#45;&gt;19</title>
<path fill="none" stroke="#c0c0c0" stroke-width="2" d="M556.6733,-143.8314C565.5249,-135.219 576.2486,-124.7851 585.8895,-115.4048"/>
<polygon fill="#c0c0c0" stroke="#c0c0c0" stroke-width="2" points="588.6061,-117.645 593.3326,-108.1628 583.7246,-112.6279 588.6061,-117.645"/>
</g>
<!-- 21 -->
<g id="node22" class="node">
<title>21</title>
<path fill="none" stroke="#56a2d8" stroke-width="2" d="M548.5,-252C548.5,-252 517.5,-252 517.5,-252 511.5,-252 505.5,-246 505.5,-240 505.5,-240 505.5,-228 505.5,-228 505.5,-222 511.5,-216 517.5,-216 517.5,-216 548.5,-216 548.5,-216 554.5,-216 560.5,-222 560.5,-228 560.5,-228 560.5,-240 560.5,-240 560.5,-246 554.5,-252 548.5,-252"/>
<text text-anchor="middle" x="533" y="-231.5" font-family="sans" font-size="10.00" fill="#000000">checkm</text>
</g>
<!-- 21&#45;&gt;20 -->
<g id="edge27" class="edge">
<title>21&#45;&gt;20</title>
<path fill="none" stroke="#c0c0c0" stroke-width="2" d="M534.2617,-215.8314C534.7965,-208.131 535.4323,-198.9743 536.0266,-190.4166"/>
<polygon fill="#c0c0c0" stroke="#c0c0c0" stroke-width="2" points="539.52,-190.6317 536.7213,-180.4133 532.5368,-190.1467 539.52,-190.6317"/>
</g>
<!-- 22 -->
<g id="node23" class="node">
<title>22</title>
<path fill="none" stroke="#56d8c9" stroke-width="2" d="M533,-324C533,-324 503,-324 503,-324 497,-324 491,-318 491,-312 491,-312 491,-300 491,-300 491,-294 497,-288 503,-288 503,-288 533,-288 533,-288 539,-288 545,-294 545,-300 545,-300 545,-312 545,-312 545,-318 539,-324 533,-324"/>
<text text-anchor="middle" x="518" y="-303.5" font-family="sans" font-size="10.00" fill="#000000">drep</text>
</g>
<!-- 22&#45;&gt;21 -->
<g id="edge28" class="edge">
<title>22&#45;&gt;21</title>
<path fill="none" stroke="#c0c0c0" stroke-width="2" d="M521.7851,-287.8314C523.3894,-280.131 525.297,-270.9743 527.0799,-262.4166"/>
<polygon fill="#c0c0c0" stroke="#c0c0c0" stroke-width="2" points="530.5507,-262.9169 529.1639,-252.4133 523.6979,-261.4892 530.5507,-262.9169"/>
</g>
<!-- 23 -->
<g id="node24" class="node">
<title>23</title>
<path fill="none" stroke="#d8a456" stroke-width="2" d="M532,-396C532,-396 490,-396 490,-396 484,-396 478,-390 478,-384 478,-384 478,-372 478,-372 478,-366 484,-360 490,-360 490,-360 532,-360 532,-360 538,-360 544,-366 544,-372 544,-372 544,-384 544,-384 544,-390 538,-396 532,-396"/>
<text text-anchor="middle" x="511" y="-375.5" font-family="sans" font-size="10.00" fill="#000000">metawrap</text>
</g>
<!-- 23&#45;&gt;22 -->
<g id="edge29" class="edge">
<title>23&#45;&gt;22</title>
<path fill="none" stroke="#c0c0c0" stroke-width="2" d="M512.7664,-359.8314C513.515,-352.131 514.4053,-342.9743 515.2373,-334.4166"/>
<polygon fill="#c0c0c0" stroke="#c0c0c0" stroke-width="2" points="518.7256,-334.7051 516.2098,-324.4133 511.7585,-334.0276 518.7256,-334.7051"/>
</g>
<!-- 24 -->
<g id="node25" class="node">
<title>24</title>
<path fill="none" stroke="#c6d856" stroke-width="2" d="M566,-468C566,-468 448,-468 448,-468 442,-468 436,-462 436,-456 436,-456 436,-444 436,-444 436,-438 442,-432 448,-432 448,-432 566,-432 566,-432 572,-432 578,-438 578,-444 578,-444 578,-456 578,-456 578,-462 572,-468 566,-468"/>
<text text-anchor="middle" x="507" y="-453" font-family="sans" font-size="10.00" fill="#000000">spades</text>
<text text-anchor="middle" x="507" y="-442" font-family="sans" font-size="10.00" fill="#000000">sample: test/SRR9162906</text>
</g>
<!-- 24&#45;&gt;23 -->
<g id="edge30" class="edge">
<title>24&#45;&gt;23</title>
<path fill="none" stroke="#c0c0c0" stroke-width="2" d="M508.0094,-431.8314C508.4372,-424.131 508.9459,-414.9743 509.4213,-406.4166"/>
<polygon fill="#c0c0c0" stroke="#c0c0c0" stroke-width="2" points="512.9169,-406.592 509.977,-396.4133 505.9276,-406.2037 512.9169,-406.592"/>
</g>
<!-- 25 -->
<g id="node26" class="node">
<title>25</title>
<path fill="none" stroke="#56d87b" stroke-width="2" d="M713,-108C713,-108 683,-108 683,-108 677,-108 671,-102 671,-96 671,-96 671,-84 671,-84 671,-78 677,-72 683,-72 683,-72 713,-72 713,-72 719,-72 725,-78 725,-84 725,-84 725,-96 725,-96 725,-102 719,-108 713,-108"/>
<text text-anchor="middle" x="698" y="-87.5" font-family="sans" font-size="10.00" fill="#000000">gtdbtk</text>
</g>
<!-- 25&#45;&gt;0 -->
<g id="edge5" class="edge">
<title>25&#45;&gt;0</title>
<path fill="none" stroke="#c0c0c0" stroke-width="2" d="M707.0843,-71.8314C711.0615,-63.8771 715.8155,-54.369 720.2139,-45.5723"/>
<polygon fill="#c0c0c0" stroke="#c0c0c0" stroke-width="2" points="723.4517,-46.9228 724.7934,-36.4133 717.1907,-43.7923 723.4517,-46.9228"/>
</g>
<!-- 26 -->
<g id="node27" class="node">
<title>26</title>
<path fill="none" stroke="#78d856" stroke-width="2" d="M713,-180C713,-180 627,-180 627,-180 621,-180 615,-174 615,-168 615,-168 615,-156 615,-156 615,-150 621,-144 627,-144 627,-144 713,-144 713,-144 719,-144 725,-150 725,-156 725,-156 725,-168 725,-168 725,-174 719,-180 713,-180"/>
<text text-anchor="middle" x="670" y="-159.5" font-family="sans" font-size="10.00" fill="#000000">select_quality_bins</text>
</g>
<!-- 26&#45;&gt;25 -->
<g id="edge31" class="edge">
<title>26&#45;&gt;25</title>
<path fill="none" stroke="#c0c0c0" stroke-width="2" d="M677.0656,-143.8314C680.126,-135.9617 683.7779,-126.5712 687.1682,-117.8533"/>
<polygon fill="#c0c0c0" stroke="#c0c0c0" stroke-width="2" points="690.4768,-119.0019 690.8393,-108.4133 683.9527,-116.4647 690.4768,-119.0019"/>
</g>
<!-- 27 -->
<g id="node28" class="node">
<title>27</title>
<path fill="none" stroke="#56a2d8" stroke-width="2" d="M683.5,-252C683.5,-252 652.5,-252 652.5,-252 646.5,-252 640.5,-246 640.5,-240 640.5,-240 640.5,-228 640.5,-228 640.5,-222 646.5,-216 652.5,-216 652.5,-216 683.5,-216 683.5,-216 689.5,-216 695.5,-222 695.5,-228 695.5,-228 695.5,-240 695.5,-240 695.5,-246 689.5,-252 683.5,-252"/>
<text text-anchor="middle" x="668" y="-231.5" font-family="sans" font-size="10.00" fill="#000000">checkm</text>
</g>
<!-- 27&#45;&gt;26 -->
<g id="edge32" class="edge">
<title>27&#45;&gt;26</title>
<path fill="none" stroke="#c0c0c0" stroke-width="2" d="M668.5047,-215.8314C668.7186,-208.131 668.9729,-198.9743 669.2106,-190.4166"/>
<polygon fill="#c0c0c0" stroke="#c0c0c0" stroke-width="2" points="672.7094,-190.5066 669.4885,-180.4133 665.7121,-190.3122 672.7094,-190.5066"/>
</g>
<!-- 28 -->
<g id="node29" class="node">
<title>28</title>
<path fill="none" stroke="#56d8c9" stroke-width="2" d="M683,-324C683,-324 653,-324 653,-324 647,-324 641,-318 641,-312 641,-312 641,-300 641,-300 641,-294 647,-288 653,-288 653,-288 683,-288 683,-288 689,-288 695,-294 695,-300 695,-300 695,-312 695,-312 695,-318 689,-324 683,-324"/>
<text text-anchor="middle" x="668" y="-303.5" font-family="sans" font-size="10.00" fill="#000000">drep</text>
</g>
<!-- 28&#45;&gt;27 -->
<g id="edge33" class="edge">
<title>28&#45;&gt;27</title>
<path fill="none" stroke="#c0c0c0" stroke-width="2" d="M668,-287.8314C668,-280.131 668,-270.9743 668,-262.4166"/>
<polygon fill="#c0c0c0" stroke="#c0c0c0" stroke-width="2" points="671.5001,-262.4132 668,-252.4133 664.5001,-262.4133 671.5001,-262.4132"/>
</g>
<!-- 29 -->
<g id="node30" class="node">
<title>29</title>
<path fill="none" stroke="#d8a456" stroke-width="2" d="M689,-396C689,-396 647,-396 647,-396 641,-396 635,-390 635,-384 635,-384 635,-372 635,-372 635,-366 641,-360 647,-360 647,-360 689,-360 689,-360 695,-360 701,-366 701,-372 701,-372 701,-384 701,-384 701,-390 695,-396 689,-396"/>
<text text-anchor="middle" x="668" y="-375.5" font-family="sans" font-size="10.00" fill="#000000">metawrap</text>
</g>
<!-- 29&#45;&gt;28 -->
<g id="edge34" class="edge">
<title>29&#45;&gt;28</title>
<path fill="none" stroke="#c0c0c0" stroke-width="2" d="M668,-359.8314C668,-352.131 668,-342.9743 668,-334.4166"/>
<polygon fill="#c0c0c0" stroke="#c0c0c0" stroke-width="2" points="671.5001,-334.4132 668,-324.4133 664.5001,-334.4133 671.5001,-334.4132"/>
</g>
<!-- 30 -->
<g id="node31" class="node">
<title>30</title>
<path fill="none" stroke="#c6d856" stroke-width="2" d="M726,-468C726,-468 608,-468 608,-468 602,-468 596,-462 596,-456 596,-456 596,-444 596,-444 596,-438 602,-432 608,-432 608,-432 726,-432 726,-432 732,-432 738,-438 738,-444 738,-444 738,-456 738,-456 738,-462 732,-468 726,-468"/>
<text text-anchor="middle" x="667" y="-453" font-family="sans" font-size="10.00" fill="#000000">spades</text>
<text text-anchor="middle" x="667" y="-442" font-family="sans" font-size="10.00" fill="#000000">sample: test/SRR9162905</text>
</g>
<!-- 30&#45;&gt;29 -->
<g id="edge35" class="edge">
<title>30&#45;&gt;29</title>
<path fill="none" stroke="#c0c0c0" stroke-width="2" d="M667.2523,-431.8314C667.3593,-424.131 667.4865,-414.9743 667.6053,-406.4166"/>
<polygon fill="#c0c0c0" stroke="#c0c0c0" stroke-width="2" points="671.1049,-406.4609 667.7443,-396.4133 664.1056,-406.3637 671.1049,-406.4609"/>
</g>
<!-- 31 -->
<g id="node32" class="node">
<title>31</title>
<path fill="none" stroke="#56d87b" stroke-width="2" d="M799,-108C799,-108 769,-108 769,-108 763,-108 757,-102 757,-96 757,-96 757,-84 757,-84 757,-78 763,-72 769,-72 769,-72 799,-72 799,-72 805,-72 811,-78 811,-84 811,-84 811,-96 811,-96 811,-102 805,-108 799,-108"/>
<text text-anchor="middle" x="784" y="-87.5" font-family="sans" font-size="10.00" fill="#000000">gtdbtk</text>
</g>
<!-- 31&#45;&gt;0 -->
<g id="edge6" class="edge">
<title>31&#45;&gt;0</title>
<path fill="none" stroke="#c0c0c0" stroke-width="2" d="M771.3829,-71.8314C765.6828,-63.6232 758.8337,-53.7606 752.5641,-44.7323"/>
<polygon fill="#c0c0c0" stroke="#c0c0c0" stroke-width="2" points="755.3658,-42.6306 746.787,-36.4133 749.6162,-46.6234 755.3658,-42.6306"/>
</g>
<!-- 32 -->
<g id="node33" class="node">
<title>32</title>
<path fill="none" stroke="#78d856" stroke-width="2" d="M857,-180C857,-180 771,-180 771,-180 765,-180 759,-174 759,-168 759,-168 759,-156 759,-156 759,-150 765,-144 771,-144 771,-144 857,-144 857,-144 863,-144 869,-150 869,-156 869,-156 869,-168 869,-168 869,-174 863,-180 857,-180"/>
<text text-anchor="middle" x="814" y="-159.5" font-family="sans" font-size="10.00" fill="#000000">select_quality_bins</text>
</g>
<!-- 32&#45;&gt;31 -->
<g id="edge36" class="edge">
<title>32&#45;&gt;31</title>
<path fill="none" stroke="#c0c0c0" stroke-width="2" d="M806.4297,-143.8314C803.1507,-135.9617 799.238,-126.5712 795.6055,-117.8533"/>
<polygon fill="#c0c0c0" stroke="#c0c0c0" stroke-width="2" points="798.7492,-116.2979 791.6722,-108.4133 792.2876,-118.9902 798.7492,-116.2979"/>
</g>
<!-- 33 -->
<g id="node34" class="node">
<title>33</title>
<path fill="none" stroke="#56a2d8" stroke-width="2" d="M830.5,-252C830.5,-252 799.5,-252 799.5,-252 793.5,-252 787.5,-246 787.5,-240 787.5,-240 787.5,-228 787.5,-228 787.5,-222 793.5,-216 799.5,-216 799.5,-216 830.5,-216 830.5,-216 836.5,-216 842.5,-222 842.5,-228 842.5,-228 842.5,-240 842.5,-240 842.5,-246 836.5,-252 830.5,-252"/>
<text text-anchor="middle" x="815" y="-231.5" font-family="sans" font-size="10.00" fill="#000000">checkm</text>
</g>
<!-- 33&#45;&gt;32 -->
<g id="edge37" class="edge">
<title>33&#45;&gt;32</title>
<path fill="none" stroke="#c0c0c0" stroke-width="2" d="M814.7477,-215.8314C814.6407,-208.131 814.5135,-198.9743 814.3947,-190.4166"/>
<polygon fill="#c0c0c0" stroke="#c0c0c0" stroke-width="2" points="817.8944,-190.3637 814.2557,-180.4133 810.8951,-190.4609 817.8944,-190.3637"/>
</g>
<!-- 34 -->
<g id="node35" class="node">
<title>34</title>
<path fill="none" stroke="#56d8c9" stroke-width="2" d="M832,-324C832,-324 802,-324 802,-324 796,-324 790,-318 790,-312 790,-312 790,-300 790,-300 790,-294 796,-288 802,-288 802,-288 832,-288 832,-288 838,-288 844,-294 844,-300 844,-300 844,-312 844,-312 844,-318 838,-324 832,-324"/>
<text text-anchor="middle" x="817" y="-303.5" font-family="sans" font-size="10.00" fill="#000000">drep</text>
</g>
<!-- 34&#45;&gt;33 -->
<g id="edge38" class="edge">
<title>34&#45;&gt;33</title>
<path fill="none" stroke="#c0c0c0" stroke-width="2" d="M816.4953,-287.8314C816.2814,-280.131 816.0271,-270.9743 815.7894,-262.4166"/>
<polygon fill="#c0c0c0" stroke="#c0c0c0" stroke-width="2" points="819.2879,-262.3122 815.5115,-252.4133 812.2906,-262.5066 819.2879,-262.3122"/>
</g>
<!-- 35 -->
<g id="node36" class="node">
<title>35</title>
<path fill="none" stroke="#d8a456" stroke-width="2" d="M845,-396C845,-396 803,-396 803,-396 797,-396 791,-390 791,-384 791,-384 791,-372 791,-372 791,-366 797,-360 803,-360 803,-360 845,-360 845,-360 851,-360 857,-366 857,-372 857,-372 857,-384 857,-384 857,-390 851,-396 845,-396"/>
<text text-anchor="middle" x="824" y="-375.5" font-family="sans" font-size="10.00" fill="#000000">metawrap</text>
</g>
<!-- 35&#45;&gt;34 -->
<g id="edge39" class="edge">
<title>35&#45;&gt;34</title>
<path fill="none" stroke="#c0c0c0" stroke-width="2" d="M822.2336,-359.8314C821.485,-352.131 820.5947,-342.9743 819.7627,-334.4166"/>
<polygon fill="#c0c0c0" stroke="#c0c0c0" stroke-width="2" points="823.2415,-334.0276 818.7902,-324.4133 816.2744,-334.7051 823.2415,-334.0276"/>
</g>
<!-- 36 -->
<g id="node37" class="node">
<title>36</title>
<path fill="none" stroke="#c6d856" stroke-width="2" d="M886,-468C886,-468 768,-468 768,-468 762,-468 756,-462 756,-456 756,-456 756,-444 756,-444 756,-438 762,-432 768,-432 768,-432 886,-432 886,-432 892,-432 898,-438 898,-444 898,-444 898,-456 898,-456 898,-462 892,-468 886,-468"/>
<text text-anchor="middle" x="827" y="-453" font-family="sans" font-size="10.00" fill="#000000">spades</text>
<text text-anchor="middle" x="827" y="-442" font-family="sans" font-size="10.00" fill="#000000">sample: test/SRR9162904</text>
</g>
<!-- 36&#45;&gt;35 -->
<g id="edge40" class="edge">
<title>36&#45;&gt;35</title>
<path fill="none" stroke="#c0c0c0" stroke-width="2" d="M826.243,-431.8314C825.9221,-424.131 825.5406,-414.9743 825.184,-406.4166"/>
<polygon fill="#c0c0c0" stroke="#c0c0c0" stroke-width="2" points="828.6806,-406.2589 824.7672,-396.4133 821.6867,-406.5503 828.6806,-406.2589"/>
</g>
<!-- 37 -->
<g id="node38" class="node">
<title>37</title>
<path fill="none" stroke="#56d87b" stroke-width="2" d="M906,-108C906,-108 876,-108 876,-108 870,-108 864,-102 864,-96 864,-96 864,-84 864,-84 864,-78 870,-72 876,-72 876,-72 906,-72 906,-72 912,-72 918,-78 918,-84 918,-84 918,-96 918,-96 918,-102 912,-108 906,-108"/>
<text text-anchor="middle" x="891" y="-87.5" font-family="sans" font-size="10.00" fill="#000000">gtdbtk</text>
</g>
<!-- 37&#45;&gt;0 -->
<g id="edge7" class="edge">
<title>37&#45;&gt;0</title>
<path fill="none" stroke="#c0c0c0" stroke-width="2" d="M863.6527,-77.4586C837.763,-65.5856 798.7254,-47.683 770.2512,-34.6247"/>
<polygon fill="#c0c0c0" stroke="#c0c0c0" stroke-width="2" points="771.5827,-31.3849 761.0339,-30.3977 768.6647,-37.7477 771.5827,-31.3849"/>
</g>
<!-- 38 -->
<g id="node39" class="node">
<title>38</title>
<path fill="none" stroke="#78d856" stroke-width="2" d="M1009,-180C1009,-180 923,-180 923,-180 917,-180 911,-174 911,-168 911,-168 911,-156 911,-156 911,-150 917,-144 923,-144 923,-144 1009,-144 1009,-144 1015,-144 1021,-150 1021,-156 1021,-156 1021,-168 1021,-168 1021,-174 1015,-180 1009,-180"/>
<text text-anchor="middle" x="966" y="-159.5" font-family="sans" font-size="10.00" fill="#000000">select_quality_bins</text>
</g>
<!-- 38&#45;&gt;37 -->
<g id="edge41" class="edge">
<title>38&#45;&gt;37</title>
<path fill="none" stroke="#c0c0c0" stroke-width="2" d="M947.0743,-143.8314C938.0143,-135.1337 927.0191,-124.5783 917.1735,-115.1265"/>
<polygon fill="#c0c0c0" stroke="#c0c0c0" stroke-width="2" points="919.5574,-112.5633 909.9196,-108.1628 914.7096,-117.613 919.5574,-112.5633"/>
</g>
<!-- 39 -->
<g id="node40" class="node">
<title>39</title>
<path fill="none" stroke="#56a2d8" stroke-width="2" d="M983.5,-252C983.5,-252 952.5,-252 952.5,-252 946.5,-252 940.5,-246 940.5,-240 940.5,-240 940.5,-228 940.5,-228 940.5,-222 946.5,-216 952.5,-216 952.5,-216 983.5,-216 983.5,-216 989.5,-216 995.5,-222 995.5,-228 995.5,-228 995.5,-240 995.5,-240 995.5,-246 989.5,-252 983.5,-252"/>
<text text-anchor="middle" x="968" y="-231.5" font-family="sans" font-size="10.00" fill="#000000">checkm</text>
</g>
<!-- 39&#45;&gt;38 -->
<g id="edge42" class="edge">
<title>39&#45;&gt;38</title>
<path fill="none" stroke="#c0c0c0" stroke-width="2" d="M967.4953,-215.8314C967.2814,-208.131 967.0271,-198.9743 966.7894,-190.4166"/>
<polygon fill="#c0c0c0" stroke="#c0c0c0" stroke-width="2" points="970.2879,-190.3122 966.5115,-180.4133 963.2906,-190.5066 970.2879,-190.3122"/>
</g>
<!-- 40 -->
<g id="node41" class="node">
<title>40</title>
<path fill="none" stroke="#56d8c9" stroke-width="2" d="M986,-324C986,-324 956,-324 956,-324 950,-324 944,-318 944,-312 944,-312 944,-300 944,-300 944,-294 950,-288 956,-288 956,-288 986,-288 986,-288 992,-288 998,-294 998,-300 998,-300 998,-312 998,-312 998,-318 992,-324 986,-324"/>
<text text-anchor="middle" x="971" y="-303.5" font-family="sans" font-size="10.00" fill="#000000">drep</text>
</g>
<!-- 40&#45;&gt;39 -->
<g id="edge43" class="edge">
<title>40&#45;&gt;39</title>
<path fill="none" stroke="#c0c0c0" stroke-width="2" d="M970.243,-287.8314C969.9221,-280.131 969.5406,-270.9743 969.184,-262.4166"/>
<polygon fill="#c0c0c0" stroke="#c0c0c0" stroke-width="2" points="972.6806,-262.2589 968.7672,-252.4133 965.6867,-262.5503 972.6806,-262.2589"/>
</g>
<!-- 41 -->
<g id="node42" class="node">
<title>41</title>
<path fill="none" stroke="#d8a456" stroke-width="2" d="M1003,-396C1003,-396 961,-396 961,-396 955,-396 949,-390 949,-384 949,-384 949,-372 949,-372 949,-366 955,-360 961,-360 961,-360 1003,-360 1003,-360 1009,-360 1015,-366 1015,-372 1015,-372 1015,-384 1015,-384 1015,-390 1009,-396 1003,-396"/>
<text text-anchor="middle" x="982" y="-375.5" font-family="sans" font-size="10.00" fill="#000000">metawrap</text>
</g>
<!-- 41&#45;&gt;40 -->
<g id="edge44" class="edge">
<title>41&#45;&gt;40</title>
<path fill="none" stroke="#c0c0c0" stroke-width="2" d="M979.2242,-359.8314C978.0478,-352.131 976.6489,-342.9743 975.3414,-334.4166"/>
<polygon fill="#c0c0c0" stroke="#c0c0c0" stroke-width="2" points="978.7833,-333.7699 973.8131,-324.4133 971.8636,-334.8272 978.7833,-333.7699"/>
</g>
<!-- 42 -->
<g id="node43" class="node">
<title>42</title>
<path fill="none" stroke="#c6d856" stroke-width="2" d="M1046,-468C1046,-468 928,-468 928,-468 922,-468 916,-462 916,-456 916,-456 916,-444 916,-444 916,-438 922,-432 928,-432 928,-432 1046,-432 1046,-432 1052,-432 1058,-438 1058,-444 1058,-444 1058,-456 1058,-456 1058,-462 1052,-468 1046,-468"/>
<text text-anchor="middle" x="987" y="-453" font-family="sans" font-size="10.00" fill="#000000">spades</text>
<text text-anchor="middle" x="987" y="-442" font-family="sans" font-size="10.00" fill="#000000">sample: test/SRR9162900</text>
</g>
<!-- 42&#45;&gt;41 -->
<g id="edge45" class="edge">
<title>42&#45;&gt;41</title>
<path fill="none" stroke="#c0c0c0" stroke-width="2" d="M985.7383,-431.8314C985.2035,-424.131 984.5677,-414.9743 983.9734,-406.4166"/>
<polygon fill="#c0c0c0" stroke="#c0c0c0" stroke-width="2" points="987.4632,-406.1467 983.2787,-396.4133 980.48,-406.6317 987.4632,-406.1467"/>
</g>
<!-- 43 -->
<g id="node44" class="node">
<title>43</title>
<path fill="none" stroke="#56d87b" stroke-width="2" d="M1023,-108C1023,-108 993,-108 993,-108 987,-108 981,-102 981,-96 981,-96 981,-84 981,-84 981,-78 987,-72 993,-72 993,-72 1023,-72 1023,-72 1029,-72 1035,-78 1035,-84 1035,-84 1035,-96 1035,-96 1035,-102 1029,-108 1023,-108"/>
<text text-anchor="middle" x="1008" y="-87.5" font-family="sans" font-size="10.00" fill="#000000">gtdbtk</text>
</g>
<!-- 43&#45;&gt;0 -->
<g id="edge8" class="edge">
<title>43&#45;&gt;0</title>
<path fill="none" stroke="#c0c0c0" stroke-width="2" d="M980.7261,-82.8331C931.2832,-69.8408 826.8144,-42.3892 770.9958,-27.7215"/>
<polygon fill="#c0c0c0" stroke="#c0c0c0" stroke-width="2" points="771.7248,-24.2943 761.1636,-25.1379 769.9457,-31.0645 771.7248,-24.2943"/>
</g>
<!-- 44 -->
<g id="node45" class="node">
<title>44</title>
<path fill="none" stroke="#78d856" stroke-width="2" d="M1153,-180C1153,-180 1067,-180 1067,-180 1061,-180 1055,-174 1055,-168 1055,-168 1055,-156 1055,-156 1055,-150 1061,-144 1067,-144 1067,-144 1153,-144 1153,-144 1159,-144 1165,-150 1165,-156 1165,-156 1165,-168 1165,-168 1165,-174 1159,-180 1153,-180"/>
<text text-anchor="middle" x="1110" y="-159.5" font-family="sans" font-size="10.00" fill="#000000">select_quality_bins</text>
</g>
<!-- 44&#45;&gt;43 -->
<g id="edge46" class="edge">
<title>44&#45;&gt;43</title>
<path fill="none" stroke="#c0c0c0" stroke-width="2" d="M1084.2611,-143.8314C1071.4563,-134.7927 1055.8091,-123.7476 1042.0281,-114.0198"/>
<polygon fill="#c0c0c0" stroke="#c0c0c0" stroke-width="2" points="1043.9188,-111.0703 1033.7307,-108.1628 1039.882,-116.7891 1043.9188,-111.0703"/>
</g>
<!-- 45 -->
<g id="node46" class="node">
<title>45</title>
<path fill="none" stroke="#56a2d8" stroke-width="2" d="M1129.5,-252C1129.5,-252 1098.5,-252 1098.5,-252 1092.5,-252 1086.5,-246 1086.5,-240 1086.5,-240 1086.5,-228 1086.5,-228 1086.5,-222 1092.5,-216 1098.5,-216 1098.5,-216 1129.5,-216 1129.5,-216 1135.5,-216 1141.5,-222 1141.5,-228 1141.5,-228 1141.5,-240 1141.5,-240 1141.5,-246 1135.5,-252 1129.5,-252"/>
<text text-anchor="middle" x="1114" y="-231.5" font-family="sans" font-size="10.00" fill="#000000">checkm</text>
</g>
<!-- 45&#45;&gt;44 -->
<g id="edge47" class="edge">
<title>45&#45;&gt;44</title>
<path fill="none" stroke="#c0c0c0" stroke-width="2" d="M1112.9906,-215.8314C1112.5628,-208.131 1112.0541,-198.9743 1111.5787,-190.4166"/>
<polygon fill="#c0c0c0" stroke="#c0c0c0" stroke-width="2" points="1115.0724,-190.2037 1111.023,-180.4133 1108.0831,-190.592 1115.0724,-190.2037"/>
</g>
<!-- 46 -->
<g id="node47" class="node">
<title>46</title>
<path fill="none" stroke="#56d8c9" stroke-width="2" d="M1134,-324C1134,-324 1104,-324 1104,-324 1098,-324 1092,-318 1092,-312 1092,-312 1092,-300 1092,-300 1092,-294 1098,-288 1104,-288 1104,-288 1134,-288 1134,-288 1140,-288 1146,-294 1146,-300 1146,-300 1146,-312 1146,-312 1146,-318 1140,-324 1134,-324"/>
<text text-anchor="middle" x="1119" y="-303.5" font-family="sans" font-size="10.00" fill="#000000">drep</text>
</g>
<!-- 46&#45;&gt;45 -->
<g id="edge48" class="edge">
<title>46&#45;&gt;45</title>
<path fill="none" stroke="#c0c0c0" stroke-width="2" d="M1117.7383,-287.8314C1117.2035,-280.131 1116.5677,-270.9743 1115.9734,-262.4166"/>
<polygon fill="#c0c0c0" stroke="#c0c0c0" stroke-width="2" points="1119.4632,-262.1467 1115.2787,-252.4133 1112.48,-262.6317 1119.4632,-262.1467"/>
</g>
<!-- 47 -->
<g id="node48" class="node">
<title>47</title>
<path fill="none" stroke="#d8a456" stroke-width="2" d="M1159,-396C1159,-396 1117,-396 1117,-396 1111,-396 1105,-390 1105,-384 1105,-384 1105,-372 1105,-372 1105,-366 1111,-360 1117,-360 1117,-360 1159,-360 1159,-360 1165,-360 1171,-366 1171,-372 1171,-372 1171,-384 1171,-384 1171,-390 1165,-396 1159,-396"/>
<text text-anchor="middle" x="1138" y="-375.5" font-family="sans" font-size="10.00" fill="#000000">metawrap</text>
</g>
<!-- 47&#45;&gt;46 -->
<g id="edge49" class="edge">
<title>47&#45;&gt;46</title>
<path fill="none" stroke="#c0c0c0" stroke-width="2" d="M1133.2055,-359.8314C1131.1511,-352.0463 1128.704,-342.7729 1126.4244,-334.1347"/>
<polygon fill="#c0c0c0" stroke="#c0c0c0" stroke-width="2" points="1129.7948,-333.1892 1123.8591,-324.4133 1123.0265,-334.9753 1129.7948,-333.1892"/>
</g>
<!-- 48 -->
<g id="node49" class="node">
<title>48</title>
<path fill="none" stroke="#c6d856" stroke-width="2" d="M1206,-468C1206,-468 1088,-468 1088,-468 1082,-468 1076,-462 1076,-456 1076,-456 1076,-444 1076,-444 1076,-438 1082,-432 1088,-432 1088,-432 1206,-432 1206,-432 1212,-432 1218,-438 1218,-444 1218,-444 1218,-456 1218,-456 1218,-462 1212,-468 1206,-468"/>
<text text-anchor="middle" x="1147" y="-453" font-family="sans" font-size="10.00" fill="#000000">spades</text>
<text text-anchor="middle" x="1147" y="-442" font-family="sans" font-size="10.00" fill="#000000">sample: test/SRR9162899</text>
</g>
<!-- 48&#45;&gt;47 -->
<g id="edge50" class="edge">
<title>48&#45;&gt;47</title>
<path fill="none" stroke="#c0c0c0" stroke-width="2" d="M1144.7289,-431.8314C1143.7664,-424.131 1142.6218,-414.9743 1141.5521,-406.4166"/>
<polygon fill="#c0c0c0" stroke="#c0c0c0" stroke-width="2" points="1145.0151,-405.9019 1140.3017,-396.4133 1138.0691,-406.7702 1145.0151,-405.9019"/>
</g>
<!-- 49 -->
<g id="node50" class="node">
<title>49</title>
<path fill="none" stroke="#56d87b" stroke-width="2" d="M1146,-108C1146,-108 1116,-108 1116,-108 1110,-108 1104,-102 1104,-96 1104,-96 1104,-84 1104,-84 1104,-78 1110,-72 1116,-72 1116,-72 1146,-72 1146,-72 1152,-72 1158,-78 1158,-84 1158,-84 1158,-96 1158,-96 1158,-102 1152,-108 1146,-108"/>
<text text-anchor="middle" x="1131" y="-87.5" font-family="sans" font-size="10.00" fill="#000000">gtdbtk</text>
</g>
<!-- 49&#45;&gt;0 -->
<g id="edge9" class="edge">
<title>49&#45;&gt;0</title>
<path fill="none" stroke="#c0c0c0" stroke-width="2" d="M1103.6156,-84.1034C1086.5057,-80.4765 1064.0001,-75.8099 1044,-72 945.7378,-53.2815 829.4495,-33.7144 771.1904,-24.0887"/>
<polygon fill="#c0c0c0" stroke="#c0c0c0" stroke-width="2" points="771.4411,-20.5828 761.0049,-22.4095 770.3023,-27.4896 771.4411,-20.5828"/>
</g>
<!-- 50 -->
<g id="node51" class="node">
<title>50</title>
<path fill="none" stroke="#78d856" stroke-width="2" d="M1289,-180C1289,-180 1203,-180 1203,-180 1197,-180 1191,-174 1191,-168 1191,-168 1191,-156 1191,-156 1191,-150 1197,-144 1203,-144 1203,-144 1289,-144 1289,-144 1295,-144 1301,-150 1301,-156 1301,-156 1301,-168 1301,-168 1301,-174 1295,-180 1289,-180"/>
<text text-anchor="middle" x="1246" y="-159.5" font-family="sans" font-size="10.00" fill="#000000">select_quality_bins</text>
</g>
<!-- 50&#45;&gt;49 -->
<g id="edge51" class="edge">
<title>50&#45;&gt;49</title>
<path fill="none" stroke="#c0c0c0" stroke-width="2" d="M1216.9806,-143.8314C1201.71,-134.2706 1182.8539,-122.4651 1166.6949,-112.3481"/>
<polygon fill="#c0c0c0" stroke="#c0c0c0" stroke-width="2" points="1168.3682,-109.2664 1158.0351,-106.9263 1164.6536,-115.1995 1168.3682,-109.2664"/>
</g>
<!-- 51 -->
<g id="node52" class="node">
<title>51</title>
<path fill="none" stroke="#56a2d8" stroke-width="2" d="M1291.5,-252C1291.5,-252 1260.5,-252 1260.5,-252 1254.5,-252 1248.5,-246 1248.5,-240 1248.5,-240 1248.5,-228 1248.5,-228 1248.5,-222 1254.5,-216 1260.5,-216 1260.5,-216 1291.5,-216 1291.5,-216 1297.5,-216 1303.5,-222 1303.5,-228 1303.5,-228 1303.5,-240 1303.5,-240 1303.5,-246 1297.5,-252 1291.5,-252"/>
<text text-anchor="middle" x="1276" y="-231.5" font-family="sans" font-size="10.00" fill="#000000">checkm</text>
</g>
<!-- 51&#45;&gt;50 -->
<g id="edge52" class="edge">
<title>51&#45;&gt;50</title>
<path fill="none" stroke="#c0c0c0" stroke-width="2" d="M1268.4297,-215.8314C1265.1507,-207.9617 1261.238,-198.5712 1257.6055,-189.8533"/>
<polygon fill="#c0c0c0" stroke="#c0c0c0" stroke-width="2" points="1260.7492,-188.2979 1253.6722,-180.4133 1254.2876,-190.9902 1260.7492,-188.2979"/>
</g>
<!-- 52 -->
<g id="node53" class="node">
<title>52</title>
<path fill="none" stroke="#56d8c9" stroke-width="2" d="M1314,-324C1314,-324 1284,-324 1284,-324 1278,-324 1272,-318 1272,-312 1272,-312 1272,-300 1272,-300 1272,-294 1278,-288 1284,-288 1284,-288 1314,-288 1314,-288 1320,-288 1326,-294 1326,-300 1326,-300 1326,-312 1326,-312 1326,-318 1320,-324 1314,-324"/>
<text text-anchor="middle" x="1299" y="-303.5" font-family="sans" font-size="10.00" fill="#000000">drep</text>
</g>
<!-- 52&#45;&gt;51 -->
<g id="edge53" class="edge">
<title>52&#45;&gt;51</title>
<path fill="none" stroke="#c0c0c0" stroke-width="2" d="M1293.1961,-287.8314C1290.7092,-280.0463 1287.7469,-270.7729 1284.9875,-262.1347"/>
<polygon fill="#c0c0c0" stroke="#c0c0c0" stroke-width="2" points="1288.2591,-260.874 1281.882,-252.4133 1281.591,-263.0041 1288.2591,-260.874"/>
</g>
<!-- 53 -->
<g id="node54" class="node">
<title>53</title>
<path fill="none" stroke="#d8a456" stroke-width="2" d="M1321,-396C1321,-396 1279,-396 1279,-396 1273,-396 1267,-390 1267,-384 1267,-384 1267,-372 1267,-372 1267,-366 1273,-360 1279,-360 1279,-360 1321,-360 1321,-360 1327,-360 1333,-366 1333,-372 1333,-372 1333,-384 1333,-384 1333,-390 1327,-396 1321,-396"/>
<text text-anchor="middle" x="1300" y="-375.5" font-family="sans" font-size="10.00" fill="#000000">metawrap</text>
</g>
<!-- 53&#45;&gt;52 -->
<g id="edge54" class="edge">
<title>53&#45;&gt;52</title>
<path fill="none" stroke="#c0c0c0" stroke-width="2" d="M1299.7477,-359.8314C1299.6407,-352.131 1299.5135,-342.9743 1299.3947,-334.4166"/>
<polygon fill="#c0c0c0" stroke="#c0c0c0" stroke-width="2" points="1302.8944,-334.3637 1299.2557,-324.4133 1295.8951,-334.4609 1302.8944,-334.3637"/>
</g>
<!-- 54 -->
<g id="node55" class="node">
<title>54</title>
<path fill="none" stroke="#c6d856" stroke-width="2" d="M1366,-468C1366,-468 1248,-468 1248,-468 1242,-468 1236,-462 1236,-456 1236,-456 1236,-444 1236,-444 1236,-438 1242,-432 1248,-432 1248,-432 1366,-432 1366,-432 1372,-432 1378,-438 1378,-444 1378,-444 1378,-456 1378,-456 1378,-462 1372,-468 1366,-468"/>
<text text-anchor="middle" x="1307" y="-453" font-family="sans" font-size="10.00" fill="#000000">spades</text>
<text text-anchor="middle" x="1307" y="-442" font-family="sans" font-size="10.00" fill="#000000">sample: test/SRR9162902</text>
</g>
<!-- 54&#45;&gt;53 -->
<g id="edge55" class="edge">
<title>54&#45;&gt;53</title>
<path fill="none" stroke="#c0c0c0" stroke-width="2" d="M1305.2336,-431.8314C1304.485,-424.131 1303.5947,-414.9743 1302.7627,-406.4166"/>
<polygon fill="#c0c0c0" stroke="#c0c0c0" stroke-width="2" points="1306.2415,-406.0276 1301.7902,-396.4133 1299.2744,-406.7051 1306.2415,-406.0276"/>
</g>
<!-- 55 -->
<g id="node56" class="node">
<title>55</title>
<path fill="none" stroke="#56d87b" stroke-width="2" d="M1271,-108C1271,-108 1241,-108 1241,-108 1235,-108 1229,-102 1229,-96 1229,-96 1229,-84 1229,-84 1229,-78 1235,-72 1241,-72 1241,-72 1271,-72 1271,-72 1277,-72 1283,-78 1283,-84 1283,-84 1283,-96 1283,-96 1283,-102 1277,-108 1271,-108"/>
<text text-anchor="middle" x="1256" y="-87.5" font-family="sans" font-size="10.00" fill="#000000">gtdbtk</text>
</g>
<!-- 55&#45;&gt;0 -->
<g id="edge10" class="edge">
<title>55&#45;&gt;0</title>
<path fill="none" stroke="#c0c0c0" stroke-width="2" d="M1228.8312,-83.9511C1211.2557,-80.1755 1187.8481,-75.4033 1167,-72 1021.6262,-48.2691 847.2955,-29.4353 771.8569,-21.7494"/>
<polygon fill="#c0c0c0" stroke="#c0c0c0" stroke-width="2" points="771.761,-18.2219 761.4594,-20.6971 771.0561,-25.1864 771.761,-18.2219"/>
</g>
<!-- 56 -->
<g id="node57" class="node">
<title>56</title>
<path fill="none" stroke="#78d856" stroke-width="2" d="M1421,-180C1421,-180 1335,-180 1335,-180 1329,-180 1323,-174 1323,-168 1323,-168 1323,-156 1323,-156 1323,-150 1329,-144 1335,-144 1335,-144 1421,-144 1421,-144 1427,-144 1433,-150 1433,-156 1433,-156 1433,-168 1433,-168 1433,-174 1427,-180 1421,-180"/>
<text text-anchor="middle" x="1378" y="-159.5" font-family="sans" font-size="10.00" fill="#000000">select_quality_bins</text>
</g>
<!-- 56&#45;&gt;55 -->
<g id="edge56" class="edge">
<title>56&#45;&gt;55</title>
<path fill="none" stroke="#c0c0c0" stroke-width="2" d="M1347.2142,-143.8314C1330.3832,-133.8983 1309.4465,-121.5422 1291.8783,-111.1741"/>
<polygon fill="#c0c0c0" stroke="#c0c0c0" stroke-width="2" points="1293.4289,-108.0251 1283.0379,-105.9568 1289.8711,-114.0536 1293.4289,-108.0251"/>
</g>
<!-- 57 -->
<g id="node58" class="node">
<title>57</title>
<path fill="none" stroke="#56a2d8" stroke-width="2" d="M1393.5,-252C1393.5,-252 1362.5,-252 1362.5,-252 1356.5,-252 1350.5,-246 1350.5,-240 1350.5,-240 1350.5,-228 1350.5,-228 1350.5,-222 1356.5,-216 1362.5,-216 1362.5,-216 1393.5,-216 1393.5,-216 1399.5,-216 1405.5,-222 1405.5,-228 1405.5,-228 1405.5,-240 1405.5,-240 1405.5,-246 1399.5,-252 1393.5,-252"/>
<text text-anchor="middle" x="1378" y="-231.5" font-family="sans" font-size="10.00" fill="#000000">checkm</text>
</g>
<!-- 57&#45;&gt;56 -->
<g id="edge57" class="edge">
<title>57&#45;&gt;56</title>
<path fill="none" stroke="#c0c0c0" stroke-width="2" d="M1378,-215.8314C1378,-208.131 1378,-198.9743 1378,-190.4166"/>
<polygon fill="#c0c0c0" stroke="#c0c0c0" stroke-width="2" points="1381.5001,-190.4132 1378,-180.4133 1374.5001,-190.4133 1381.5001,-190.4132"/>
</g>
<!-- 58 -->
<g id="node59" class="node">
<title>58</title>
<path fill="none" stroke="#56d8c9" stroke-width="2" d="M1401,-324C1401,-324 1371,-324 1371,-324 1365,-324 1359,-318 1359,-312 1359,-312 1359,-300 1359,-300 1359,-294 1365,-288 1371,-288 1371,-288 1401,-288 1401,-288 1407,-288 1413,-294 1413,-300 1413,-300 1413,-312 1413,-312 1413,-318 1407,-324 1401,-324"/>
<text text-anchor="middle" x="1386" y="-303.5" font-family="sans" font-size="10.00" fill="#000000">drep</text>
</g>
<!-- 58&#45;&gt;57 -->
<g id="edge58" class="edge">
<title>58&#45;&gt;57</title>
<path fill="none" stroke="#c0c0c0" stroke-width="2" d="M1383.9813,-287.8314C1383.1257,-280.131 1382.1083,-270.9743 1381.1574,-262.4166"/>
<polygon fill="#c0c0c0" stroke="#c0c0c0" stroke-width="2" points="1384.6289,-261.9656 1380.0459,-252.4133 1377.6717,-262.7386 1384.6289,-261.9656"/>
</g>
<!-- 59 -->
<g id="node60" class="node">
<title>59</title>
<path fill="none" stroke="#d8a456" stroke-width="2" d="M1479,-396C1479,-396 1437,-396 1437,-396 1431,-396 1425,-390 1425,-384 1425,-384 1425,-372 1425,-372 1425,-366 1431,-360 1437,-360 1437,-360 1479,-360 1479,-360 1485,-360 1491,-366 1491,-372 1491,-372 1491,-384 1491,-384 1491,-390 1485,-396 1479,-396"/>
<text text-anchor="middle" x="1458" y="-375.5" font-family="sans" font-size="10.00" fill="#000000">metawrap</text>
</g>
<!-- 59&#45;&gt;58 -->
<g id="edge59" class="edge">
<title>59&#45;&gt;58</title>
<path fill="none" stroke="#c0c0c0" stroke-width="2" d="M1439.8314,-359.8314C1431.2848,-351.2848 1420.9443,-340.9443 1411.6198,-331.6198"/>
<polygon fill="#c0c0c0" stroke="#c0c0c0" stroke-width="2" points="1413.9592,-329.0095 1404.4133,-324.4133 1409.0095,-333.9592 1413.9592,-329.0095"/>
</g>
<!-- 60 -->
<g id="node61" class="node">
<title>60</title>
<path fill="none" stroke="#c6d856" stroke-width="2" d="M1526,-468C1526,-468 1408,-468 1408,-468 1402,-468 1396,-462 1396,-456 1396,-456 1396,-444 1396,-444 1396,-438 1402,-432 1408,-432 1408,-432 1526,-432 1526,-432 1532,-432 1538,-438 1538,-444 1538,-444 1538,-456 1538,-456 1538,-462 1532,-468 1526,-468"/>
<text text-anchor="middle" x="1467" y="-453" font-family="sans" font-size="10.00" fill="#000000">spades</text>
<text text-anchor="middle" x="1467" y="-442" font-family="sans" font-size="10.00" fill="#000000">sample: test/SRR9162903</text>
</g>
<!-- 60&#45;&gt;59 -->
<g id="edge60" class="edge">
<title>60&#45;&gt;59</title>
<path fill="none" stroke="#c0c0c0" stroke-width="2" d="M1464.7289,-431.8314C1463.7664,-424.131 1462.6218,-414.9743 1461.5521,-406.4166"/>
<polygon fill="#c0c0c0" stroke="#c0c0c0" stroke-width="2" points="1465.0151,-405.9019 1460.3017,-396.4133 1458.0691,-406.7702 1465.0151,-405.9019"/>
</g>
</g>
</svg>
