<?xml version="1.0" encoding="UTF-8" standalone="no"?>
<!DOCTYPE svg PUBLIC "-//W3C//DTD SVG 1.1//EN"
 "http://www.w3.org/Graphics/SVG/1.1/DTD/svg11.dtd">
<!-- Generated by graphviz version 2.40.1 (20161225.0304)
 -->
<!-- Title: snakemake_dag Pages: 1 -->
<svg width="266pt" height="692pt"
 viewBox="0.00 0.00 266.00 692.00" xmlns="http://www.w3.org/2000/svg" xmlns:xlink="http://www.w3.org/1999/xlink">
<g id="graph0" class="graph" transform="scale(1 1) rotate(0) translate(4 688)">
<title>snakemake_dag</title>
<polygon fill="#ffffff" stroke="transparent" points="-4,4 -4,-688 262,-688 262,4 -4,4"/>
<!-- 0 -->
<g id="node1" class="node">
<title>0</title>
<path fill="none" stroke="#59d856" stroke-width="2" d="M148,-36C148,-36 118,-36 118,-36 112,-36 106,-30 106,-24 106,-24 106,-12 106,-12 106,-6 112,0 118,0 118,0 148,0 148,0 154,0 160,-6 160,-12 160,-12 160,-24 160,-24 160,-30 154,-36 148,-36"/>
<text text-anchor="middle" x="133" y="-15.5" font-family="sans" font-size="10.00" fill="#000000">all</text>
</g>
<!-- 1 -->
<g id="node2" class="node">
<title>1</title>
<path fill="none" stroke="#d8bc56" stroke-width="2" d="M112,-108C112,-108 82,-108 82,-108 76,-108 70,-102 70,-96 70,-96 70,-84 70,-84 70,-78 76,-72 82,-72 82,-72 112,-72 112,-72 118,-72 124,-78 124,-84 124,-84 124,-96 124,-96 124,-102 118,-108 112,-108"/>
<text text-anchor="middle" x="97" y="-87.5" font-family="sans" font-size="10.00" fill="#000000">gtdbtk</text>
</g>
<!-- 1&#45;&gt;0 -->
<g id="edge1" class="edge">
<title>1&#45;&gt;0</title>
<path fill="none" stroke="#c0c0c0" stroke-width="2" d="M106.0843,-71.8314C110.0615,-63.8771 114.8155,-54.369 119.2139,-45.5723"/>
<polygon fill="#c0c0c0" stroke="#c0c0c0" stroke-width="2" points="122.4517,-46.9228 123.7934,-36.4133 116.1907,-43.7923 122.4517,-46.9228"/>
</g>
<!-- 2 -->
<g id="node3" class="node">
<title>2</title>
<path fill="none" stroke="#56c1d8" stroke-width="2" d="M112,-180C112,-180 26,-180 26,-180 20,-180 14,-174 14,-168 14,-168 14,-156 14,-156 14,-150 20,-144 26,-144 26,-144 112,-144 112,-144 118,-144 124,-150 124,-156 124,-156 124,-168 124,-168 124,-174 118,-180 112,-180"/>
<text text-anchor="middle" x="69" y="-159.5" font-family="sans" font-size="10.00" fill="#000000">select_quality_bins</text>
</g>
<!-- 2&#45;&gt;1 -->
<g id="edge3" class="edge">
<title>2&#45;&gt;1</title>
<path fill="none" stroke="#c0c0c0" stroke-width="2" d="M76.0656,-143.8314C79.126,-135.9617 82.7779,-126.5712 86.1682,-117.8533"/>
<polygon fill="#c0c0c0" stroke="#c0c0c0" stroke-width="2" points="89.4768,-119.0019 89.8393,-108.4133 82.9527,-116.4647 89.4768,-119.0019"/>
</g>
<!-- 3 -->
<g id="node4" class="node">
<title>3</title>
<path fill="none" stroke="#56d8c1" stroke-width="2" d="M79.5,-252C79.5,-252 48.5,-252 48.5,-252 42.5,-252 36.5,-246 36.5,-240 36.5,-240 36.5,-228 36.5,-228 36.5,-222 42.5,-216 48.5,-216 48.5,-216 79.5,-216 79.5,-216 85.5,-216 91.5,-222 91.5,-228 91.5,-228 91.5,-240 91.5,-240 91.5,-246 85.5,-252 79.5,-252"/>
<text text-anchor="middle" x="64" y="-231.5" font-family="sans" font-size="10.00" fill="#000000">checkm</text>
</g>
<!-- 3&#45;&gt;2 -->
<g id="edge4" class="edge">
<title>3&#45;&gt;2</title>
<path fill="none" stroke="#c0c0c0" stroke-width="2" d="M65.2617,-215.8314C65.7965,-208.131 66.4323,-198.9743 67.0266,-190.4166"/>
<polygon fill="#c0c0c0" stroke="#c0c0c0" stroke-width="2" points="70.52,-190.6317 67.7213,-180.4133 63.5368,-190.1467 70.52,-190.6317"/>
</g>
<!-- 4 -->
<g id="node5" class="node">
<title>4</title>
<path fill="none" stroke="#568ad8" stroke-width="2" d="M77,-324C77,-324 47,-324 47,-324 41,-324 35,-318 35,-312 35,-312 35,-300 35,-300 35,-294 41,-288 47,-288 47,-288 77,-288 77,-288 83,-288 89,-294 89,-300 89,-300 89,-312 89,-312 89,-318 83,-324 77,-324"/>
<text text-anchor="middle" x="62" y="-303.5" font-family="sans" font-size="10.00" fill="#000000">drep</text>
</g>
<!-- 4&#45;&gt;3 -->
<g id="edge5" class="edge">
<title>4&#45;&gt;3</title>
<path fill="none" stroke="#c0c0c0" stroke-width="2" d="M62.5047,-287.8314C62.7186,-280.131 62.9729,-270.9743 63.2106,-262.4166"/>
<polygon fill="#c0c0c0" stroke="#c0c0c0" stroke-width="2" points="66.7094,-262.5066 63.4885,-252.4133 59.7121,-262.3122 66.7094,-262.5066"/>
</g>
<!-- 5 -->
<g id="node6" class="node">
<title>5</title>
<path fill="none" stroke="#56d88a" stroke-width="2" d="M90,-396C90,-396 32,-396 32,-396 26,-396 20,-390 20,-384 20,-384 20,-372 20,-372 20,-366 26,-360 32,-360 32,-360 90,-360 90,-360 96,-360 102,-366 102,-372 102,-372 102,-384 102,-384 102,-390 96,-396 90,-396"/>
<text text-anchor="middle" x="61" y="-375.5" font-family="sans" font-size="10.00" fill="#000000">rename_MAG</text>
</g>
<!-- 5&#45;&gt;4 -->
<g id="edge6" class="edge">
<title>5&#45;&gt;4</title>
<path fill="none" stroke="#c0c0c0" stroke-width="2" d="M61.2523,-359.8314C61.3593,-352.131 61.4865,-342.9743 61.6053,-334.4166"/>
<polygon fill="#c0c0c0" stroke="#c0c0c0" stroke-width="2" points="65.1049,-334.4609 61.7443,-324.4133 58.1056,-334.3637 65.1049,-334.4609"/>
</g>
<!-- 6 -->
<g id="node7" class="node">
<title>6</title>
<path fill="none" stroke="#d88d56" stroke-width="2" d="M87,-468C87,-468 33,-468 33,-468 27,-468 21,-462 21,-456 21,-456 21,-444 21,-444 21,-438 27,-432 33,-432 33,-432 87,-432 87,-432 93,-432 99,-438 99,-444 99,-444 99,-456 99,-456 99,-462 93,-468 87,-468"/>
<text text-anchor="middle" x="60" y="-447.5" font-family="sans" font-size="10.00" fill="#000000">refine_MAGS</text>
</g>
<!-- 6&#45;&gt;5 -->
<g id="edge7" class="edge">
<title>6&#45;&gt;5</title>
<path fill="none" stroke="#c0c0c0" stroke-width="2" d="M60.2523,-431.8314C60.3593,-424.131 60.4865,-414.9743 60.6053,-406.4166"/>
<polygon fill="#c0c0c0" stroke="#c0c0c0" stroke-width="2" points="64.1049,-406.4609 60.7443,-396.4133 57.1056,-406.3637 64.1049,-406.4609"/>
</g>
<!-- 7 -->
<g id="node8" class="node">
<title>7</title>
<path fill="none" stroke="#d85656" stroke-width="2" d="M81,-540C81,-540 39,-540 39,-540 33,-540 27,-534 27,-528 27,-528 27,-516 27,-516 27,-510 33,-504 39,-504 39,-504 81,-504 81,-504 87,-504 93,-510 93,-516 93,-516 93,-528 93,-528 93,-534 87,-540 81,-540"/>
<text text-anchor="middle" x="60" y="-519.5" font-family="sans" font-size="10.00" fill="#000000">metawrap</text>
</g>
<!-- 7&#45;&gt;6 -->
<g id="edge8" class="edge">
<title>7&#45;&gt;6</title>
<path fill="none" stroke="#c0c0c0" stroke-width="2" d="M60,-503.8314C60,-496.131 60,-486.9743 60,-478.4166"/>
<polygon fill="#c0c0c0" stroke="#c0c0c0" stroke-width="2" points="63.5001,-478.4132 60,-468.4133 56.5001,-478.4133 63.5001,-478.4132"/>
</g>
<!-- 8 -->
<g id="node9" class="node">
<title>8</title>
<path fill="none" stroke="#88d856" stroke-width="2" d="M85.5,-612C85.5,-612 34.5,-612 34.5,-612 28.5,-612 22.5,-606 22.5,-600 22.5,-600 22.5,-588 22.5,-588 22.5,-582 28.5,-576 34.5,-576 34.5,-576 85.5,-576 85.5,-576 91.5,-576 97.5,-582 97.5,-588 97.5,-588 97.5,-600 97.5,-600 97.5,-606 91.5,-612 85.5,-612"/>
<text text-anchor="middle" x="60" y="-591.5" font-family="sans" font-size="10.00" fill="#000000">unzip_reads</text>
</g>
<!-- 8&#45;&gt;7 -->
<g id="edge9" class="edge">
<title>8&#45;&gt;7</title>
<path fill="none" stroke="#c0c0c0" stroke-width="2" d="M60,-575.8314C60,-568.131 60,-558.9743 60,-550.4166"/>
<polygon fill="#c0c0c0" stroke="#c0c0c0" stroke-width="2" points="63.5001,-550.4132 60,-540.4133 56.5001,-550.4133 63.5001,-550.4132"/>
</g>
<!-- 9 -->
<g id="node10" class="node">
<title>9</title>
<path fill="none" stroke="#bed856" stroke-width="2" stroke-dasharray="5,2" d="M108,-684C108,-684 12,-684 12,-684 6,-684 0,-678 0,-672 0,-672 0,-660 0,-660 0,-654 6,-648 12,-648 12,-648 108,-648 108,-648 114,-648 120,-654 120,-660 120,-660 120,-672 120,-672 120,-678 114,-684 108,-684"/>
<text text-anchor="middle" x="60" y="-669" font-family="sans" font-size="10.00" fill="#000000">spades</text>
<text text-anchor="middle" x="60" y="-658" font-family="sans" font-size="10.00" fill="#000000">sample: SRR9162907</text>
</g>
<!-- 9&#45;&gt;8 -->
<g id="edge10" class="edge">
<title>9&#45;&gt;8</title>
<path fill="none" stroke="#c0c0c0" stroke-width="2" d="M60,-647.8314C60,-640.131 60,-630.9743 60,-622.4166"/>
<polygon fill="#c0c0c0" stroke="#c0c0c0" stroke-width="2" points="63.5001,-622.4132 60,-612.4133 56.5001,-622.4133 63.5001,-622.4132"/>
</g>
<!-- 10 -->
<g id="node11" class="node">
<title>10</title>
<path fill="none" stroke="#d8bc56" stroke-width="2" d="M198,-108C198,-108 168,-108 168,-108 162,-108 156,-102 156,-96 156,-96 156,-84 156,-84 156,-78 162,-72 168,-72 168,-72 198,-72 198,-72 204,-72 210,-78 210,-84 210,-84 210,-96 210,-96 210,-102 204,-108 198,-108"/>
<text text-anchor="middle" x="183" y="-87.5" font-family="sans" font-size="10.00" fill="#000000">gtdbtk</text>
</g>
<!-- 10&#45;&gt;0 -->
<g id="edge2" class="edge">
<title>10&#45;&gt;0</title>
<path fill="none" stroke="#c0c0c0" stroke-width="2" d="M170.3829,-71.8314C164.6828,-63.6232 157.8337,-53.7606 151.5641,-44.7323"/>
<polygon fill="#c0c0c0" stroke="#c0c0c0" stroke-width="2" points="154.3658,-42.6306 145.787,-36.4133 148.6162,-46.6234 154.3658,-42.6306"/>
</g>
<!-- 11 -->
<g id="node12" class="node">
<title>11</title>
<path fill="none" stroke="#56c1d8" stroke-width="2" d="M240,-180C240,-180 154,-180 154,-180 148,-180 142,-174 142,-168 142,-168 142,-156 142,-156 142,-150 148,-144 154,-144 154,-144 240,-144 240,-144 246,-144 252,-150 252,-156 252,-156 252,-168 252,-168 252,-174 246,-180 240,-180"/>
<text text-anchor="middle" x="197" y="-159.5" font-family="sans" font-size="10.00" fill="#000000">select_quality_bins</text>
</g>
<!-- 11&#45;&gt;10 -->
<g id="edge11" class="edge">
<title>11&#45;&gt;10</title>
<path fill="none" stroke="#c0c0c0" stroke-width="2" d="M193.4672,-143.8314C191.9699,-136.131 190.1895,-126.9743 188.5255,-118.4166"/>
<polygon fill="#c0c0c0" stroke="#c0c0c0" stroke-width="2" points="191.9248,-117.5614 186.5804,-108.4133 185.0535,-118.8975 191.9248,-117.5614"/>
</g>
<!-- 12 -->
<g id="node13" class="node">
<title>12</title>
<path fill="none" stroke="#56d8c1" stroke-width="2" d="M212.5,-252C212.5,-252 181.5,-252 181.5,-252 175.5,-252 169.5,-246 169.5,-240 169.5,-240 169.5,-228 169.5,-228 169.5,-222 175.5,-216 181.5,-216 181.5,-216 212.5,-216 212.5,-216 218.5,-216 224.5,-222 224.5,-228 224.5,-228 224.5,-240 224.5,-240 224.5,-246 218.5,-252 212.5,-252"/>
<text text-anchor="middle" x="197" y="-231.5" font-family="sans" font-size="10.00" fill="#000000">checkm</text>
</g>
<!-- 12&#45;&gt;11 -->
<g id="edge12" class="edge">
<title>12&#45;&gt;11</title>
<path fill="none" stroke="#c0c0c0" stroke-width="2" d="M197,-215.8314C197,-208.131 197,-198.9743 197,-190.4166"/>
<polygon fill="#c0c0c0" stroke="#c0c0c0" stroke-width="2" points="200.5001,-190.4132 197,-180.4133 193.5001,-190.4133 200.5001,-190.4132"/>
</g>
<!-- 13 -->
<g id="node14" class="node">
<title>13</title>
<path fill="none" stroke="#568ad8" stroke-width="2" d="M212,-324C212,-324 182,-324 182,-324 176,-324 170,-318 170,-312 170,-312 170,-300 170,-300 170,-294 176,-288 182,-288 182,-288 212,-288 212,-288 218,-288 224,-294 224,-300 224,-300 224,-312 224,-312 224,-318 218,-324 212,-324"/>
<text text-anchor="middle" x="197" y="-303.5" font-family="sans" font-size="10.00" fill="#000000">drep</text>
</g>
<!-- 13&#45;&gt;12 -->
<g id="edge13" class="edge">
<title>13&#45;&gt;12</title>
<path fill="none" stroke="#c0c0c0" stroke-width="2" d="M197,-287.8314C197,-280.131 197,-270.9743 197,-262.4166"/>
<polygon fill="#c0c0c0" stroke="#c0c0c0" stroke-width="2" points="200.5001,-262.4132 197,-252.4133 193.5001,-262.4133 200.5001,-262.4132"/>
</g>
<!-- 14 -->
<g id="node15" class="node">
<title>14</title>
<path fill="none" stroke="#56d88a" stroke-width="2" d="M226,-396C226,-396 168,-396 168,-396 162,-396 156,-390 156,-384 156,-384 156,-372 156,-372 156,-366 162,-360 168,-360 168,-360 226,-360 226,-360 232,-360 238,-366 238,-372 238,-372 238,-384 238,-384 238,-390 232,-396 226,-396"/>
<text text-anchor="middle" x="197" y="-375.5" font-family="sans" font-size="10.00" fill="#000000">rename_MAG</text>
</g>
<!-- 14&#45;&gt;13 -->
<g id="edge14" class="edge">
<title>14&#45;&gt;13</title>
<path fill="none" stroke="#c0c0c0" stroke-width="2" d="M197,-359.8314C197,-352.131 197,-342.9743 197,-334.4166"/>
<polygon fill="#c0c0c0" stroke="#c0c0c0" stroke-width="2" points="200.5001,-334.4132 197,-324.4133 193.5001,-334.4133 200.5001,-334.4132"/>
</g>
<!-- 15 -->
<g id="node16" class="node">
<title>15</title>
<path fill="none" stroke="#d88d56" stroke-width="2" d="M224,-468C224,-468 170,-468 170,-468 164,-468 158,-462 158,-456 158,-456 158,-444 158,-444 158,-438 164,-432 170,-432 170,-432 224,-432 224,-432 230,-432 236,-438 236,-444 236,-444 236,-456 236,-456 236,-462 230,-468 224,-468"/>
<text text-anchor="middle" x="197" y="-447.5" font-family="sans" font-size="10.00" fill="#000000">refine_MAGS</text>
</g>
<!-- 15&#45;&gt;14 -->
<g id="edge15" class="edge">
<title>15&#45;&gt;14</title>
<path fill="none" stroke="#c0c0c0" stroke-width="2" d="M197,-431.8314C197,-424.131 197,-414.9743 197,-406.4166"/>
<polygon fill="#c0c0c0" stroke="#c0c0c0" stroke-width="2" points="200.5001,-406.4132 197,-396.4133 193.5001,-406.4133 200.5001,-406.4132"/>
</g>
<!-- 16 -->
<g id="node17" class="node">
<title>16</title>
<path fill="none" stroke="#d85656" stroke-width="2" d="M218,-540C218,-540 176,-540 176,-540 170,-540 164,-534 164,-528 164,-528 164,-516 164,-516 164,-510 170,-504 176,-504 176,-504 218,-504 218,-504 224,-504 230,-510 230,-516 230,-516 230,-528 230,-528 230,-534 224,-540 218,-540"/>
<text text-anchor="middle" x="197" y="-519.5" font-family="sans" font-size="10.00" fill="#000000">metawrap</text>
</g>
<!-- 16&#45;&gt;15 -->
<g id="edge16" class="edge">
<title>16&#45;&gt;15</title>
<path fill="none" stroke="#c0c0c0" stroke-width="2" d="M197,-503.8314C197,-496.131 197,-486.9743 197,-478.4166"/>
<polygon fill="#c0c0c0" stroke="#c0c0c0" stroke-width="2" points="200.5001,-478.4132 197,-468.4133 193.5001,-478.4133 200.5001,-478.4132"/>
</g>
<!-- 17 -->
<g id="node18" class="node">
<title>17</title>
<path fill="none" stroke="#88d856" stroke-width="2" d="M222.5,-612C222.5,-612 171.5,-612 171.5,-612 165.5,-612 159.5,-606 159.5,-600 159.5,-600 159.5,-588 159.5,-588 159.5,-582 165.5,-576 171.5,-576 171.5,-576 222.5,-576 222.5,-576 228.5,-576 234.5,-582 234.5,-588 234.5,-588 234.5,-600 234.5,-600 234.5,-606 228.5,-612 222.5,-612"/>
<text text-anchor="middle" x="197" y="-591.5" font-family="sans" font-size="10.00" fill="#000000">unzip_reads</text>
</g>
<!-- 17&#45;&gt;16 -->
<g id="edge17" class="edge">
<title>17&#45;&gt;16</title>
<path fill="none" stroke="#c0c0c0" stroke-width="2" d="M197,-575.8314C197,-568.131 197,-558.9743 197,-550.4166"/>
<polygon fill="#c0c0c0" stroke="#c0c0c0" stroke-width="2" points="200.5001,-550.4132 197,-540.4133 193.5001,-550.4133 200.5001,-550.4132"/>
</g>
<!-- 18 -->
<g id="node19" class="node">
<title>18</title>
<path fill="none" stroke="#bed856" stroke-width="2" stroke-dasharray="5,2" d="M246,-684C246,-684 150,-684 150,-684 144,-684 138,-678 138,-672 138,-672 138,-660 138,-660 138,-654 144,-648 150,-648 150,-648 246,-648 246,-648 252,-648 258,-654 258,-660 258,-660 258,-672 258,-672 258,-678 252,-684 246,-684"/>
<text text-anchor="middle" x="198" y="-669" font-family="sans" font-size="10.00" fill="#000000">spades</text>
<text text-anchor="middle" x="198" y="-658" font-family="sans" font-size="10.00" fill="#000000">sample: SRR9162908</text>
</g>
<!-- 18&#45;&gt;17 -->
<g id="edge18" class="edge">
<title>18&#45;&gt;17</title>
<path fill="none" stroke="#c0c0c0" stroke-width="2" d="M197.7477,-647.8314C197.6407,-640.131 197.5135,-630.9743 197.3947,-622.4166"/>
<polygon fill="#c0c0c0" stroke="#c0c0c0" stroke-width="2" points="200.8944,-622.3637 197.2557,-612.4133 193.8951,-622.4609 200.8944,-622.3637"/>
</g>
</g>
</svg>
