<?xml version="1.0" encoding="UTF-8" standalone="no"?>
<!DOCTYPE svg PUBLIC "-//W3C//DTD SVG 1.1//EN"
 "http://www.w3.org/Graphics/SVG/1.1/DTD/svg11.dtd">
<!-- Generated by graphviz version 2.40.1 (20161225.0304)
 -->
<!-- Title: snakemake_dag Pages: 1 -->
<svg width="266pt" height="692pt"
 viewBox="0.00 0.00 266.00 692.00" xmlns="http://www.w3.org/2000/svg" xmlns:xlink="http://www.w3.org/1999/xlink">
<g id="graph0" class="graph" transform="scale(1 1) rotate(0) translate(4 688)">
<title>snakemake_dag</title>
<polygon fill="#ffffff" stroke="transparent" points="-4,4 -4,-688 262,-688 262,4 -4,4"/>
<!-- 0 -->
<g id="node1" class="node">
<title>0</title>
<path fill="none" stroke="#d88d56" stroke-width="2" d="M147,-36C147,-36 117,-36 117,-36 111,-36 105,-30 105,-24 105,-24 105,-12 105,-12 105,-6 111,0 117,0 117,0 147,0 147,0 153,0 159,-6 159,-12 159,-12 159,-24 159,-24 159,-30 153,-36 147,-36"/>
<text text-anchor="middle" x="132" y="-15.5" font-family="sans" font-size="10.00" fill="#000000">all</text>
</g>
<!-- 1 -->
<g id="node2" class="node">
<title>1</title>
<path fill="none" stroke="#d8bc56" stroke-width="2" d="M111.5,-108C111.5,-108 32.5,-108 32.5,-108 26.5,-108 20.5,-102 20.5,-96 20.5,-96 20.5,-84 20.5,-84 20.5,-78 26.5,-72 32.5,-72 32.5,-72 111.5,-72 111.5,-72 117.5,-72 123.5,-78 123.5,-84 123.5,-84 123.5,-96 123.5,-96 123.5,-102 117.5,-108 111.5,-108"/>
<text text-anchor="middle" x="72" y="-87.5" font-family="sans" font-size="10.00" fill="#000000">assign_taxonomy</text>
</g>
<!-- 1&#45;&gt;0 -->
<g id="edge1" class="edge">
<title>1&#45;&gt;0</title>
<path fill="none" stroke="#c0c0c0" stroke-width="2" d="M87.1405,-71.8314C94.1217,-63.454 102.5391,-53.3531 110.1876,-44.1749"/>
<polygon fill="#c0c0c0" stroke="#c0c0c0" stroke-width="2" points="112.9425,-46.3362 116.6556,-36.4133 107.5649,-41.8548 112.9425,-46.3362"/>
</g>
<!-- 2 -->
<g id="node3" class="node">
<title>2</title>
<path fill="none" stroke="#d85656" stroke-width="2" d="M112,-180C112,-180 26,-180 26,-180 20,-180 14,-174 14,-168 14,-168 14,-156 14,-156 14,-150 20,-144 26,-144 26,-144 112,-144 112,-144 118,-144 124,-150 124,-156 124,-156 124,-168 124,-168 124,-174 118,-180 112,-180"/>
<text text-anchor="middle" x="69" y="-159.5" font-family="sans" font-size="10.00" fill="#000000">select_quality_bins</text>
</g>
<!-- 2&#45;&gt;1 -->
<g id="edge3" class="edge">
<title>2&#45;&gt;1</title>
<path fill="none" stroke="#c0c0c0" stroke-width="2" d="M69.757,-143.8314C70.0779,-136.131 70.4594,-126.9743 70.816,-118.4166"/>
<polygon fill="#c0c0c0" stroke="#c0c0c0" stroke-width="2" points="74.3133,-118.5503 71.2328,-108.4133 67.3194,-118.2589 74.3133,-118.5503"/>
</g>
<!-- 3 -->
<g id="node4" class="node">
<title>3</title>
<path fill="none" stroke="#88d856" stroke-width="2" d="M94,-252C94,-252 34,-252 34,-252 28,-252 22,-246 22,-240 22,-240 22,-228 22,-228 22,-222 28,-216 34,-216 34,-216 94,-216 94,-216 100,-216 106,-222 106,-228 106,-228 106,-240 106,-240 106,-246 100,-252 94,-252"/>
<text text-anchor="middle" x="64" y="-231.5" font-family="sans" font-size="10.00" fill="#000000">quality_check</text>
</g>
<!-- 3&#45;&gt;2 -->
<g id="edge4" class="edge">
<title>3&#45;&gt;2</title>
<path fill="none" stroke="#c0c0c0" stroke-width="2" d="M65.2617,-215.8314C65.7965,-208.131 66.4323,-198.9743 67.0266,-190.4166"/>
<polygon fill="#c0c0c0" stroke="#c0c0c0" stroke-width="2" points="70.52,-190.6317 67.7213,-180.4133 63.5368,-190.1467 70.52,-190.6317"/>
</g>
<!-- 4 -->
<g id="node5" class="node">
<title>4</title>
<path fill="none" stroke="#56d88a" stroke-width="2" d="M85.5,-324C85.5,-324 38.5,-324 38.5,-324 32.5,-324 26.5,-318 26.5,-312 26.5,-312 26.5,-300 26.5,-300 26.5,-294 32.5,-288 38.5,-288 38.5,-288 85.5,-288 85.5,-288 91.5,-288 97.5,-294 97.5,-300 97.5,-300 97.5,-312 97.5,-312 97.5,-318 91.5,-324 85.5,-324"/>
<text text-anchor="middle" x="62" y="-303.5" font-family="sans" font-size="10.00" fill="#000000">dereplicate</text>
</g>
<!-- 4&#45;&gt;3 -->
<g id="edge5" class="edge">
<title>4&#45;&gt;3</title>
<path fill="none" stroke="#c0c0c0" stroke-width="2" d="M62.5047,-287.8314C62.7186,-280.131 62.9729,-270.9743 63.2106,-262.4166"/>
<polygon fill="#c0c0c0" stroke="#c0c0c0" stroke-width="2" points="66.7094,-262.5066 63.4885,-252.4133 59.7121,-262.3122 66.7094,-262.5066"/>
</g>
<!-- 5 -->
<g id="node6" class="node">
<title>5</title>
<path fill="none" stroke="#56c1d8" stroke-width="2" d="M92.5,-396C92.5,-396 29.5,-396 29.5,-396 23.5,-396 17.5,-390 17.5,-384 17.5,-384 17.5,-372 17.5,-372 17.5,-366 23.5,-360 29.5,-360 29.5,-360 92.5,-360 92.5,-360 98.5,-360 104.5,-366 104.5,-372 104.5,-372 104.5,-384 104.5,-384 104.5,-390 98.5,-396 92.5,-396"/>
<text text-anchor="middle" x="61" y="-375.5" font-family="sans" font-size="10.00" fill="#000000">rename_MAGs</text>
</g>
<!-- 5&#45;&gt;4 -->
<g id="edge6" class="edge">
<title>5&#45;&gt;4</title>
<path fill="none" stroke="#c0c0c0" stroke-width="2" d="M61.2523,-359.8314C61.3593,-352.131 61.4865,-342.9743 61.6053,-334.4166"/>
<polygon fill="#c0c0c0" stroke="#c0c0c0" stroke-width="2" points="65.1049,-334.4609 61.7443,-324.4133 58.1056,-334.3637 65.1049,-334.4609"/>
</g>
<!-- 6 -->
<g id="node7" class="node">
<title>6</title>
<path fill="none" stroke="#bed856" stroke-width="2" d="M75,-468C75,-468 45,-468 45,-468 39,-468 33,-462 33,-456 33,-456 33,-444 33,-444 33,-438 39,-432 45,-432 45,-432 75,-432 75,-432 81,-432 87,-438 87,-444 87,-444 87,-456 87,-456 87,-462 81,-468 75,-468"/>
<text text-anchor="middle" x="60" y="-447.5" font-family="sans" font-size="10.00" fill="#000000">refine</text>
</g>
<!-- 6&#45;&gt;5 -->
<g id="edge7" class="edge">
<title>6&#45;&gt;5</title>
<path fill="none" stroke="#c0c0c0" stroke-width="2" d="M60.2523,-431.8314C60.3593,-424.131 60.4865,-414.9743 60.6053,-406.4166"/>
<polygon fill="#c0c0c0" stroke="#c0c0c0" stroke-width="2" points="64.1049,-406.4609 60.7443,-396.4133 57.1056,-406.3637 64.1049,-406.4609"/>
</g>
<!-- 7 -->
<g id="node8" class="node">
<title>7</title>
<path fill="none" stroke="#568ad8" stroke-width="2" stroke-dasharray="5,2" d="M75,-540C75,-540 45,-540 45,-540 39,-540 33,-534 33,-528 33,-528 33,-516 33,-516 33,-510 39,-504 45,-504 45,-504 75,-504 75,-504 81,-504 87,-510 87,-516 87,-516 87,-528 87,-528 87,-534 81,-540 75,-540"/>
<text text-anchor="middle" x="60" y="-519.5" font-family="sans" font-size="10.00" fill="#000000">bin</text>
</g>
<!-- 7&#45;&gt;6 -->
<g id="edge8" class="edge">
<title>7&#45;&gt;6</title>
<path fill="none" stroke="#c0c0c0" stroke-width="2" d="M60,-503.8314C60,-496.131 60,-486.9743 60,-478.4166"/>
<polygon fill="#c0c0c0" stroke="#c0c0c0" stroke-width="2" points="63.5001,-478.4132 60,-468.4133 56.5001,-478.4133 63.5001,-478.4132"/>
</g>
<!-- 8 -->
<g id="node9" class="node">
<title>8</title>
<path fill="none" stroke="#59d856" stroke-width="2" stroke-dasharray="5,2" d="M85.5,-612C85.5,-612 34.5,-612 34.5,-612 28.5,-612 22.5,-606 22.5,-600 22.5,-600 22.5,-588 22.5,-588 22.5,-582 28.5,-576 34.5,-576 34.5,-576 85.5,-576 85.5,-576 91.5,-576 97.5,-582 97.5,-588 97.5,-588 97.5,-600 97.5,-600 97.5,-606 91.5,-612 85.5,-612"/>
<text text-anchor="middle" x="60" y="-591.5" font-family="sans" font-size="10.00" fill="#000000">unzip_reads</text>
</g>
<!-- 8&#45;&gt;7 -->
<g id="edge9" class="edge">
<title>8&#45;&gt;7</title>
<path fill="none" stroke="#c0c0c0" stroke-width="2" d="M60,-575.8314C60,-568.131 60,-558.9743 60,-550.4166"/>
<polygon fill="#c0c0c0" stroke="#c0c0c0" stroke-width="2" points="63.5001,-550.4132 60,-540.4133 56.5001,-550.4133 63.5001,-550.4132"/>
</g>
<!-- 9 -->
<g id="node10" class="node">
<title>9</title>
<path fill="none" stroke="#56d8c1" stroke-width="2" stroke-dasharray="5,2" d="M108,-684C108,-684 12,-684 12,-684 6,-684 0,-678 0,-672 0,-672 0,-660 0,-660 0,-654 6,-648 12,-648 12,-648 108,-648 108,-648 114,-648 120,-654 120,-660 120,-660 120,-672 120,-672 120,-678 114,-684 108,-684"/>
<text text-anchor="middle" x="60" y="-669" font-family="sans" font-size="10.00" fill="#000000">assemble_reads</text>
<text text-anchor="middle" x="60" y="-658" font-family="sans" font-size="10.00" fill="#000000">sample: SRR9162907</text>
</g>
<!-- 9&#45;&gt;8 -->
<g id="edge10" class="edge">
<title>9&#45;&gt;8</title>
<path fill="none" stroke="#c0c0c0" stroke-width="2" d="M60,-647.8314C60,-640.131 60,-630.9743 60,-622.4166"/>
<polygon fill="#c0c0c0" stroke="#c0c0c0" stroke-width="2" points="63.5001,-622.4132 60,-612.4133 56.5001,-622.4133 63.5001,-622.4132"/>
</g>
<!-- 10 -->
<g id="node11" class="node">
<title>10</title>
<path fill="none" stroke="#d8bc56" stroke-width="2" d="M234.5,-108C234.5,-108 155.5,-108 155.5,-108 149.5,-108 143.5,-102 143.5,-96 143.5,-96 143.5,-84 143.5,-84 143.5,-78 149.5,-72 155.5,-72 155.5,-72 234.5,-72 234.5,-72 240.5,-72 246.5,-78 246.5,-84 246.5,-84 246.5,-96 246.5,-96 246.5,-102 240.5,-108 234.5,-108"/>
<text text-anchor="middle" x="195" y="-87.5" font-family="sans" font-size="10.00" fill="#000000">assign_taxonomy</text>
</g>
<!-- 10&#45;&gt;0 -->
<g id="edge2" class="edge">
<title>10&#45;&gt;0</title>
<path fill="none" stroke="#c0c0c0" stroke-width="2" d="M179.1024,-71.8314C171.7722,-63.454 162.934,-53.3531 154.9031,-44.1749"/>
<polygon fill="#c0c0c0" stroke="#c0c0c0" stroke-width="2" points="157.3307,-41.6343 148.1116,-36.4133 152.0627,-46.2438 157.3307,-41.6343"/>
</g>
<!-- 11 -->
<g id="node12" class="node">
<title>11</title>
<path fill="none" stroke="#d85656" stroke-width="2" d="M240,-180C240,-180 154,-180 154,-180 148,-180 142,-174 142,-168 142,-168 142,-156 142,-156 142,-150 148,-144 154,-144 154,-144 240,-144 240,-144 246,-144 252,-150 252,-156 252,-156 252,-168 252,-168 252,-174 246,-180 240,-180"/>
<text text-anchor="middle" x="197" y="-159.5" font-family="sans" font-size="10.00" fill="#000000">select_quality_bins</text>
</g>
<!-- 11&#45;&gt;10 -->
<g id="edge11" class="edge">
<title>11&#45;&gt;10</title>
<path fill="none" stroke="#c0c0c0" stroke-width="2" d="M196.4953,-143.8314C196.2814,-136.131 196.0271,-126.9743 195.7894,-118.4166"/>
<polygon fill="#c0c0c0" stroke="#c0c0c0" stroke-width="2" points="199.2879,-118.3122 195.5115,-108.4133 192.2906,-118.5066 199.2879,-118.3122"/>
</g>
<!-- 12 -->
<g id="node13" class="node">
<title>12</title>
<path fill="none" stroke="#88d856" stroke-width="2" d="M227,-252C227,-252 167,-252 167,-252 161,-252 155,-246 155,-240 155,-240 155,-228 155,-228 155,-222 161,-216 167,-216 167,-216 227,-216 227,-216 233,-216 239,-222 239,-228 239,-228 239,-240 239,-240 239,-246 233,-252 227,-252"/>
<text text-anchor="middle" x="197" y="-231.5" font-family="sans" font-size="10.00" fill="#000000">quality_check</text>
</g>
<!-- 12&#45;&gt;11 -->
<g id="edge12" class="edge">
<title>12&#45;&gt;11</title>
<path fill="none" stroke="#c0c0c0" stroke-width="2" d="M197,-215.8314C197,-208.131 197,-198.9743 197,-190.4166"/>
<polygon fill="#c0c0c0" stroke="#c0c0c0" stroke-width="2" points="200.5001,-190.4132 197,-180.4133 193.5001,-190.4133 200.5001,-190.4132"/>
</g>
<!-- 13 -->
<g id="node14" class="node">
<title>13</title>
<path fill="none" stroke="#56d88a" stroke-width="2" d="M220.5,-324C220.5,-324 173.5,-324 173.5,-324 167.5,-324 161.5,-318 161.5,-312 161.5,-312 161.5,-300 161.5,-300 161.5,-294 167.5,-288 173.5,-288 173.5,-288 220.5,-288 220.5,-288 226.5,-288 232.5,-294 232.5,-300 232.5,-300 232.5,-312 232.5,-312 232.5,-318 226.5,-324 220.5,-324"/>
<text text-anchor="middle" x="197" y="-303.5" font-family="sans" font-size="10.00" fill="#000000">dereplicate</text>
</g>
<!-- 13&#45;&gt;12 -->
<g id="edge13" class="edge">
<title>13&#45;&gt;12</title>
<path fill="none" stroke="#c0c0c0" stroke-width="2" d="M197,-287.8314C197,-280.131 197,-270.9743 197,-262.4166"/>
<polygon fill="#c0c0c0" stroke="#c0c0c0" stroke-width="2" points="200.5001,-262.4132 197,-252.4133 193.5001,-262.4133 200.5001,-262.4132"/>
</g>
<!-- 14 -->
<g id="node15" class="node">
<title>14</title>
<path fill="none" stroke="#56c1d8" stroke-width="2" d="M228.5,-396C228.5,-396 165.5,-396 165.5,-396 159.5,-396 153.5,-390 153.5,-384 153.5,-384 153.5,-372 153.5,-372 153.5,-366 159.5,-360 165.5,-360 165.5,-360 228.5,-360 228.5,-360 234.5,-360 240.5,-366 240.5,-372 240.5,-372 240.5,-384 240.5,-384 240.5,-390 234.5,-396 228.5,-396"/>
<text text-anchor="middle" x="197" y="-375.5" font-family="sans" font-size="10.00" fill="#000000">rename_MAGs</text>
</g>
<!-- 14&#45;&gt;13 -->
<g id="edge14" class="edge">
<title>14&#45;&gt;13</title>
<path fill="none" stroke="#c0c0c0" stroke-width="2" d="M197,-359.8314C197,-352.131 197,-342.9743 197,-334.4166"/>
<polygon fill="#c0c0c0" stroke="#c0c0c0" stroke-width="2" points="200.5001,-334.4132 197,-324.4133 193.5001,-334.4133 200.5001,-334.4132"/>
</g>
<!-- 15 -->
<g id="node16" class="node">
<title>15</title>
<path fill="none" stroke="#bed856" stroke-width="2" d="M212,-468C212,-468 182,-468 182,-468 176,-468 170,-462 170,-456 170,-456 170,-444 170,-444 170,-438 176,-432 182,-432 182,-432 212,-432 212,-432 218,-432 224,-438 224,-444 224,-444 224,-456 224,-456 224,-462 218,-468 212,-468"/>
<text text-anchor="middle" x="197" y="-447.5" font-family="sans" font-size="10.00" fill="#000000">refine</text>
</g>
<!-- 15&#45;&gt;14 -->
<g id="edge15" class="edge">
<title>15&#45;&gt;14</title>
<path fill="none" stroke="#c0c0c0" stroke-width="2" d="M197,-431.8314C197,-424.131 197,-414.9743 197,-406.4166"/>
<polygon fill="#c0c0c0" stroke="#c0c0c0" stroke-width="2" points="200.5001,-406.4132 197,-396.4133 193.5001,-406.4133 200.5001,-406.4132"/>
</g>
<!-- 16 -->
<g id="node17" class="node">
<title>16</title>
<path fill="none" stroke="#568ad8" stroke-width="2" stroke-dasharray="5,2" d="M212,-540C212,-540 182,-540 182,-540 176,-540 170,-534 170,-528 170,-528 170,-516 170,-516 170,-510 176,-504 182,-504 182,-504 212,-504 212,-504 218,-504 224,-510 224,-516 224,-516 224,-528 224,-528 224,-534 218,-540 212,-540"/>
<text text-anchor="middle" x="197" y="-519.5" font-family="sans" font-size="10.00" fill="#000000">bin</text>
</g>
<!-- 16&#45;&gt;15 -->
<g id="edge16" class="edge">
<title>16&#45;&gt;15</title>
<path fill="none" stroke="#c0c0c0" stroke-width="2" d="M197,-503.8314C197,-496.131 197,-486.9743 197,-478.4166"/>
<polygon fill="#c0c0c0" stroke="#c0c0c0" stroke-width="2" points="200.5001,-478.4132 197,-468.4133 193.5001,-478.4133 200.5001,-478.4132"/>
</g>
<!-- 17 -->
<g id="node18" class="node">
<title>17</title>
<path fill="none" stroke="#59d856" stroke-width="2" stroke-dasharray="5,2" d="M222.5,-612C222.5,-612 171.5,-612 171.5,-612 165.5,-612 159.5,-606 159.5,-600 159.5,-600 159.5,-588 159.5,-588 159.5,-582 165.5,-576 171.5,-576 171.5,-576 222.5,-576 222.5,-576 228.5,-576 234.5,-582 234.5,-588 234.5,-588 234.5,-600 234.5,-600 234.5,-606 228.5,-612 222.5,-612"/>
<text text-anchor="middle" x="197" y="-591.5" font-family="sans" font-size="10.00" fill="#000000">unzip_reads</text>
</g>
<!-- 17&#45;&gt;16 -->
<g id="edge17" class="edge">
<title>17&#45;&gt;16</title>
<path fill="none" stroke="#c0c0c0" stroke-width="2" d="M197,-575.8314C197,-568.131 197,-558.9743 197,-550.4166"/>
<polygon fill="#c0c0c0" stroke="#c0c0c0" stroke-width="2" points="200.5001,-550.4132 197,-540.4133 193.5001,-550.4133 200.5001,-550.4132"/>
</g>
<!-- 18 -->
<g id="node19" class="node">
<title>18</title>
<path fill="none" stroke="#56d8c1" stroke-width="2" stroke-dasharray="5,2" d="M246,-684C246,-684 150,-684 150,-684 144,-684 138,-678 138,-672 138,-672 138,-660 138,-660 138,-654 144,-648 150,-648 150,-648 246,-648 246,-648 252,-648 258,-654 258,-660 258,-660 258,-672 258,-672 258,-678 252,-684 246,-684"/>
<text text-anchor="middle" x="198" y="-669" font-family="sans" font-size="10.00" fill="#000000">assemble_reads</text>
<text text-anchor="middle" x="198" y="-658" font-family="sans" font-size="10.00" fill="#000000">sample: SRR9162908</text>
</g>
<!-- 18&#45;&gt;17 -->
<g id="edge18" class="edge">
<title>18&#45;&gt;17</title>
<path fill="none" stroke="#c0c0c0" stroke-width="2" d="M197.7477,-647.8314C197.6407,-640.131 197.5135,-630.9743 197.3947,-622.4166"/>
<polygon fill="#c0c0c0" stroke="#c0c0c0" stroke-width="2" points="200.8944,-622.3637 197.2557,-612.4133 193.8951,-622.4609 200.8944,-622.3637"/>
</g>
</g>
</svg>
