<?xml version="1.0" encoding="UTF-8" standalone="no"?>
<!DOCTYPE svg PUBLIC "-//W3C//DTD SVG 1.1//EN"
 "http://www.w3.org/Graphics/SVG/1.1/DTD/svg11.dtd">
<!-- Generated by graphviz version 2.40.1 (20161225.0304)
 -->
<!-- Title: snakemake_dag Pages: 1 -->
<svg width="452pt" height="908pt"
 viewBox="0.00 0.00 451.50 908.00" xmlns="http://www.w3.org/2000/svg" xmlns:xlink="http://www.w3.org/1999/xlink">
<g id="graph0" class="graph" transform="scale(1 1) rotate(0) translate(4 904)">
<title>snakemake_dag</title>
<polygon fill="#ffffff" stroke="transparent" points="-4,4 -4,-904 447.5,-904 447.5,4 -4,4"/>
<!-- 0 -->
<g id="node1" class="node">
<title>0</title>
<path fill="none" stroke="#c6d856" stroke-width="2" d="M278,-36C278,-36 248,-36 248,-36 242,-36 236,-30 236,-24 236,-24 236,-12 236,-12 236,-6 242,0 248,0 248,0 278,0 278,0 284,0 290,-6 290,-12 290,-12 290,-24 290,-24 290,-30 284,-36 278,-36"/>
<text text-anchor="middle" x="263" y="-15.5" font-family="sans" font-size="10.00" fill="#000000">all</text>
</g>
<!-- 1 -->
<g id="node2" class="node">
<title>1</title>
<path fill="none" stroke="#56c9d8" stroke-width="2" d="M242.5,-108C242.5,-108 171.5,-108 171.5,-108 165.5,-108 159.5,-102 159.5,-96 159.5,-96 159.5,-84 159.5,-84 159.5,-78 165.5,-72 171.5,-72 171.5,-72 242.5,-72 242.5,-72 248.5,-72 254.5,-78 254.5,-84 254.5,-84 254.5,-96 254.5,-96 254.5,-102 248.5,-108 242.5,-108"/>
<text text-anchor="middle" x="207" y="-87.5" font-family="sans" font-size="10.00" fill="#000000">get_final_output</text>
</g>
<!-- 1&#45;&gt;0 -->
<g id="edge1" class="edge">
<title>1&#45;&gt;0</title>
<path fill="none" stroke="#c0c0c0" stroke-width="2" d="M221.1312,-71.8314C227.5811,-63.5386 235.3445,-53.557 242.4252,-44.4533"/>
<polygon fill="#c0c0c0" stroke="#c0c0c0" stroke-width="2" points="245.3019,-46.4556 248.6786,-36.4133 239.7764,-42.158 245.3019,-46.4556"/>
</g>
<!-- 2 -->
<g id="node3" class="node">
<title>2</title>
<path fill="none" stroke="#59d856" stroke-width="2" d="M194.5,-252C194.5,-252 99.5,-252 99.5,-252 93.5,-252 87.5,-246 87.5,-240 87.5,-240 87.5,-228 87.5,-228 87.5,-222 93.5,-216 99.5,-216 99.5,-216 194.5,-216 194.5,-216 200.5,-216 206.5,-222 206.5,-228 206.5,-228 206.5,-240 206.5,-240 206.5,-246 200.5,-252 194.5,-252"/>
<text text-anchor="middle" x="147" y="-231.5" font-family="sans" font-size="10.00" fill="#000000">copy_final_bins_over</text>
</g>
<!-- 2&#45;&gt;1 -->
<g id="edge3" class="edge">
<title>2&#45;&gt;1</title>
<path fill="none" stroke="#c0c0c0" stroke-width="2" d="M145.1813,-215.8613C144.0575,-197.0226 144.462,-167.1243 155,-144 159.8346,-133.391 167.6527,-123.5948 175.7744,-115.3414"/>
<polygon fill="#c0c0c0" stroke="#c0c0c0" stroke-width="2" points="178.4228,-117.6521 183.2416,-108.2165 173.5905,-112.5876 178.4228,-117.6521"/>
</g>
<!-- 13 -->
<g id="node14" class="node">
<title>13</title>
<path fill="none" stroke="#d8c356" stroke-width="2" d="M255.5,-180C255.5,-180 176.5,-180 176.5,-180 170.5,-180 164.5,-174 164.5,-168 164.5,-168 164.5,-156 164.5,-156 164.5,-150 170.5,-144 176.5,-144 176.5,-144 255.5,-144 255.5,-144 261.5,-144 267.5,-150 267.5,-156 267.5,-156 267.5,-168 267.5,-168 267.5,-174 261.5,-180 255.5,-180"/>
<text text-anchor="middle" x="216" y="-159.5" font-family="sans" font-size="10.00" fill="#000000">assign_taxonomy</text>
</g>
<!-- 2&#45;&gt;13 -->
<g id="edge19" class="edge">
<title>2&#45;&gt;13</title>
<path fill="none" stroke="#c0c0c0" stroke-width="2" d="M164.4116,-215.8314C172.521,-207.3694 182.3156,-197.1489 191.182,-187.8971"/>
<polygon fill="#c0c0c0" stroke="#c0c0c0" stroke-width="2" points="193.9618,-190.0549 198.354,-180.4133 188.9079,-185.2115 193.9618,-190.0549"/>
</g>
<!-- 3 -->
<g id="node4" class="node">
<title>3</title>
<path fill="none" stroke="#d8a456" stroke-width="2" d="M139.5,-396C139.5,-396 92.5,-396 92.5,-396 86.5,-396 80.5,-390 80.5,-384 80.5,-384 80.5,-372 80.5,-372 80.5,-366 86.5,-360 92.5,-360 92.5,-360 139.5,-360 139.5,-360 145.5,-360 151.5,-366 151.5,-372 151.5,-372 151.5,-384 151.5,-384 151.5,-390 145.5,-396 139.5,-396"/>
<text text-anchor="middle" x="116" y="-375.5" font-family="sans" font-size="10.00" fill="#000000">dereplicate</text>
</g>
<!-- 3&#45;&gt;2 -->
<g id="edge5" class="edge">
<title>3&#45;&gt;2</title>
<path fill="none" stroke="#c0c0c0" stroke-width="2" d="M113.614,-359.7189C111.805,-341.2815 110.5942,-312.167 117,-288 119.5022,-278.5599 124.0202,-269.003 128.8034,-260.6069"/>
<polygon fill="#c0c0c0" stroke="#c0c0c0" stroke-width="2" points="131.8227,-262.3779 134.0148,-252.0123 125.8371,-258.7484 131.8227,-262.3779"/>
</g>
<!-- 12 -->
<g id="node13" class="node">
<title>12</title>
<path fill="none" stroke="#56d8a2" stroke-width="2" d="M224,-324C224,-324 138,-324 138,-324 132,-324 126,-318 126,-312 126,-312 126,-300 126,-300 126,-294 132,-288 138,-288 138,-288 224,-288 224,-288 230,-288 236,-294 236,-300 236,-300 236,-312 236,-312 236,-318 230,-324 224,-324"/>
<text text-anchor="middle" x="181" y="-303.5" font-family="sans" font-size="10.00" fill="#000000">select_quality_bins</text>
</g>
<!-- 3&#45;&gt;12 -->
<g id="edge18" class="edge">
<title>3&#45;&gt;12</title>
<path fill="none" stroke="#c0c0c0" stroke-width="2" d="M132.4022,-359.8314C140.0415,-351.3694 149.2683,-341.1489 157.6207,-331.8971"/>
<polygon fill="#c0c0c0" stroke="#c0c0c0" stroke-width="2" points="160.2738,-334.1813 164.3769,-324.4133 155.0779,-329.4906 160.2738,-334.1813"/>
</g>
<!-- 4 -->
<g id="node5" class="node">
<title>4</title>
<path fill="none" stroke="#567bd8" stroke-width="2" d="M106.5,-612C106.5,-612 43.5,-612 43.5,-612 37.5,-612 31.5,-606 31.5,-600 31.5,-600 31.5,-588 31.5,-588 31.5,-582 37.5,-576 43.5,-576 43.5,-576 106.5,-576 106.5,-576 112.5,-576 118.5,-582 118.5,-588 118.5,-588 118.5,-600 118.5,-600 118.5,-606 112.5,-612 106.5,-612"/>
<text text-anchor="middle" x="75" y="-591.5" font-family="sans" font-size="10.00" fill="#000000">rename_MAGs</text>
</g>
<!-- 4&#45;&gt;3 -->
<g id="edge7" class="edge">
<title>4&#45;&gt;3</title>
<path fill="none" stroke="#c0c0c0" stroke-width="2" d="M73.4567,-575.5474C71.4866,-544.9732 69.9426,-482.2026 85,-432 87.828,-422.5711 92.5666,-413.0175 97.4987,-404.6209"/>
<polygon fill="#c0c0c0" stroke="#c0c0c0" stroke-width="2" points="100.5359,-406.3646 102.8452,-396.0245 94.5917,-402.6676 100.5359,-406.3646"/>
</g>
<!-- 11 -->
<g id="node12" class="node">
<title>11</title>
<path fill="none" stroke="#56d87b" stroke-width="2" d="M170,-540C170,-540 110,-540 110,-540 104,-540 98,-534 98,-528 98,-528 98,-516 98,-516 98,-510 104,-504 110,-504 110,-504 170,-504 170,-504 176,-504 182,-510 182,-516 182,-516 182,-528 182,-528 182,-534 176,-540 170,-540"/>
<text text-anchor="middle" x="140" y="-519.5" font-family="sans" font-size="10.00" fill="#000000">quality_check</text>
</g>
<!-- 4&#45;&gt;11 -->
<g id="edge17" class="edge">
<title>4&#45;&gt;11</title>
<path fill="none" stroke="#c0c0c0" stroke-width="2" d="M91.4022,-575.8314C99.0415,-567.3694 108.2683,-557.1489 116.6207,-547.8971"/>
<polygon fill="#c0c0c0" stroke="#c0c0c0" stroke-width="2" points="119.2738,-550.1813 123.3769,-540.4133 114.0779,-545.4906 119.2738,-550.1813"/>
</g>
<!-- 5 -->
<g id="node6" class="node">
<title>5</title>
<path fill="none" stroke="#9fd856" stroke-width="2" d="M90,-684C90,-684 60,-684 60,-684 54,-684 48,-678 48,-672 48,-672 48,-660 48,-660 48,-654 54,-648 60,-648 60,-648 90,-648 90,-648 96,-648 102,-654 102,-660 102,-660 102,-672 102,-672 102,-678 96,-684 90,-684"/>
<text text-anchor="middle" x="75" y="-663.5" font-family="sans" font-size="10.00" fill="#000000">refine</text>
</g>
<!-- 5&#45;&gt;4 -->
<g id="edge9" class="edge">
<title>5&#45;&gt;4</title>
<path fill="none" stroke="#c0c0c0" stroke-width="2" d="M75,-647.8314C75,-640.131 75,-630.9743 75,-622.4166"/>
<polygon fill="#c0c0c0" stroke="#c0c0c0" stroke-width="2" points="78.5001,-622.4132 75,-612.4133 71.5001,-622.4133 78.5001,-622.4132"/>
</g>
<!-- 6 -->
<g id="node7" class="node">
<title>6</title>
<path fill="none" stroke="#78d856" stroke-width="2" stroke-dasharray="5,2" d="M118,-756C118,-756 88,-756 88,-756 82,-756 76,-750 76,-744 76,-744 76,-732 76,-732 76,-726 82,-720 88,-720 88,-720 118,-720 118,-720 124,-720 130,-726 130,-732 130,-732 130,-744 130,-744 130,-750 124,-756 118,-756"/>
<text text-anchor="middle" x="103" y="-735.5" font-family="sans" font-size="10.00" fill="#000000">bin</text>
</g>
<!-- 6&#45;&gt;5 -->
<g id="edge10" class="edge">
<title>6&#45;&gt;5</title>
<path fill="none" stroke="#c0c0c0" stroke-width="2" d="M95.9344,-719.8314C92.874,-711.9617 89.2221,-702.5712 85.8318,-693.8533"/>
<polygon fill="#c0c0c0" stroke="#c0c0c0" stroke-width="2" points="89.0473,-692.4647 82.1607,-684.4133 82.5232,-695.0019 89.0473,-692.4647"/>
</g>
<!-- 7 -->
<g id="node8" class="node">
<title>7</title>
<path fill="none" stroke="#56d8c9" stroke-width="2" stroke-dasharray="5,2" d="M84,-828C84,-828 12,-828 12,-828 6,-828 0,-822 0,-816 0,-816 0,-804 0,-804 0,-798 6,-792 12,-792 12,-792 84,-792 84,-792 90,-792 96,-798 96,-804 96,-804 96,-816 96,-816 96,-822 90,-828 84,-828"/>
<text text-anchor="middle" x="48" y="-807.5" font-family="sans" font-size="10.00" fill="#000000">assemble_reads</text>
</g>
<!-- 7&#45;&gt;5 -->
<g id="edge11" class="edge">
<title>7&#45;&gt;5</title>
<path fill="none" stroke="#c0c0c0" stroke-width="2" d="M51.4196,-791.7623C56.0451,-767.0928 64.3388,-722.8598 69.755,-693.9731"/>
<polygon fill="#c0c0c0" stroke="#c0c0c0" stroke-width="2" points="73.2053,-694.5634 71.6082,-684.0896 66.3252,-693.2733 73.2053,-694.5634"/>
</g>
<!-- 7&#45;&gt;6 -->
<g id="edge12" class="edge">
<title>7&#45;&gt;6</title>
<path fill="none" stroke="#c0c0c0" stroke-width="2" d="M61.8788,-791.8314C68.2136,-783.5386 75.8384,-773.557 82.7926,-764.4533"/>
<polygon fill="#c0c0c0" stroke="#c0c0c0" stroke-width="2" points="85.6452,-766.4847 88.9343,-756.4133 80.0825,-762.2353 85.6452,-766.4847"/>
</g>
<!-- 8 -->
<g id="node9" class="node">
<title>8</title>
<path fill="none" stroke="#d87d56" stroke-width="2" stroke-dasharray="5,2" d="M174,-900C174,-900 78,-900 78,-900 72,-900 66,-894 66,-888 66,-888 66,-876 66,-876 66,-870 72,-864 78,-864 78,-864 174,-864 174,-864 180,-864 186,-870 186,-876 186,-876 186,-888 186,-888 186,-894 180,-900 174,-900"/>
<text text-anchor="middle" x="126" y="-885" font-family="sans" font-size="10.00" fill="#000000">qc_reads</text>
<text text-anchor="middle" x="126" y="-874" font-family="sans" font-size="10.00" fill="#000000">sample: SRR9162907</text>
</g>
<!-- 8&#45;&gt;7 -->
<g id="edge14" class="edge">
<title>8&#45;&gt;7</title>
<path fill="none" stroke="#c0c0c0" stroke-width="2" d="M106.3173,-863.8314C96.8949,-855.1337 85.4599,-844.5783 75.2204,-835.1265"/>
<polygon fill="#c0c0c0" stroke="#c0c0c0" stroke-width="2" points="77.3984,-832.3738 67.6764,-828.1628 72.6505,-837.5175 77.3984,-832.3738"/>
</g>
<!-- 9 -->
<g id="node10" class="node">
<title>9</title>
<path fill="none" stroke="#56a2d8" stroke-width="2" stroke-dasharray="5,2" d="M177.5,-828C177.5,-828 126.5,-828 126.5,-828 120.5,-828 114.5,-822 114.5,-816 114.5,-816 114.5,-804 114.5,-804 114.5,-798 120.5,-792 126.5,-792 126.5,-792 177.5,-792 177.5,-792 183.5,-792 189.5,-798 189.5,-804 189.5,-804 189.5,-816 189.5,-816 189.5,-822 183.5,-828 177.5,-828"/>
<text text-anchor="middle" x="152" y="-807.5" font-family="sans" font-size="10.00" fill="#000000">unzip_reads</text>
</g>
<!-- 8&#45;&gt;9 -->
<g id="edge15" class="edge">
<title>8&#45;&gt;9</title>
<path fill="none" stroke="#c0c0c0" stroke-width="2" d="M132.5609,-863.8314C135.4027,-855.9617 138.7937,-846.5712 141.9419,-837.8533"/>
<polygon fill="#c0c0c0" stroke="#c0c0c0" stroke-width="2" points="145.2462,-839.0076 145.3508,-828.4133 138.6623,-836.63 145.2462,-839.0076"/>
</g>
<!-- 9&#45;&gt;6 -->
<g id="edge13" class="edge">
<title>9&#45;&gt;6</title>
<path fill="none" stroke="#c0c0c0" stroke-width="2" d="M139.6352,-791.8314C134.0491,-783.6232 127.337,-773.7606 121.1928,-764.7323"/>
<polygon fill="#c0c0c0" stroke="#c0c0c0" stroke-width="2" points="124.051,-762.7112 115.5313,-756.4133 118.264,-766.6496 124.051,-762.7112"/>
</g>
<!-- 10 -->
<g id="node11" class="node">
<title>10</title>
<path fill="none" stroke="#d85656" stroke-width="2" d="M181.5,-468C181.5,-468 106.5,-468 106.5,-468 100.5,-468 94.5,-462 94.5,-456 94.5,-456 94.5,-444 94.5,-444 94.5,-438 100.5,-432 106.5,-432 106.5,-432 181.5,-432 181.5,-432 187.5,-432 193.5,-438 193.5,-444 193.5,-444 193.5,-456 193.5,-456 193.5,-462 187.5,-468 181.5,-468"/>
<text text-anchor="middle" x="144" y="-447.5" font-family="sans" font-size="10.00" fill="#000000">edit_checkm_file</text>
</g>
<!-- 10&#45;&gt;3 -->
<g id="edge8" class="edge">
<title>10&#45;&gt;3</title>
<path fill="none" stroke="#c0c0c0" stroke-width="2" d="M136.9344,-431.8314C133.874,-423.9617 130.2221,-414.5712 126.8318,-405.8533"/>
<polygon fill="#c0c0c0" stroke="#c0c0c0" stroke-width="2" points="130.0473,-404.4647 123.1607,-396.4133 123.5232,-407.0019 130.0473,-404.4647"/>
</g>
<!-- 11&#45;&gt;10 -->
<g id="edge16" class="edge">
<title>11&#45;&gt;10</title>
<path fill="none" stroke="#c0c0c0" stroke-width="2" d="M141.0094,-503.8314C141.4372,-496.131 141.9459,-486.9743 142.4213,-478.4166"/>
<polygon fill="#c0c0c0" stroke="#c0c0c0" stroke-width="2" points="145.9169,-478.592 142.977,-468.4133 138.9276,-478.2037 145.9169,-478.592"/>
</g>
<!-- 12&#45;&gt;2 -->
<g id="edge6" class="edge">
<title>12&#45;&gt;2</title>
<path fill="none" stroke="#c0c0c0" stroke-width="2" d="M172.4204,-287.8314C168.6642,-279.8771 164.1743,-270.369 160.0202,-261.5723"/>
<polygon fill="#c0c0c0" stroke="#c0c0c0" stroke-width="2" points="163.1301,-259.9612 155.6952,-252.4133 156.8004,-262.9503 163.1301,-259.9612"/>
</g>
<!-- 13&#45;&gt;1 -->
<g id="edge4" class="edge">
<title>13&#45;&gt;1</title>
<path fill="none" stroke="#c0c0c0" stroke-width="2" d="M213.7289,-143.8314C212.7664,-136.131 211.6218,-126.9743 210.5521,-118.4166"/>
<polygon fill="#c0c0c0" stroke="#c0c0c0" stroke-width="2" points="214.0151,-117.9019 209.3017,-108.4133 207.0691,-118.7702 214.0151,-117.9019"/>
</g>
<!-- 14 -->
<g id="node15" class="node">
<title>14</title>
<path fill="none" stroke="#56c9d8" stroke-width="2" d="M355.5,-108C355.5,-108 284.5,-108 284.5,-108 278.5,-108 272.5,-102 272.5,-96 272.5,-96 272.5,-84 272.5,-84 272.5,-78 278.5,-72 284.5,-72 284.5,-72 355.5,-72 355.5,-72 361.5,-72 367.5,-78 367.5,-84 367.5,-84 367.5,-96 367.5,-96 367.5,-102 361.5,-108 355.5,-108"/>
<text text-anchor="middle" x="320" y="-87.5" font-family="sans" font-size="10.00" fill="#000000">get_final_output</text>
</g>
<!-- 14&#45;&gt;0 -->
<g id="edge2" class="edge">
<title>14&#45;&gt;0</title>
<path fill="none" stroke="#c0c0c0" stroke-width="2" d="M305.6165,-71.8314C299.0514,-63.5386 291.1493,-53.557 283.9422,-44.4533"/>
<polygon fill="#c0c0c0" stroke="#c0c0c0" stroke-width="2" points="286.5284,-42.0813 277.5772,-36.4133 281.0401,-46.4262 286.5284,-42.0813"/>
</g>
<!-- 15 -->
<g id="node16" class="node">
<title>15</title>
<path fill="none" stroke="#59d856" stroke-width="2" d="M374.5,-252C374.5,-252 279.5,-252 279.5,-252 273.5,-252 267.5,-246 267.5,-240 267.5,-240 267.5,-228 267.5,-228 267.5,-222 273.5,-216 279.5,-216 279.5,-216 374.5,-216 374.5,-216 380.5,-216 386.5,-222 386.5,-228 386.5,-228 386.5,-240 386.5,-240 386.5,-246 380.5,-252 374.5,-252"/>
<text text-anchor="middle" x="327" y="-231.5" font-family="sans" font-size="10.00" fill="#000000">copy_final_bins_over</text>
</g>
<!-- 15&#45;&gt;14 -->
<g id="edge20" class="edge">
<title>15&#45;&gt;14</title>
<path fill="none" stroke="#c0c0c0" stroke-width="2" d="M326.1134,-215.7623C324.9195,-191.201 322.7829,-147.2474 321.3783,-118.3541"/>
<polygon fill="#c0c0c0" stroke="#c0c0c0" stroke-width="2" points="324.8609,-117.9079 320.8794,-108.0896 317.8691,-118.2478 324.8609,-117.9079"/>
</g>
<!-- 26 -->
<g id="node27" class="node">
<title>26</title>
<path fill="none" stroke="#d8c356" stroke-width="2" d="M431.5,-180C431.5,-180 352.5,-180 352.5,-180 346.5,-180 340.5,-174 340.5,-168 340.5,-168 340.5,-156 340.5,-156 340.5,-150 346.5,-144 352.5,-144 352.5,-144 431.5,-144 431.5,-144 437.5,-144 443.5,-150 443.5,-156 443.5,-156 443.5,-168 443.5,-168 443.5,-174 437.5,-180 431.5,-180"/>
<text text-anchor="middle" x="392" y="-159.5" font-family="sans" font-size="10.00" fill="#000000">assign_taxonomy</text>
</g>
<!-- 15&#45;&gt;26 -->
<g id="edge36" class="edge">
<title>15&#45;&gt;26</title>
<path fill="none" stroke="#c0c0c0" stroke-width="2" d="M343.4022,-215.8314C351.0415,-207.3694 360.2683,-197.1489 368.6207,-187.8971"/>
<polygon fill="#c0c0c0" stroke="#c0c0c0" stroke-width="2" points="371.2738,-190.1813 375.3769,-180.4133 366.0779,-185.4906 371.2738,-190.1813"/>
</g>
<!-- 16 -->
<g id="node17" class="node">
<title>16</title>
<path fill="none" stroke="#d8a456" stroke-width="2" d="M332.5,-396C332.5,-396 285.5,-396 285.5,-396 279.5,-396 273.5,-390 273.5,-384 273.5,-384 273.5,-372 273.5,-372 273.5,-366 279.5,-360 285.5,-360 285.5,-360 332.5,-360 332.5,-360 338.5,-360 344.5,-366 344.5,-372 344.5,-372 344.5,-384 344.5,-384 344.5,-390 338.5,-396 332.5,-396"/>
<text text-anchor="middle" x="309" y="-375.5" font-family="sans" font-size="10.00" fill="#000000">dereplicate</text>
</g>
<!-- 16&#45;&gt;15 -->
<g id="edge22" class="edge">
<title>16&#45;&gt;15</title>
<path fill="none" stroke="#c0c0c0" stroke-width="2" d="M308.6979,-359.9637C308.6505,-341.7167 309.284,-312.7472 313,-288 314.2741,-279.5149 316.3431,-270.4354 318.5041,-262.1891"/>
<polygon fill="#c0c0c0" stroke="#c0c0c0" stroke-width="2" points="321.9476,-262.8679 321.2378,-252.2969 315.2005,-261.0033 321.9476,-262.8679"/>
</g>
<!-- 25 -->
<g id="node26" class="node">
<title>25</title>
<path fill="none" stroke="#56d8a2" stroke-width="2" d="M420,-324C420,-324 334,-324 334,-324 328,-324 322,-318 322,-312 322,-312 322,-300 322,-300 322,-294 328,-288 334,-288 334,-288 420,-288 420,-288 426,-288 432,-294 432,-300 432,-300 432,-312 432,-312 432,-318 426,-324 420,-324"/>
<text text-anchor="middle" x="377" y="-303.5" font-family="sans" font-size="10.00" fill="#000000">select_quality_bins</text>
</g>
<!-- 16&#45;&gt;25 -->
<g id="edge35" class="edge">
<title>16&#45;&gt;25</title>
<path fill="none" stroke="#c0c0c0" stroke-width="2" d="M326.1593,-359.8314C334.1511,-351.3694 343.8038,-341.1489 352.5416,-331.8971"/>
<polygon fill="#c0c0c0" stroke="#c0c0c0" stroke-width="2" points="355.288,-334.0866 359.6097,-324.4133 350.1989,-329.2802 355.288,-334.0866"/>
</g>
<!-- 17 -->
<g id="node18" class="node">
<title>17</title>
<path fill="none" stroke="#567bd8" stroke-width="2" d="M332.5,-612C332.5,-612 269.5,-612 269.5,-612 263.5,-612 257.5,-606 257.5,-600 257.5,-600 257.5,-588 257.5,-588 257.5,-582 263.5,-576 269.5,-576 269.5,-576 332.5,-576 332.5,-576 338.5,-576 344.5,-582 344.5,-588 344.5,-588 344.5,-600 344.5,-600 344.5,-606 338.5,-612 332.5,-612"/>
<text text-anchor="middle" x="301" y="-591.5" font-family="sans" font-size="10.00" fill="#000000">rename_MAGs</text>
</g>
<!-- 17&#45;&gt;16 -->
<g id="edge24" class="edge">
<title>17&#45;&gt;16</title>
<path fill="none" stroke="#c0c0c0" stroke-width="2" d="M298.9856,-575.9541C295.989,-545.9649 291.2901,-484.016 297,-432 297.9284,-423.5425 299.6514,-414.4715 301.5078,-406.2246"/>
<polygon fill="#c0c0c0" stroke="#c0c0c0" stroke-width="2" points="304.9527,-406.8678 303.8809,-396.3273 298.1456,-405.2356 304.9527,-406.8678"/>
</g>
<!-- 24 -->
<g id="node25" class="node">
<title>24</title>
<path fill="none" stroke="#56d87b" stroke-width="2" d="M382,-540C382,-540 322,-540 322,-540 316,-540 310,-534 310,-528 310,-528 310,-516 310,-516 310,-510 316,-504 322,-504 322,-504 382,-504 382,-504 388,-504 394,-510 394,-516 394,-516 394,-528 394,-528 394,-534 388,-540 382,-540"/>
<text text-anchor="middle" x="352" y="-519.5" font-family="sans" font-size="10.00" fill="#000000">quality_check</text>
</g>
<!-- 17&#45;&gt;24 -->
<g id="edge34" class="edge">
<title>17&#45;&gt;24</title>
<path fill="none" stroke="#c0c0c0" stroke-width="2" d="M313.8695,-575.8314C319.6835,-567.6232 326.6696,-557.7606 333.0646,-548.7323"/>
<polygon fill="#c0c0c0" stroke="#c0c0c0" stroke-width="2" points="336.0331,-550.5966 338.9573,-540.4133 330.321,-546.5505 336.0331,-550.5966"/>
</g>
<!-- 18 -->
<g id="node19" class="node">
<title>18</title>
<path fill="none" stroke="#9fd856" stroke-width="2" d="M316,-684C316,-684 286,-684 286,-684 280,-684 274,-678 274,-672 274,-672 274,-660 274,-660 274,-654 280,-648 286,-648 286,-648 316,-648 316,-648 322,-648 328,-654 328,-660 328,-660 328,-672 328,-672 328,-678 322,-684 316,-684"/>
<text text-anchor="middle" x="301" y="-663.5" font-family="sans" font-size="10.00" fill="#000000">refine</text>
</g>
<!-- 18&#45;&gt;17 -->
<g id="edge26" class="edge">
<title>18&#45;&gt;17</title>
<path fill="none" stroke="#c0c0c0" stroke-width="2" d="M301,-647.8314C301,-640.131 301,-630.9743 301,-622.4166"/>
<polygon fill="#c0c0c0" stroke="#c0c0c0" stroke-width="2" points="304.5001,-622.4132 301,-612.4133 297.5001,-622.4133 304.5001,-622.4132"/>
</g>
<!-- 19 -->
<g id="node20" class="node">
<title>19</title>
<path fill="none" stroke="#78d856" stroke-width="2" stroke-dasharray="5,2" d="M344,-756C344,-756 314,-756 314,-756 308,-756 302,-750 302,-744 302,-744 302,-732 302,-732 302,-726 308,-720 314,-720 314,-720 344,-720 344,-720 350,-720 356,-726 356,-732 356,-732 356,-744 356,-744 356,-750 350,-756 344,-756"/>
<text text-anchor="middle" x="329" y="-735.5" font-family="sans" font-size="10.00" fill="#000000">bin</text>
</g>
<!-- 19&#45;&gt;18 -->
<g id="edge27" class="edge">
<title>19&#45;&gt;18</title>
<path fill="none" stroke="#c0c0c0" stroke-width="2" d="M321.9344,-719.8314C318.874,-711.9617 315.2221,-702.5712 311.8318,-693.8533"/>
<polygon fill="#c0c0c0" stroke="#c0c0c0" stroke-width="2" points="315.0473,-692.4647 308.1607,-684.4133 308.5232,-695.0019 315.0473,-692.4647"/>
</g>
<!-- 20 -->
<g id="node21" class="node">
<title>20</title>
<path fill="none" stroke="#56d8c9" stroke-width="2" stroke-dasharray="5,2" d="M310,-828C310,-828 238,-828 238,-828 232,-828 226,-822 226,-816 226,-816 226,-804 226,-804 226,-798 232,-792 238,-792 238,-792 310,-792 310,-792 316,-792 322,-798 322,-804 322,-804 322,-816 322,-816 322,-822 316,-828 310,-828"/>
<text text-anchor="middle" x="274" y="-807.5" font-family="sans" font-size="10.00" fill="#000000">assemble_reads</text>
</g>
<!-- 20&#45;&gt;18 -->
<g id="edge28" class="edge">
<title>20&#45;&gt;18</title>
<path fill="none" stroke="#c0c0c0" stroke-width="2" d="M277.4196,-791.7623C282.0451,-767.0928 290.3388,-722.8598 295.755,-693.9731"/>
<polygon fill="#c0c0c0" stroke="#c0c0c0" stroke-width="2" points="299.2053,-694.5634 297.6082,-684.0896 292.3252,-693.2733 299.2053,-694.5634"/>
</g>
<!-- 20&#45;&gt;19 -->
<g id="edge29" class="edge">
<title>20&#45;&gt;19</title>
<path fill="none" stroke="#c0c0c0" stroke-width="2" d="M287.8788,-791.8314C294.2136,-783.5386 301.8384,-773.557 308.7926,-764.4533"/>
<polygon fill="#c0c0c0" stroke="#c0c0c0" stroke-width="2" points="311.6452,-766.4847 314.9343,-756.4133 306.0825,-762.2353 311.6452,-766.4847"/>
</g>
<!-- 21 -->
<g id="node22" class="node">
<title>21</title>
<path fill="none" stroke="#d87d56" stroke-width="2" stroke-dasharray="5,2" d="M347,-900C347,-900 251,-900 251,-900 245,-900 239,-894 239,-888 239,-888 239,-876 239,-876 239,-870 245,-864 251,-864 251,-864 347,-864 347,-864 353,-864 359,-870 359,-876 359,-876 359,-888 359,-888 359,-894 353,-900 347,-900"/>
<text text-anchor="middle" x="299" y="-885" font-family="sans" font-size="10.00" fill="#000000">qc_reads</text>
<text text-anchor="middle" x="299" y="-874" font-family="sans" font-size="10.00" fill="#000000">sample: SRR9162908</text>
</g>
<!-- 21&#45;&gt;20 -->
<g id="edge31" class="edge">
<title>21&#45;&gt;20</title>
<path fill="none" stroke="#c0c0c0" stroke-width="2" d="M292.6914,-863.8314C289.9883,-856.0463 286.7684,-846.7729 283.769,-838.1347"/>
<polygon fill="#c0c0c0" stroke="#c0c0c0" stroke-width="2" points="286.98,-836.7119 280.3935,-828.4133 280.3673,-839.0081 286.98,-836.7119"/>
</g>
<!-- 22 -->
<g id="node23" class="node">
<title>22</title>
<path fill="none" stroke="#56a2d8" stroke-width="2" stroke-dasharray="5,2" d="M403.5,-828C403.5,-828 352.5,-828 352.5,-828 346.5,-828 340.5,-822 340.5,-816 340.5,-816 340.5,-804 340.5,-804 340.5,-798 346.5,-792 352.5,-792 352.5,-792 403.5,-792 403.5,-792 409.5,-792 415.5,-798 415.5,-804 415.5,-804 415.5,-816 415.5,-816 415.5,-822 409.5,-828 403.5,-828"/>
<text text-anchor="middle" x="378" y="-807.5" font-family="sans" font-size="10.00" fill="#000000">unzip_reads</text>
</g>
<!-- 21&#45;&gt;22 -->
<g id="edge32" class="edge">
<title>21&#45;&gt;22</title>
<path fill="none" stroke="#c0c0c0" stroke-width="2" d="M318.935,-863.8314C328.4783,-855.1337 340.0599,-844.5783 350.4306,-835.1265"/>
<polygon fill="#c0c0c0" stroke="#c0c0c0" stroke-width="2" points="353.038,-837.4857 358.0713,-828.1628 348.3228,-832.3121 353.038,-837.4857"/>
</g>
<!-- 22&#45;&gt;19 -->
<g id="edge30" class="edge">
<title>22&#45;&gt;19</title>
<path fill="none" stroke="#c0c0c0" stroke-width="2" d="M365.6352,-791.8314C360.0491,-783.6232 353.337,-773.7606 347.1928,-764.7323"/>
<polygon fill="#c0c0c0" stroke="#c0c0c0" stroke-width="2" points="350.051,-762.7112 341.5313,-756.4133 344.264,-766.6496 350.051,-762.7112"/>
</g>
<!-- 23 -->
<g id="node24" class="node">
<title>23</title>
<path fill="none" stroke="#d85656" stroke-width="2" d="M393.5,-468C393.5,-468 318.5,-468 318.5,-468 312.5,-468 306.5,-462 306.5,-456 306.5,-456 306.5,-444 306.5,-444 306.5,-438 312.5,-432 318.5,-432 318.5,-432 393.5,-432 393.5,-432 399.5,-432 405.5,-438 405.5,-444 405.5,-444 405.5,-456 405.5,-456 405.5,-462 399.5,-468 393.5,-468"/>
<text text-anchor="middle" x="356" y="-447.5" font-family="sans" font-size="10.00" fill="#000000">edit_checkm_file</text>
</g>
<!-- 23&#45;&gt;16 -->
<g id="edge25" class="edge">
<title>23&#45;&gt;16</title>
<path fill="none" stroke="#c0c0c0" stroke-width="2" d="M344.1399,-431.8314C338.8371,-423.7079 332.4763,-413.9637 326.6327,-405.0118"/>
<polygon fill="#c0c0c0" stroke="#c0c0c0" stroke-width="2" points="329.4169,-402.8739 321.0198,-396.4133 323.5552,-406.7003 329.4169,-402.8739"/>
</g>
<!-- 24&#45;&gt;23 -->
<g id="edge33" class="edge">
<title>24&#45;&gt;23</title>
<path fill="none" stroke="#c0c0c0" stroke-width="2" d="M353.0094,-503.8314C353.4372,-496.131 353.9459,-486.9743 354.4213,-478.4166"/>
<polygon fill="#c0c0c0" stroke="#c0c0c0" stroke-width="2" points="357.9169,-478.592 354.977,-468.4133 350.9276,-478.2037 357.9169,-478.592"/>
</g>
<!-- 25&#45;&gt;15 -->
<g id="edge23" class="edge">
<title>25&#45;&gt;15</title>
<path fill="none" stroke="#c0c0c0" stroke-width="2" d="M364.3829,-287.8314C358.6828,-279.6232 351.8337,-269.7606 345.5641,-260.7323"/>
<polygon fill="#c0c0c0" stroke="#c0c0c0" stroke-width="2" points="348.3658,-258.6306 339.787,-252.4133 342.6162,-262.6234 348.3658,-258.6306"/>
</g>
<!-- 26&#45;&gt;14 -->
<g id="edge21" class="edge">
<title>26&#45;&gt;14</title>
<path fill="none" stroke="#c0c0c0" stroke-width="2" d="M373.8314,-143.8314C365.2848,-135.2848 354.9443,-124.9443 345.6198,-115.6198"/>
<polygon fill="#c0c0c0" stroke="#c0c0c0" stroke-width="2" points="347.9592,-113.0095 338.4133,-108.4133 343.0095,-117.9592 347.9592,-113.0095"/>
</g>
</g>
</svg>
