<?xml version="1.0" encoding="UTF-8" standalone="no"?>
<!DOCTYPE svg PUBLIC "-//W3C//DTD SVG 1.1//EN"
 "http://www.w3.org/Graphics/SVG/1.1/DTD/svg11.dtd">
<!-- Generated by graphviz version 2.40.1 (20161225.0304)
 -->
<!-- Title: snakemake_dag Pages: 1 -->
<svg width="430pt" height="836pt"
 viewBox="0.00 0.00 430.00 836.00" xmlns="http://www.w3.org/2000/svg" xmlns:xlink="http://www.w3.org/1999/xlink">
<g id="graph0" class="graph" transform="scale(1 1) rotate(0) translate(4 832)">
<title>snakemake_dag</title>
<polygon fill="#ffffff" stroke="transparent" points="-4,4 -4,-832 426,-832 426,4 -4,4"/>
<!-- 0 -->
<g id="node1" class="node">
<title>0</title>
<path fill="none" stroke="#56a9d8" stroke-width="2" d="M246,-36C246,-36 216,-36 216,-36 210,-36 204,-30 204,-24 204,-24 204,-12 204,-12 204,-6 210,0 216,0 216,0 246,0 246,0 252,0 258,-6 258,-12 258,-12 258,-24 258,-24 258,-30 252,-36 246,-36"/>
<text text-anchor="middle" x="231" y="-15.5" font-family="sans" font-size="10.00" fill="#000000">all</text>
</g>
<!-- 1 -->
<g id="node2" class="node">
<title>1</title>
<path fill="none" stroke="#56d86b" stroke-width="2" d="M210.5,-108C210.5,-108 131.5,-108 131.5,-108 125.5,-108 119.5,-102 119.5,-96 119.5,-96 119.5,-84 119.5,-84 119.5,-78 125.5,-72 131.5,-72 131.5,-72 210.5,-72 210.5,-72 216.5,-72 222.5,-78 222.5,-84 222.5,-84 222.5,-96 222.5,-96 222.5,-102 216.5,-108 210.5,-108"/>
<text text-anchor="middle" x="171" y="-87.5" font-family="sans" font-size="10.00" fill="#000000">assign_taxonomy</text>
</g>
<!-- 1&#45;&gt;0 -->
<g id="edge1" class="edge">
<title>1&#45;&gt;0</title>
<path fill="none" stroke="#c0c0c0" stroke-width="2" d="M186.1405,-71.8314C193.1217,-63.454 201.5391,-53.3531 209.1876,-44.1749"/>
<polygon fill="#c0c0c0" stroke="#c0c0c0" stroke-width="2" points="211.9425,-46.3362 215.6556,-36.4133 206.5649,-41.8548 211.9425,-46.3362"/>
</g>
<!-- 2 -->
<g id="node3" class="node">
<title>2</title>
<path fill="none" stroke="#56d8b9" stroke-width="2" d="M139.5,-180C139.5,-180 44.5,-180 44.5,-180 38.5,-180 32.5,-174 32.5,-168 32.5,-168 32.5,-156 32.5,-156 32.5,-150 38.5,-144 44.5,-144 44.5,-144 139.5,-144 139.5,-144 145.5,-144 151.5,-150 151.5,-156 151.5,-156 151.5,-168 151.5,-168 151.5,-174 145.5,-180 139.5,-180"/>
<text text-anchor="middle" x="92" y="-159.5" font-family="sans" font-size="10.00" fill="#000000">copy_final_bins_over</text>
</g>
<!-- 2&#45;&gt;1 -->
<g id="edge3" class="edge">
<title>2&#45;&gt;1</title>
<path fill="none" stroke="#c0c0c0" stroke-width="2" d="M111.935,-143.8314C121.4783,-135.1337 133.0599,-124.5783 143.4306,-115.1265"/>
<polygon fill="#c0c0c0" stroke="#c0c0c0" stroke-width="2" points="146.038,-117.4857 151.0713,-108.1628 141.3228,-112.3121 146.038,-117.4857"/>
</g>
<!-- 3 -->
<g id="node4" class="node">
<title>3</title>
<path fill="none" stroke="#68d856" stroke-width="2" d="M138.5,-324C138.5,-324 91.5,-324 91.5,-324 85.5,-324 79.5,-318 79.5,-312 79.5,-312 79.5,-300 79.5,-300 79.5,-294 85.5,-288 91.5,-288 91.5,-288 138.5,-288 138.5,-288 144.5,-288 150.5,-294 150.5,-300 150.5,-300 150.5,-312 150.5,-312 150.5,-318 144.5,-324 138.5,-324"/>
<text text-anchor="middle" x="115" y="-303.5" font-family="sans" font-size="10.00" fill="#000000">dereplicate</text>
</g>
<!-- 3&#45;&gt;2 -->
<g id="edge5" class="edge">
<title>3&#45;&gt;2</title>
<path fill="none" stroke="#c0c0c0" stroke-width="2" d="M112.087,-287.7623C108.1468,-263.0928 101.0818,-218.8598 96.4679,-189.9731"/>
<polygon fill="#c0c0c0" stroke="#c0c0c0" stroke-width="2" points="99.9228,-189.4124 94.8893,-180.0896 93.0104,-190.5165 99.9228,-189.4124"/>
</g>
<!-- 12 -->
<g id="node13" class="node">
<title>12</title>
<path fill="none" stroke="#d8cb56" stroke-width="2" d="M218,-252C218,-252 132,-252 132,-252 126,-252 120,-246 120,-240 120,-240 120,-228 120,-228 120,-222 126,-216 132,-216 132,-216 218,-216 218,-216 224,-216 230,-222 230,-228 230,-228 230,-240 230,-240 230,-246 224,-252 218,-252"/>
<text text-anchor="middle" x="175" y="-231.5" font-family="sans" font-size="10.00" fill="#000000">select_quality_bins</text>
</g>
<!-- 3&#45;&gt;12 -->
<g id="edge18" class="edge">
<title>3&#45;&gt;12</title>
<path fill="none" stroke="#c0c0c0" stroke-width="2" d="M130.1405,-287.8314C137.1217,-279.454 145.5391,-269.3531 153.1876,-260.1749"/>
<polygon fill="#c0c0c0" stroke="#c0c0c0" stroke-width="2" points="155.9425,-262.3362 159.6556,-252.4133 150.5649,-257.8548 155.9425,-262.3362"/>
</g>
<!-- 4 -->
<g id="node5" class="node">
<title>4</title>
<path fill="none" stroke="#d8a456" stroke-width="2" d="M106.5,-540C106.5,-540 43.5,-540 43.5,-540 37.5,-540 31.5,-534 31.5,-528 31.5,-528 31.5,-516 31.5,-516 31.5,-510 37.5,-504 43.5,-504 43.5,-504 106.5,-504 106.5,-504 112.5,-504 118.5,-510 118.5,-516 118.5,-516 118.5,-528 118.5,-528 118.5,-534 112.5,-540 106.5,-540"/>
<text text-anchor="middle" x="75" y="-519.5" font-family="sans" font-size="10.00" fill="#000000">rename_MAGs</text>
</g>
<!-- 4&#45;&gt;3 -->
<g id="edge7" class="edge">
<title>4&#45;&gt;3</title>
<path fill="none" stroke="#c0c0c0" stroke-width="2" d="M73.0837,-503.5371C70.5273,-472.9482 67.9151,-410.1569 83,-360 85.812,-350.6503 90.5752,-341.2308 95.5794,-332.9356"/>
<polygon fill="#c0c0c0" stroke="#c0c0c0" stroke-width="2" points="98.5792,-334.7413 101.0232,-324.4322 92.6838,-330.9671 98.5792,-334.7413"/>
</g>
<!-- 11 -->
<g id="node12" class="node">
<title>11</title>
<path fill="none" stroke="#b6d856" stroke-width="2" d="M168,-468C168,-468 108,-468 108,-468 102,-468 96,-462 96,-456 96,-456 96,-444 96,-444 96,-438 102,-432 108,-432 108,-432 168,-432 168,-432 174,-432 180,-438 180,-444 180,-444 180,-456 180,-456 180,-462 174,-468 168,-468"/>
<text text-anchor="middle" x="138" y="-447.5" font-family="sans" font-size="10.00" fill="#000000">quality_check</text>
</g>
<!-- 4&#45;&gt;11 -->
<g id="edge17" class="edge">
<title>4&#45;&gt;11</title>
<path fill="none" stroke="#c0c0c0" stroke-width="2" d="M90.8976,-503.8314C98.2278,-495.454 107.066,-485.3531 115.0969,-476.1749"/>
<polygon fill="#c0c0c0" stroke="#c0c0c0" stroke-width="2" points="117.9373,-478.2438 121.8884,-468.4133 112.6693,-473.6343 117.9373,-478.2438"/>
</g>
<!-- 5 -->
<g id="node6" class="node">
<title>5</title>
<path fill="none" stroke="#d85656" stroke-width="2" d="M90,-612C90,-612 60,-612 60,-612 54,-612 48,-606 48,-600 48,-600 48,-588 48,-588 48,-582 54,-576 60,-576 60,-576 90,-576 90,-576 96,-576 102,-582 102,-588 102,-588 102,-600 102,-600 102,-606 96,-612 90,-612"/>
<text text-anchor="middle" x="75" y="-591.5" font-family="sans" font-size="10.00" fill="#000000">refine</text>
</g>
<!-- 5&#45;&gt;4 -->
<g id="edge9" class="edge">
<title>5&#45;&gt;4</title>
<path fill="none" stroke="#c0c0c0" stroke-width="2" d="M75,-575.8314C75,-568.131 75,-558.9743 75,-550.4166"/>
<polygon fill="#c0c0c0" stroke="#c0c0c0" stroke-width="2" points="78.5001,-550.4132 75,-540.4133 71.5001,-550.4133 78.5001,-550.4132"/>
</g>
<!-- 6 -->
<g id="node7" class="node">
<title>6</title>
<path fill="none" stroke="#567bd8" stroke-width="2" stroke-dasharray="5,2" d="M118,-684C118,-684 88,-684 88,-684 82,-684 76,-678 76,-672 76,-672 76,-660 76,-660 76,-654 82,-648 88,-648 88,-648 118,-648 118,-648 124,-648 130,-654 130,-660 130,-660 130,-672 130,-672 130,-678 124,-684 118,-684"/>
<text text-anchor="middle" x="103" y="-663.5" font-family="sans" font-size="10.00" fill="#000000">bin</text>
</g>
<!-- 6&#45;&gt;5 -->
<g id="edge10" class="edge">
<title>6&#45;&gt;5</title>
<path fill="none" stroke="#c0c0c0" stroke-width="2" d="M95.9344,-647.8314C92.874,-639.9617 89.2221,-630.5712 85.8318,-621.8533"/>
<polygon fill="#c0c0c0" stroke="#c0c0c0" stroke-width="2" points="89.0473,-620.4647 82.1607,-612.4133 82.5232,-623.0019 89.0473,-620.4647"/>
</g>
<!-- 7 -->
<g id="node8" class="node">
<title>7</title>
<path fill="none" stroke="#8fd856" stroke-width="2" stroke-dasharray="5,2" d="M84,-756C84,-756 12,-756 12,-756 6,-756 0,-750 0,-744 0,-744 0,-732 0,-732 0,-726 6,-720 12,-720 12,-720 84,-720 84,-720 90,-720 96,-726 96,-732 96,-732 96,-744 96,-744 96,-750 90,-756 84,-756"/>
<text text-anchor="middle" x="48" y="-735.5" font-family="sans" font-size="10.00" fill="#000000">assemble_reads</text>
</g>
<!-- 7&#45;&gt;5 -->
<g id="edge11" class="edge">
<title>7&#45;&gt;5</title>
<path fill="none" stroke="#c0c0c0" stroke-width="2" d="M51.4196,-719.7623C56.0451,-695.0928 64.3388,-650.8598 69.755,-621.9731"/>
<polygon fill="#c0c0c0" stroke="#c0c0c0" stroke-width="2" points="73.2053,-622.5634 71.6082,-612.0896 66.3252,-621.2733 73.2053,-622.5634"/>
</g>
<!-- 7&#45;&gt;6 -->
<g id="edge12" class="edge">
<title>7&#45;&gt;6</title>
<path fill="none" stroke="#c0c0c0" stroke-width="2" d="M61.8788,-719.8314C68.2136,-711.5386 75.8384,-701.557 82.7926,-692.4533"/>
<polygon fill="#c0c0c0" stroke="#c0c0c0" stroke-width="2" points="85.6452,-694.4847 88.9343,-684.4133 80.0825,-690.2353 85.6452,-694.4847"/>
</g>
<!-- 8 -->
<g id="node9" class="node">
<title>8</title>
<path fill="none" stroke="#d87d56" stroke-width="2" stroke-dasharray="5,2" d="M175,-828C175,-828 79,-828 79,-828 73,-828 67,-822 67,-816 67,-816 67,-804 67,-804 67,-798 73,-792 79,-792 79,-792 175,-792 175,-792 181,-792 187,-798 187,-804 187,-804 187,-816 187,-816 187,-822 181,-828 175,-828"/>
<text text-anchor="middle" x="127" y="-813" font-family="sans" font-size="10.00" fill="#000000">qc_reads</text>
<text text-anchor="middle" x="127" y="-802" font-family="sans" font-size="10.00" fill="#000000">sample: SRR9162907</text>
</g>
<!-- 8&#45;&gt;7 -->
<g id="edge14" class="edge">
<title>8&#45;&gt;7</title>
<path fill="none" stroke="#c0c0c0" stroke-width="2" d="M107.065,-791.8314C97.5217,-783.1337 85.9401,-772.5783 75.5694,-763.1265"/>
<polygon fill="#c0c0c0" stroke="#c0c0c0" stroke-width="2" points="77.6772,-760.3121 67.9287,-756.1628 72.962,-765.4857 77.6772,-760.3121"/>
</g>
<!-- 9 -->
<g id="node10" class="node">
<title>9</title>
<path fill="none" stroke="#56d0d8" stroke-width="2" stroke-dasharray="5,2" d="M177.5,-756C177.5,-756 126.5,-756 126.5,-756 120.5,-756 114.5,-750 114.5,-744 114.5,-744 114.5,-732 114.5,-732 114.5,-726 120.5,-720 126.5,-720 126.5,-720 177.5,-720 177.5,-720 183.5,-720 189.5,-726 189.5,-732 189.5,-732 189.5,-744 189.5,-744 189.5,-750 183.5,-756 177.5,-756"/>
<text text-anchor="middle" x="152" y="-735.5" font-family="sans" font-size="10.00" fill="#000000">unzip_reads</text>
</g>
<!-- 8&#45;&gt;9 -->
<g id="edge15" class="edge">
<title>8&#45;&gt;9</title>
<path fill="none" stroke="#c0c0c0" stroke-width="2" d="M133.3086,-791.8314C136.0117,-784.0463 139.2316,-774.7729 142.231,-766.1347"/>
<polygon fill="#c0c0c0" stroke="#c0c0c0" stroke-width="2" points="145.6327,-767.0081 145.6065,-756.4133 139.02,-764.7119 145.6327,-767.0081"/>
</g>
<!-- 9&#45;&gt;6 -->
<g id="edge13" class="edge">
<title>9&#45;&gt;6</title>
<path fill="none" stroke="#c0c0c0" stroke-width="2" d="M139.6352,-719.8314C134.0491,-711.6232 127.337,-701.7606 121.1928,-692.7323"/>
<polygon fill="#c0c0c0" stroke="#c0c0c0" stroke-width="2" points="124.051,-690.7112 115.5313,-684.4133 118.264,-694.6496 124.051,-690.7112"/>
</g>
<!-- 10 -->
<g id="node11" class="node">
<title>10</title>
<path fill="none" stroke="#56d892" stroke-width="2" d="M179.5,-396C179.5,-396 104.5,-396 104.5,-396 98.5,-396 92.5,-390 92.5,-384 92.5,-384 92.5,-372 92.5,-372 92.5,-366 98.5,-360 104.5,-360 104.5,-360 179.5,-360 179.5,-360 185.5,-360 191.5,-366 191.5,-372 191.5,-372 191.5,-384 191.5,-384 191.5,-390 185.5,-396 179.5,-396"/>
<text text-anchor="middle" x="142" y="-375.5" font-family="sans" font-size="10.00" fill="#000000">edit_checkm_file</text>
</g>
<!-- 10&#45;&gt;3 -->
<g id="edge8" class="edge">
<title>10&#45;&gt;3</title>
<path fill="none" stroke="#c0c0c0" stroke-width="2" d="M135.1868,-359.8314C132.2356,-351.9617 128.7142,-342.5712 125.445,-333.8533"/>
<polygon fill="#c0c0c0" stroke="#c0c0c0" stroke-width="2" points="128.6934,-332.5476 121.905,-324.4133 122.1391,-335.0055 128.6934,-332.5476"/>
</g>
<!-- 11&#45;&gt;10 -->
<g id="edge16" class="edge">
<title>11&#45;&gt;10</title>
<path fill="none" stroke="#c0c0c0" stroke-width="2" d="M139.0094,-431.8314C139.4372,-424.131 139.9459,-414.9743 140.4213,-406.4166"/>
<polygon fill="#c0c0c0" stroke="#c0c0c0" stroke-width="2" points="143.9169,-406.592 140.977,-396.4133 136.9276,-406.2037 143.9169,-406.592"/>
</g>
<!-- 12&#45;&gt;1 -->
<g id="edge4" class="edge">
<title>12&#45;&gt;1</title>
<path fill="none" stroke="#c0c0c0" stroke-width="2" d="M174.4934,-215.7623C173.8111,-191.201 172.5902,-147.2474 171.7876,-118.3541"/>
<polygon fill="#c0c0c0" stroke="#c0c0c0" stroke-width="2" points="175.2789,-117.9885 171.5025,-108.0896 168.2816,-118.183 175.2789,-117.9885"/>
</g>
<!-- 12&#45;&gt;2 -->
<g id="edge6" class="edge">
<title>12&#45;&gt;2</title>
<path fill="none" stroke="#c0c0c0" stroke-width="2" d="M154.0556,-215.8314C143.9309,-207.0485 131.6223,-196.3712 120.6452,-186.8489"/>
<polygon fill="#c0c0c0" stroke="#c0c0c0" stroke-width="2" points="122.7851,-184.0718 112.9377,-180.1628 118.1981,-189.3595 122.7851,-184.0718"/>
</g>
<!-- 13 -->
<g id="node14" class="node">
<title>13</title>
<path fill="none" stroke="#56d86b" stroke-width="2" d="M331.5,-108C331.5,-108 252.5,-108 252.5,-108 246.5,-108 240.5,-102 240.5,-96 240.5,-96 240.5,-84 240.5,-84 240.5,-78 246.5,-72 252.5,-72 252.5,-72 331.5,-72 331.5,-72 337.5,-72 343.5,-78 343.5,-84 343.5,-84 343.5,-96 343.5,-96 343.5,-102 337.5,-108 331.5,-108"/>
<text text-anchor="middle" x="292" y="-87.5" font-family="sans" font-size="10.00" fill="#000000">assign_taxonomy</text>
</g>
<!-- 13&#45;&gt;0 -->
<g id="edge2" class="edge">
<title>13&#45;&gt;0</title>
<path fill="none" stroke="#c0c0c0" stroke-width="2" d="M276.6071,-71.8314C269.5096,-63.454 260.952,-53.3531 253.176,-44.1749"/>
<polygon fill="#c0c0c0" stroke="#c0c0c0" stroke-width="2" points="255.7348,-41.7807 246.6001,-36.4133 250.3939,-46.3056 255.7348,-41.7807"/>
</g>
<!-- 14 -->
<g id="node15" class="node">
<title>14</title>
<path fill="none" stroke="#56d8b9" stroke-width="2" d="M331.5,-180C331.5,-180 236.5,-180 236.5,-180 230.5,-180 224.5,-174 224.5,-168 224.5,-168 224.5,-156 224.5,-156 224.5,-150 230.5,-144 236.5,-144 236.5,-144 331.5,-144 331.5,-144 337.5,-144 343.5,-150 343.5,-156 343.5,-156 343.5,-168 343.5,-168 343.5,-174 337.5,-180 331.5,-180"/>
<text text-anchor="middle" x="284" y="-159.5" font-family="sans" font-size="10.00" fill="#000000">copy_final_bins_over</text>
</g>
<!-- 14&#45;&gt;13 -->
<g id="edge19" class="edge">
<title>14&#45;&gt;13</title>
<path fill="none" stroke="#c0c0c0" stroke-width="2" d="M286.0187,-143.8314C286.8743,-136.131 287.8917,-126.9743 288.8426,-118.4166"/>
<polygon fill="#c0c0c0" stroke="#c0c0c0" stroke-width="2" points="292.3283,-118.7386 289.9541,-108.4133 285.3711,-117.9656 292.3283,-118.7386"/>
</g>
<!-- 15 -->
<g id="node16" class="node">
<title>15</title>
<path fill="none" stroke="#68d856" stroke-width="2" d="M328.5,-324C328.5,-324 281.5,-324 281.5,-324 275.5,-324 269.5,-318 269.5,-312 269.5,-312 269.5,-300 269.5,-300 269.5,-294 275.5,-288 281.5,-288 281.5,-288 328.5,-288 328.5,-288 334.5,-288 340.5,-294 340.5,-300 340.5,-300 340.5,-312 340.5,-312 340.5,-318 334.5,-324 328.5,-324"/>
<text text-anchor="middle" x="305" y="-303.5" font-family="sans" font-size="10.00" fill="#000000">dereplicate</text>
</g>
<!-- 15&#45;&gt;14 -->
<g id="edge21" class="edge">
<title>15&#45;&gt;14</title>
<path fill="none" stroke="#c0c0c0" stroke-width="2" d="M302.3403,-287.7623C298.7585,-263.201 292.3486,-219.2474 288.135,-190.3541"/>
<polygon fill="#c0c0c0" stroke="#c0c0c0" stroke-width="2" points="291.5446,-189.4798 286.6381,-180.0896 284.6179,-190.4901 291.5446,-189.4798"/>
</g>
<!-- 24 -->
<g id="node25" class="node">
<title>24</title>
<path fill="none" stroke="#d8cb56" stroke-width="2" d="M410,-252C410,-252 324,-252 324,-252 318,-252 312,-246 312,-240 312,-240 312,-228 312,-228 312,-222 318,-216 324,-216 324,-216 410,-216 410,-216 416,-216 422,-222 422,-228 422,-228 422,-240 422,-240 422,-246 416,-252 410,-252"/>
<text text-anchor="middle" x="367" y="-231.5" font-family="sans" font-size="10.00" fill="#000000">select_quality_bins</text>
</g>
<!-- 15&#45;&gt;24 -->
<g id="edge34" class="edge">
<title>15&#45;&gt;24</title>
<path fill="none" stroke="#c0c0c0" stroke-width="2" d="M320.6452,-287.8314C327.8591,-279.454 336.557,-269.3531 344.4605,-260.1749"/>
<polygon fill="#c0c0c0" stroke="#c0c0c0" stroke-width="2" points="347.2711,-262.2748 351.1441,-252.4133 341.9667,-257.7071 347.2711,-262.2748"/>
</g>
<!-- 16 -->
<g id="node17" class="node">
<title>16</title>
<path fill="none" stroke="#d8a456" stroke-width="2" d="M332.5,-540C332.5,-540 269.5,-540 269.5,-540 263.5,-540 257.5,-534 257.5,-528 257.5,-528 257.5,-516 257.5,-516 257.5,-510 263.5,-504 269.5,-504 269.5,-504 332.5,-504 332.5,-504 338.5,-504 344.5,-510 344.5,-516 344.5,-516 344.5,-528 344.5,-528 344.5,-534 338.5,-540 332.5,-540"/>
<text text-anchor="middle" x="301" y="-519.5" font-family="sans" font-size="10.00" fill="#000000">rename_MAGs</text>
</g>
<!-- 16&#45;&gt;15 -->
<g id="edge23" class="edge">
<title>16&#45;&gt;15</title>
<path fill="none" stroke="#c0c0c0" stroke-width="2" d="M299.1146,-503.9862C296.2787,-474.0432 291.6832,-412.1591 296,-360 296.6945,-351.6085 297.9862,-342.5578 299.3786,-334.3092"/>
<polygon fill="#c0c0c0" stroke="#c0c0c0" stroke-width="2" points="302.8353,-334.8612 301.1587,-324.3999 295.9456,-333.6235 302.8353,-334.8612"/>
</g>
<!-- 23 -->
<g id="node24" class="node">
<title>23</title>
<path fill="none" stroke="#b6d856" stroke-width="2" d="M381,-468C381,-468 321,-468 321,-468 315,-468 309,-462 309,-456 309,-456 309,-444 309,-444 309,-438 315,-432 321,-432 321,-432 381,-432 381,-432 387,-432 393,-438 393,-444 393,-444 393,-456 393,-456 393,-462 387,-468 381,-468"/>
<text text-anchor="middle" x="351" y="-447.5" font-family="sans" font-size="10.00" fill="#000000">quality_check</text>
</g>
<!-- 16&#45;&gt;23 -->
<g id="edge33" class="edge">
<title>16&#45;&gt;23</title>
<path fill="none" stroke="#c0c0c0" stroke-width="2" d="M313.6171,-503.8314C319.3172,-495.6232 326.1663,-485.7606 332.4359,-476.7323"/>
<polygon fill="#c0c0c0" stroke="#c0c0c0" stroke-width="2" points="335.3838,-478.6234 338.213,-468.4133 329.6342,-474.6306 335.3838,-478.6234"/>
</g>
<!-- 17 -->
<g id="node18" class="node">
<title>17</title>
<path fill="none" stroke="#d85656" stroke-width="2" d="M316,-612C316,-612 286,-612 286,-612 280,-612 274,-606 274,-600 274,-600 274,-588 274,-588 274,-582 280,-576 286,-576 286,-576 316,-576 316,-576 322,-576 328,-582 328,-588 328,-588 328,-600 328,-600 328,-606 322,-612 316,-612"/>
<text text-anchor="middle" x="301" y="-591.5" font-family="sans" font-size="10.00" fill="#000000">refine</text>
</g>
<!-- 17&#45;&gt;16 -->
<g id="edge25" class="edge">
<title>17&#45;&gt;16</title>
<path fill="none" stroke="#c0c0c0" stroke-width="2" d="M301,-575.8314C301,-568.131 301,-558.9743 301,-550.4166"/>
<polygon fill="#c0c0c0" stroke="#c0c0c0" stroke-width="2" points="304.5001,-550.4132 301,-540.4133 297.5001,-550.4133 304.5001,-550.4132"/>
</g>
<!-- 18 -->
<g id="node19" class="node">
<title>18</title>
<path fill="none" stroke="#567bd8" stroke-width="2" stroke-dasharray="5,2" d="M345,-684C345,-684 315,-684 315,-684 309,-684 303,-678 303,-672 303,-672 303,-660 303,-660 303,-654 309,-648 315,-648 315,-648 345,-648 345,-648 351,-648 357,-654 357,-660 357,-660 357,-672 357,-672 357,-678 351,-684 345,-684"/>
<text text-anchor="middle" x="330" y="-663.5" font-family="sans" font-size="10.00" fill="#000000">bin</text>
</g>
<!-- 18&#45;&gt;17 -->
<g id="edge26" class="edge">
<title>18&#45;&gt;17</title>
<path fill="none" stroke="#c0c0c0" stroke-width="2" d="M322.6821,-647.8314C319.5124,-639.9617 315.73,-630.5712 312.2187,-621.8533"/>
<polygon fill="#c0c0c0" stroke="#c0c0c0" stroke-width="2" points="315.3992,-620.3815 308.4165,-612.4133 308.9061,-622.9968 315.3992,-620.3815"/>
</g>
<!-- 19 -->
<g id="node20" class="node">
<title>19</title>
<path fill="none" stroke="#8fd856" stroke-width="2" stroke-dasharray="5,2" d="M311,-756C311,-756 239,-756 239,-756 233,-756 227,-750 227,-744 227,-744 227,-732 227,-732 227,-726 233,-720 239,-720 239,-720 311,-720 311,-720 317,-720 323,-726 323,-732 323,-732 323,-744 323,-744 323,-750 317,-756 311,-756"/>
<text text-anchor="middle" x="275" y="-735.5" font-family="sans" font-size="10.00" fill="#000000">assemble_reads</text>
</g>
<!-- 19&#45;&gt;17 -->
<g id="edge27" class="edge">
<title>19&#45;&gt;17</title>
<path fill="none" stroke="#c0c0c0" stroke-width="2" d="M278.2929,-719.7623C282.7471,-695.0928 290.7337,-650.8598 295.9493,-621.9731"/>
<polygon fill="#c0c0c0" stroke="#c0c0c0" stroke-width="2" points="299.4012,-622.5524 297.7338,-612.0896 292.5126,-621.3086 299.4012,-622.5524"/>
</g>
<!-- 19&#45;&gt;18 -->
<g id="edge28" class="edge">
<title>19&#45;&gt;18</title>
<path fill="none" stroke="#c0c0c0" stroke-width="2" d="M288.8788,-719.8314C295.2136,-711.5386 302.8384,-701.557 309.7926,-692.4533"/>
<polygon fill="#c0c0c0" stroke="#c0c0c0" stroke-width="2" points="312.6452,-694.4847 315.9343,-684.4133 307.0825,-690.2353 312.6452,-694.4847"/>
</g>
<!-- 20 -->
<g id="node21" class="node">
<title>20</title>
<path fill="none" stroke="#d87d56" stroke-width="2" stroke-dasharray="5,2" d="M348,-828C348,-828 252,-828 252,-828 246,-828 240,-822 240,-816 240,-816 240,-804 240,-804 240,-798 246,-792 252,-792 252,-792 348,-792 348,-792 354,-792 360,-798 360,-804 360,-804 360,-816 360,-816 360,-822 354,-828 348,-828"/>
<text text-anchor="middle" x="300" y="-813" font-family="sans" font-size="10.00" fill="#000000">qc_reads</text>
<text text-anchor="middle" x="300" y="-802" font-family="sans" font-size="10.00" fill="#000000">sample: SRR9162908</text>
</g>
<!-- 20&#45;&gt;19 -->
<g id="edge30" class="edge">
<title>20&#45;&gt;19</title>
<path fill="none" stroke="#c0c0c0" stroke-width="2" d="M293.6914,-791.8314C290.9883,-784.0463 287.7684,-774.7729 284.769,-766.1347"/>
<polygon fill="#c0c0c0" stroke="#c0c0c0" stroke-width="2" points="287.98,-764.7119 281.3935,-756.4133 281.3673,-767.0081 287.98,-764.7119"/>
</g>
<!-- 21 -->
<g id="node22" class="node">
<title>21</title>
<path fill="none" stroke="#56d0d8" stroke-width="2" stroke-dasharray="5,2" d="M404.5,-756C404.5,-756 353.5,-756 353.5,-756 347.5,-756 341.5,-750 341.5,-744 341.5,-744 341.5,-732 341.5,-732 341.5,-726 347.5,-720 353.5,-720 353.5,-720 404.5,-720 404.5,-720 410.5,-720 416.5,-726 416.5,-732 416.5,-732 416.5,-744 416.5,-744 416.5,-750 410.5,-756 404.5,-756"/>
<text text-anchor="middle" x="379" y="-735.5" font-family="sans" font-size="10.00" fill="#000000">unzip_reads</text>
</g>
<!-- 20&#45;&gt;21 -->
<g id="edge31" class="edge">
<title>20&#45;&gt;21</title>
<path fill="none" stroke="#c0c0c0" stroke-width="2" d="M319.935,-791.8314C329.4783,-783.1337 341.0599,-772.5783 351.4306,-763.1265"/>
<polygon fill="#c0c0c0" stroke="#c0c0c0" stroke-width="2" points="354.038,-765.4857 359.0713,-756.1628 349.3228,-760.3121 354.038,-765.4857"/>
</g>
<!-- 21&#45;&gt;18 -->
<g id="edge29" class="edge">
<title>21&#45;&gt;18</title>
<path fill="none" stroke="#c0c0c0" stroke-width="2" d="M366.6352,-719.8314C361.0491,-711.6232 354.337,-701.7606 348.1928,-692.7323"/>
<polygon fill="#c0c0c0" stroke="#c0c0c0" stroke-width="2" points="351.051,-690.7112 342.5313,-684.4133 345.264,-694.6496 351.051,-690.7112"/>
</g>
<!-- 22 -->
<g id="node23" class="node">
<title>22</title>
<path fill="none" stroke="#56d892" stroke-width="2" d="M392.5,-396C392.5,-396 317.5,-396 317.5,-396 311.5,-396 305.5,-390 305.5,-384 305.5,-384 305.5,-372 305.5,-372 305.5,-366 311.5,-360 317.5,-360 317.5,-360 392.5,-360 392.5,-360 398.5,-360 404.5,-366 404.5,-372 404.5,-372 404.5,-384 404.5,-384 404.5,-390 398.5,-396 392.5,-396"/>
<text text-anchor="middle" x="355" y="-375.5" font-family="sans" font-size="10.00" fill="#000000">edit_checkm_file</text>
</g>
<!-- 22&#45;&gt;15 -->
<g id="edge24" class="edge">
<title>22&#45;&gt;15</title>
<path fill="none" stroke="#c0c0c0" stroke-width="2" d="M342.3829,-359.8314C336.6828,-351.6232 329.8337,-341.7606 323.5641,-332.7323"/>
<polygon fill="#c0c0c0" stroke="#c0c0c0" stroke-width="2" points="326.3658,-330.6306 317.787,-324.4133 320.6162,-334.6234 326.3658,-330.6306"/>
</g>
<!-- 23&#45;&gt;22 -->
<g id="edge32" class="edge">
<title>23&#45;&gt;22</title>
<path fill="none" stroke="#c0c0c0" stroke-width="2" d="M352.0094,-431.8314C352.4372,-424.131 352.9459,-414.9743 353.4213,-406.4166"/>
<polygon fill="#c0c0c0" stroke="#c0c0c0" stroke-width="2" points="356.9169,-406.592 353.977,-396.4133 349.9276,-406.2037 356.9169,-406.592"/>
</g>
<!-- 24&#45;&gt;13 -->
<g id="edge20" class="edge">
<title>24&#45;&gt;13</title>
<path fill="none" stroke="#c0c0c0" stroke-width="2" d="M367.6943,-215.9514C367.6582,-196.9193 365.363,-166.6166 353,-144 346.905,-132.8499 337.5749,-122.8751 328.0311,-114.6239"/>
<polygon fill="#c0c0c0" stroke="#c0c0c0" stroke-width="2" points="329.9951,-111.7096 320.0304,-108.1104 325.5757,-117.1382 329.9951,-111.7096"/>
</g>
<!-- 24&#45;&gt;14 -->
<g id="edge22" class="edge">
<title>24&#45;&gt;14</title>
<path fill="none" stroke="#c0c0c0" stroke-width="2" d="M346.0556,-215.8314C335.9309,-207.0485 323.6223,-196.3712 312.6452,-186.8489"/>
<polygon fill="#c0c0c0" stroke="#c0c0c0" stroke-width="2" points="314.7851,-184.0718 304.9377,-180.1628 310.1981,-189.3595 314.7851,-184.0718"/>
</g>
</g>
</svg>
