<?xml version="1.0" encoding="UTF-8" standalone="no"?>
<!DOCTYPE svg PUBLIC "-//W3C//DTD SVG 1.1//EN"
 "http://www.w3.org/Graphics/SVG/1.1/DTD/svg11.dtd">
<!-- Generated by graphviz version 2.40.1 (20161225.0304)
 -->
<!-- Title: snakemake_dag Pages: 1 -->
<svg width="299pt" height="692pt"
 viewBox="0.00 0.00 299.00 692.00" xmlns="http://www.w3.org/2000/svg" xmlns:xlink="http://www.w3.org/1999/xlink">
<g id="graph0" class="graph" transform="scale(1 1) rotate(0) translate(4 688)">
<title>snakemake_dag</title>
<polygon fill="#ffffff" stroke="transparent" points="-4,4 -4,-688 295,-688 295,4 -4,4"/>
<!-- 0 -->
<g id="node1" class="node">
<title>0</title>
<path fill="none" stroke="#56c1d8" stroke-width="2" d="M143,-36C143,-36 113,-36 113,-36 107,-36 101,-30 101,-24 101,-24 101,-12 101,-12 101,-6 107,0 113,0 113,0 143,0 143,0 149,0 155,-6 155,-12 155,-12 155,-24 155,-24 155,-30 149,-36 143,-36"/>
<text text-anchor="middle" x="128" y="-15.5" font-family="sans" font-size="10.00" fill="#000000">all</text>
</g>
<!-- 1 -->
<g id="node2" class="node">
<title>1</title>
<path fill="none" stroke="#59d856" stroke-width="2" d="M107.5,-108C107.5,-108 28.5,-108 28.5,-108 22.5,-108 16.5,-102 16.5,-96 16.5,-96 16.5,-84 16.5,-84 16.5,-78 22.5,-72 28.5,-72 28.5,-72 107.5,-72 107.5,-72 113.5,-72 119.5,-78 119.5,-84 119.5,-84 119.5,-96 119.5,-96 119.5,-102 113.5,-108 107.5,-108"/>
<text text-anchor="middle" x="68" y="-87.5" font-family="sans" font-size="10.00" fill="#000000">assign_taxonomy</text>
</g>
<!-- 1&#45;&gt;0 -->
<g id="edge1" class="edge">
<title>1&#45;&gt;0</title>
<path fill="none" stroke="#c0c0c0" stroke-width="2" d="M83.1405,-71.8314C90.1217,-63.454 98.5391,-53.3531 106.1876,-44.1749"/>
<polygon fill="#c0c0c0" stroke="#c0c0c0" stroke-width="2" points="108.9425,-46.3362 112.6556,-36.4133 103.5649,-41.8548 108.9425,-46.3362"/>
</g>
<!-- 2 -->
<g id="node3" class="node">
<title>2</title>
<path fill="none" stroke="#88d856" stroke-width="2" d="M108,-180C108,-180 22,-180 22,-180 16,-180 10,-174 10,-168 10,-168 10,-156 10,-156 10,-150 16,-144 22,-144 22,-144 108,-144 108,-144 114,-144 120,-150 120,-156 120,-156 120,-168 120,-168 120,-174 114,-180 108,-180"/>
<text text-anchor="middle" x="65" y="-159.5" font-family="sans" font-size="10.00" fill="#000000">select_quality_bins</text>
</g>
<!-- 2&#45;&gt;1 -->
<g id="edge3" class="edge">
<title>2&#45;&gt;1</title>
<path fill="none" stroke="#c0c0c0" stroke-width="2" d="M65.757,-143.8314C66.0779,-136.131 66.4594,-126.9743 66.816,-118.4166"/>
<polygon fill="#c0c0c0" stroke="#c0c0c0" stroke-width="2" points="70.3133,-118.5503 67.2328,-108.4133 63.3194,-118.2589 70.3133,-118.5503"/>
</g>
<!-- 3 -->
<g id="node4" class="node">
<title>3</title>
<path fill="none" stroke="#56d8c1" stroke-width="2" d="M110,-252C110,-252 50,-252 50,-252 44,-252 38,-246 38,-240 38,-240 38,-228 38,-228 38,-222 44,-216 50,-216 50,-216 110,-216 110,-216 116,-216 122,-222 122,-228 122,-228 122,-240 122,-240 122,-246 116,-252 110,-252"/>
<text text-anchor="middle" x="80" y="-231.5" font-family="sans" font-size="10.00" fill="#000000">quality_check</text>
</g>
<!-- 3&#45;&gt;2 -->
<g id="edge4" class="edge">
<title>3&#45;&gt;2</title>
<path fill="none" stroke="#c0c0c0" stroke-width="2" d="M76.2149,-215.8314C74.6106,-208.131 72.703,-198.9743 70.9201,-190.4166"/>
<polygon fill="#c0c0c0" stroke="#c0c0c0" stroke-width="2" points="74.3021,-189.4892 68.8361,-180.4133 67.4493,-190.9169 74.3021,-189.4892"/>
</g>
<!-- 4 -->
<g id="node5" class="node">
<title>4</title>
<path fill="none" stroke="#bed856" stroke-width="2" d="M83.5,-324C83.5,-324 36.5,-324 36.5,-324 30.5,-324 24.5,-318 24.5,-312 24.5,-312 24.5,-300 24.5,-300 24.5,-294 30.5,-288 36.5,-288 36.5,-288 83.5,-288 83.5,-288 89.5,-288 95.5,-294 95.5,-300 95.5,-300 95.5,-312 95.5,-312 95.5,-318 89.5,-324 83.5,-324"/>
<text text-anchor="middle" x="60" y="-303.5" font-family="sans" font-size="10.00" fill="#000000">dereplicate</text>
</g>
<!-- 4&#45;&gt;2 -->
<g id="edge5" class="edge">
<title>4&#45;&gt;2</title>
<path fill="none" stroke="#c0c0c0" stroke-width="2" d="M46.2037,-287.5772C39.5974,-277.6044 32.3977,-264.743 29,-252 24.8779,-236.5401 24.3635,-231.3135 29,-216 31.9564,-206.2355 37.3252,-196.6229 43.03,-188.2762"/>
<polygon fill="#c0c0c0" stroke="#c0c0c0" stroke-width="2" points="45.9414,-190.2239 49.0095,-180.0831 40.2871,-186.0973 45.9414,-190.2239"/>
</g>
<!-- 4&#45;&gt;3 -->
<g id="edge6" class="edge">
<title>4&#45;&gt;3</title>
<path fill="none" stroke="#c0c0c0" stroke-width="2" d="M65.0468,-287.8314C67.2094,-280.0463 69.7853,-270.7729 72.1848,-262.1347"/>
<polygon fill="#c0c0c0" stroke="#c0c0c0" stroke-width="2" points="75.581,-262.9852 74.8852,-252.4133 68.8364,-261.1117 75.581,-262.9852"/>
</g>
<!-- 5 -->
<g id="node6" class="node">
<title>5</title>
<path fill="none" stroke="#d8bc56" stroke-width="2" d="M91.5,-396C91.5,-396 28.5,-396 28.5,-396 22.5,-396 16.5,-390 16.5,-384 16.5,-384 16.5,-372 16.5,-372 16.5,-366 22.5,-360 28.5,-360 28.5,-360 91.5,-360 91.5,-360 97.5,-360 103.5,-366 103.5,-372 103.5,-372 103.5,-384 103.5,-384 103.5,-390 97.5,-396 91.5,-396"/>
<text text-anchor="middle" x="60" y="-375.5" font-family="sans" font-size="10.00" fill="#000000">rename_MAGs</text>
</g>
<!-- 5&#45;&gt;4 -->
<g id="edge7" class="edge">
<title>5&#45;&gt;4</title>
<path fill="none" stroke="#c0c0c0" stroke-width="2" d="M60,-359.8314C60,-352.131 60,-342.9743 60,-334.4166"/>
<polygon fill="#c0c0c0" stroke="#c0c0c0" stroke-width="2" points="63.5001,-334.4132 60,-324.4133 56.5001,-334.4133 63.5001,-334.4132"/>
</g>
<!-- 6 -->
<g id="node7" class="node">
<title>6</title>
<path fill="none" stroke="#56d88a" stroke-width="2" d="M75,-468C75,-468 45,-468 45,-468 39,-468 33,-462 33,-456 33,-456 33,-444 33,-444 33,-438 39,-432 45,-432 45,-432 75,-432 75,-432 81,-432 87,-438 87,-444 87,-444 87,-456 87,-456 87,-462 81,-468 75,-468"/>
<text text-anchor="middle" x="60" y="-447.5" font-family="sans" font-size="10.00" fill="#000000">refine</text>
</g>
<!-- 6&#45;&gt;5 -->
<g id="edge8" class="edge">
<title>6&#45;&gt;5</title>
<path fill="none" stroke="#c0c0c0" stroke-width="2" d="M60,-431.8314C60,-424.131 60,-414.9743 60,-406.4166"/>
<polygon fill="#c0c0c0" stroke="#c0c0c0" stroke-width="2" points="63.5001,-406.4132 60,-396.4133 56.5001,-406.4133 63.5001,-406.4132"/>
</g>
<!-- 7 -->
<g id="node8" class="node">
<title>7</title>
<path fill="none" stroke="#d85656" stroke-width="2" stroke-dasharray="5,2" d="M75,-540C75,-540 45,-540 45,-540 39,-540 33,-534 33,-528 33,-528 33,-516 33,-516 33,-510 39,-504 45,-504 45,-504 75,-504 75,-504 81,-504 87,-510 87,-516 87,-516 87,-528 87,-528 87,-534 81,-540 75,-540"/>
<text text-anchor="middle" x="60" y="-519.5" font-family="sans" font-size="10.00" fill="#000000">bin</text>
</g>
<!-- 7&#45;&gt;6 -->
<g id="edge9" class="edge">
<title>7&#45;&gt;6</title>
<path fill="none" stroke="#c0c0c0" stroke-width="2" d="M60,-503.8314C60,-496.131 60,-486.9743 60,-478.4166"/>
<polygon fill="#c0c0c0" stroke="#c0c0c0" stroke-width="2" points="63.5001,-478.4132 60,-468.4133 56.5001,-478.4133 63.5001,-478.4132"/>
</g>
<!-- 8 -->
<g id="node9" class="node">
<title>8</title>
<path fill="none" stroke="#d88d56" stroke-width="2" stroke-dasharray="5,2" d="M85.5,-612C85.5,-612 34.5,-612 34.5,-612 28.5,-612 22.5,-606 22.5,-600 22.5,-600 22.5,-588 22.5,-588 22.5,-582 28.5,-576 34.5,-576 34.5,-576 85.5,-576 85.5,-576 91.5,-576 97.5,-582 97.5,-588 97.5,-588 97.5,-600 97.5,-600 97.5,-606 91.5,-612 85.5,-612"/>
<text text-anchor="middle" x="60" y="-591.5" font-family="sans" font-size="10.00" fill="#000000">unzip_reads</text>
</g>
<!-- 8&#45;&gt;7 -->
<g id="edge10" class="edge">
<title>8&#45;&gt;7</title>
<path fill="none" stroke="#c0c0c0" stroke-width="2" d="M60,-575.8314C60,-568.131 60,-558.9743 60,-550.4166"/>
<polygon fill="#c0c0c0" stroke="#c0c0c0" stroke-width="2" points="63.5001,-550.4132 60,-540.4133 56.5001,-550.4133 63.5001,-550.4132"/>
</g>
<!-- 9 -->
<g id="node10" class="node">
<title>9</title>
<path fill="none" stroke="#568ad8" stroke-width="2" stroke-dasharray="5,2" d="M108,-684C108,-684 12,-684 12,-684 6,-684 0,-678 0,-672 0,-672 0,-660 0,-660 0,-654 6,-648 12,-648 12,-648 108,-648 108,-648 114,-648 120,-654 120,-660 120,-660 120,-672 120,-672 120,-678 114,-684 108,-684"/>
<text text-anchor="middle" x="60" y="-669" font-family="sans" font-size="10.00" fill="#000000">assemble_reads</text>
<text text-anchor="middle" x="60" y="-658" font-family="sans" font-size="10.00" fill="#000000">sample: SRR9162907</text>
</g>
<!-- 9&#45;&gt;8 -->
<g id="edge11" class="edge">
<title>9&#45;&gt;8</title>
<path fill="none" stroke="#c0c0c0" stroke-width="2" d="M60,-647.8314C60,-640.131 60,-630.9743 60,-622.4166"/>
<polygon fill="#c0c0c0" stroke="#c0c0c0" stroke-width="2" points="63.5001,-622.4132 60,-612.4133 56.5001,-622.4133 63.5001,-622.4132"/>
</g>
<!-- 10 -->
<g id="node11" class="node">
<title>10</title>
<path fill="none" stroke="#59d856" stroke-width="2" d="M230.5,-108C230.5,-108 151.5,-108 151.5,-108 145.5,-108 139.5,-102 139.5,-96 139.5,-96 139.5,-84 139.5,-84 139.5,-78 145.5,-72 151.5,-72 151.5,-72 230.5,-72 230.5,-72 236.5,-72 242.5,-78 242.5,-84 242.5,-84 242.5,-96 242.5,-96 242.5,-102 236.5,-108 230.5,-108"/>
<text text-anchor="middle" x="191" y="-87.5" font-family="sans" font-size="10.00" fill="#000000">assign_taxonomy</text>
</g>
<!-- 10&#45;&gt;0 -->
<g id="edge2" class="edge">
<title>10&#45;&gt;0</title>
<path fill="none" stroke="#c0c0c0" stroke-width="2" d="M175.1024,-71.8314C167.7722,-63.454 158.934,-53.3531 150.9031,-44.1749"/>
<polygon fill="#c0c0c0" stroke="#c0c0c0" stroke-width="2" points="153.3307,-41.6343 144.1116,-36.4133 148.0627,-46.2438 153.3307,-41.6343"/>
</g>
<!-- 11 -->
<g id="node12" class="node">
<title>11</title>
<path fill="none" stroke="#88d856" stroke-width="2" d="M236,-180C236,-180 150,-180 150,-180 144,-180 138,-174 138,-168 138,-168 138,-156 138,-156 138,-150 144,-144 150,-144 150,-144 236,-144 236,-144 242,-144 248,-150 248,-156 248,-156 248,-168 248,-168 248,-174 242,-180 236,-180"/>
<text text-anchor="middle" x="193" y="-159.5" font-family="sans" font-size="10.00" fill="#000000">select_quality_bins</text>
</g>
<!-- 11&#45;&gt;10 -->
<g id="edge12" class="edge">
<title>11&#45;&gt;10</title>
<path fill="none" stroke="#c0c0c0" stroke-width="2" d="M192.4953,-143.8314C192.2814,-136.131 192.0271,-126.9743 191.7894,-118.4166"/>
<polygon fill="#c0c0c0" stroke="#c0c0c0" stroke-width="2" points="195.2879,-118.3122 191.5115,-108.4133 188.2906,-118.5066 195.2879,-118.3122"/>
</g>
<!-- 12 -->
<g id="node13" class="node">
<title>12</title>
<path fill="none" stroke="#56d8c1" stroke-width="2" d="M279,-252C279,-252 219,-252 219,-252 213,-252 207,-246 207,-240 207,-240 207,-228 207,-228 207,-222 213,-216 219,-216 219,-216 279,-216 279,-216 285,-216 291,-222 291,-228 291,-228 291,-240 291,-240 291,-246 285,-252 279,-252"/>
<text text-anchor="middle" x="249" y="-231.5" font-family="sans" font-size="10.00" fill="#000000">quality_check</text>
</g>
<!-- 12&#45;&gt;11 -->
<g id="edge13" class="edge">
<title>12&#45;&gt;11</title>
<path fill="none" stroke="#c0c0c0" stroke-width="2" d="M234.8688,-215.8314C228.4189,-207.5386 220.6555,-197.557 213.5748,-188.4533"/>
<polygon fill="#c0c0c0" stroke="#c0c0c0" stroke-width="2" points="216.2236,-186.158 207.3214,-180.4133 210.6981,-190.4556 216.2236,-186.158"/>
</g>
<!-- 13 -->
<g id="node14" class="node">
<title>13</title>
<path fill="none" stroke="#bed856" stroke-width="2" d="M222.5,-324C222.5,-324 175.5,-324 175.5,-324 169.5,-324 163.5,-318 163.5,-312 163.5,-312 163.5,-300 163.5,-300 163.5,-294 169.5,-288 175.5,-288 175.5,-288 222.5,-288 222.5,-288 228.5,-288 234.5,-294 234.5,-300 234.5,-300 234.5,-312 234.5,-312 234.5,-318 228.5,-324 222.5,-324"/>
<text text-anchor="middle" x="199" y="-303.5" font-family="sans" font-size="10.00" fill="#000000">dereplicate</text>
</g>
<!-- 13&#45;&gt;11 -->
<g id="edge14" class="edge">
<title>13&#45;&gt;11</title>
<path fill="none" stroke="#c0c0c0" stroke-width="2" d="M198.2401,-287.7623C197.2167,-263.201 195.3853,-219.2474 194.1814,-190.3541"/>
<polygon fill="#c0c0c0" stroke="#c0c0c0" stroke-width="2" points="197.6671,-189.9352 193.7537,-180.0896 190.6732,-190.2267 197.6671,-189.9352"/>
</g>
<!-- 13&#45;&gt;12 -->
<g id="edge15" class="edge">
<title>13&#45;&gt;12</title>
<path fill="none" stroke="#c0c0c0" stroke-width="2" d="M211.6171,-287.8314C217.3172,-279.6232 224.1663,-269.7606 230.4359,-260.7323"/>
<polygon fill="#c0c0c0" stroke="#c0c0c0" stroke-width="2" points="233.3838,-262.6234 236.213,-252.4133 227.6342,-258.6306 233.3838,-262.6234"/>
</g>
<!-- 14 -->
<g id="node15" class="node">
<title>14</title>
<path fill="none" stroke="#d8bc56" stroke-width="2" d="M230.5,-396C230.5,-396 167.5,-396 167.5,-396 161.5,-396 155.5,-390 155.5,-384 155.5,-384 155.5,-372 155.5,-372 155.5,-366 161.5,-360 167.5,-360 167.5,-360 230.5,-360 230.5,-360 236.5,-360 242.5,-366 242.5,-372 242.5,-372 242.5,-384 242.5,-384 242.5,-390 236.5,-396 230.5,-396"/>
<text text-anchor="middle" x="199" y="-375.5" font-family="sans" font-size="10.00" fill="#000000">rename_MAGs</text>
</g>
<!-- 14&#45;&gt;13 -->
<g id="edge16" class="edge">
<title>14&#45;&gt;13</title>
<path fill="none" stroke="#c0c0c0" stroke-width="2" d="M199,-359.8314C199,-352.131 199,-342.9743 199,-334.4166"/>
<polygon fill="#c0c0c0" stroke="#c0c0c0" stroke-width="2" points="202.5001,-334.4132 199,-324.4133 195.5001,-334.4133 202.5001,-334.4132"/>
</g>
<!-- 15 -->
<g id="node16" class="node">
<title>15</title>
<path fill="none" stroke="#56d88a" stroke-width="2" d="M214,-468C214,-468 184,-468 184,-468 178,-468 172,-462 172,-456 172,-456 172,-444 172,-444 172,-438 178,-432 184,-432 184,-432 214,-432 214,-432 220,-432 226,-438 226,-444 226,-444 226,-456 226,-456 226,-462 220,-468 214,-468"/>
<text text-anchor="middle" x="199" y="-447.5" font-family="sans" font-size="10.00" fill="#000000">refine</text>
</g>
<!-- 15&#45;&gt;14 -->
<g id="edge17" class="edge">
<title>15&#45;&gt;14</title>
<path fill="none" stroke="#c0c0c0" stroke-width="2" d="M199,-431.8314C199,-424.131 199,-414.9743 199,-406.4166"/>
<polygon fill="#c0c0c0" stroke="#c0c0c0" stroke-width="2" points="202.5001,-406.4132 199,-396.4133 195.5001,-406.4133 202.5001,-406.4132"/>
</g>
<!-- 16 -->
<g id="node17" class="node">
<title>16</title>
<path fill="none" stroke="#d85656" stroke-width="2" stroke-dasharray="5,2" d="M214,-540C214,-540 184,-540 184,-540 178,-540 172,-534 172,-528 172,-528 172,-516 172,-516 172,-510 178,-504 184,-504 184,-504 214,-504 214,-504 220,-504 226,-510 226,-516 226,-516 226,-528 226,-528 226,-534 220,-540 214,-540"/>
<text text-anchor="middle" x="199" y="-519.5" font-family="sans" font-size="10.00" fill="#000000">bin</text>
</g>
<!-- 16&#45;&gt;15 -->
<g id="edge18" class="edge">
<title>16&#45;&gt;15</title>
<path fill="none" stroke="#c0c0c0" stroke-width="2" d="M199,-503.8314C199,-496.131 199,-486.9743 199,-478.4166"/>
<polygon fill="#c0c0c0" stroke="#c0c0c0" stroke-width="2" points="202.5001,-478.4132 199,-468.4133 195.5001,-478.4133 202.5001,-478.4132"/>
</g>
<!-- 17 -->
<g id="node18" class="node">
<title>17</title>
<path fill="none" stroke="#d88d56" stroke-width="2" stroke-dasharray="5,2" d="M224.5,-612C224.5,-612 173.5,-612 173.5,-612 167.5,-612 161.5,-606 161.5,-600 161.5,-600 161.5,-588 161.5,-588 161.5,-582 167.5,-576 173.5,-576 173.5,-576 224.5,-576 224.5,-576 230.5,-576 236.5,-582 236.5,-588 236.5,-588 236.5,-600 236.5,-600 236.5,-606 230.5,-612 224.5,-612"/>
<text text-anchor="middle" x="199" y="-591.5" font-family="sans" font-size="10.00" fill="#000000">unzip_reads</text>
</g>
<!-- 17&#45;&gt;16 -->
<g id="edge19" class="edge">
<title>17&#45;&gt;16</title>
<path fill="none" stroke="#c0c0c0" stroke-width="2" d="M199,-575.8314C199,-568.131 199,-558.9743 199,-550.4166"/>
<polygon fill="#c0c0c0" stroke="#c0c0c0" stroke-width="2" points="202.5001,-550.4132 199,-540.4133 195.5001,-550.4133 202.5001,-550.4132"/>
</g>
<!-- 18 -->
<g id="node19" class="node">
<title>18</title>
<path fill="none" stroke="#568ad8" stroke-width="2" stroke-dasharray="5,2" d="M247,-684C247,-684 151,-684 151,-684 145,-684 139,-678 139,-672 139,-672 139,-660 139,-660 139,-654 145,-648 151,-648 151,-648 247,-648 247,-648 253,-648 259,-654 259,-660 259,-660 259,-672 259,-672 259,-678 253,-684 247,-684"/>
<text text-anchor="middle" x="199" y="-669" font-family="sans" font-size="10.00" fill="#000000">assemble_reads</text>
<text text-anchor="middle" x="199" y="-658" font-family="sans" font-size="10.00" fill="#000000">sample: SRR9162908</text>
</g>
<!-- 18&#45;&gt;17 -->
<g id="edge20" class="edge">
<title>18&#45;&gt;17</title>
<path fill="none" stroke="#c0c0c0" stroke-width="2" d="M199,-647.8314C199,-640.131 199,-630.9743 199,-622.4166"/>
<polygon fill="#c0c0c0" stroke="#c0c0c0" stroke-width="2" points="202.5001,-622.4132 199,-612.4133 195.5001,-622.4133 202.5001,-622.4132"/>
</g>
</g>
</svg>
